<svg width="38" height="44" viewBox="0 0 38 44" fill="none" xmlns="http://www.w3.org/2000/svg">
<path fill-rule="evenodd" clip-rule="evenodd" d="M21 2.5C21 2.55094 20.9981 2.60144 20.9944 2.65143L34.3535 10.3643C34.7144 9.84214 35.3172 9.5 36 9.5C37.1046 9.5 38 10.3954 38 11.5C38 12.4955 37.2727 13.3211 36.3205 13.4745V29.5255C37.2727 29.6789 38 30.5045 38 31.5C38 32.6046 37.1046 33.5 36 33.5C35.3172 33.5 34.7144 33.1579 34.3535 32.6357L20.7323 40.4998C20.9026 40.794 21 41.1356 21 41.5C21 42.6046 20.1046 43.5 19 43.5C17.8954 43.5 17 42.6046 17 41.5C17 41.1356 17.0974 40.794 17.2677 40.4998L3.64652 32.6357C3.28566 33.1579 2.68279 33.5 2 33.5C0.89543 33.5 0 32.6046 0 31.5C0 30.5045 0.727291 29.6789 1.6795 29.5255V13.4745C0.727291 13.3211 0 12.4955 0 11.5C0 10.3954 0.89543 9.5 2 9.5C2.68279 9.5 3.28566 9.84215 3.64652 10.3643L17.0056 2.65145C17.0019 2.60145 17 2.55095 17 2.5C17 1.39543 17.8954 0.5 19 0.5C20.1046 0.5 21 1.39543 21 2.5ZM34.0497 31.055C34.0476 31.0641 34.0456 31.0733 34.0436 31.0825L19.75 39.3349V34.067L19.5 34.2113C19.1906 34.39 18.8094 34.39 18.5 34.2113L18.25 34.067V39.3349L3.95636 31.0825L3.95031 31.055L8.49168 28.433L18.25 34.067L18.25 21.933L7.7417 15.866V27.4226L7.74167 27.134L3.1795 29.768V13.2321L7.7417 15.866L7.74167 15.5774C7.74167 15.2201 7.93227 14.89 8.24167 14.7113L8.49168 14.567L3.95031 11.945L3.95636 11.9175L17.6742 3.99749C17.8431 4.14711 18.0375 4.2686 18.25 4.35463V8.933L8.49168 14.567L19 20.6339L29.5083 14.567L29.7583 14.7113C30.0677 14.89 30.2583 15.2201 30.2583 15.5774V15.866L19.75 21.933L19.75 34.067L29.5083 28.433L34.0497 31.055ZM34.0436 11.9175L34.0497 11.945L29.5083 14.567L19.75 8.93302V4.35461C19.9625 4.26859 20.1569 4.14709 20.3258 3.99747L34.0436 11.9175ZM34.8205 13.2321L30.2583 15.866L30.2584 27.134L34.8205 29.768V13.2321Z" fill="#F75050"/>
</svg>
