<svg width="32" height="33" viewBox="0 0 32 33" fill="none" xmlns="http://www.w3.org/2000/svg">
<path fill-rule="evenodd" clip-rule="evenodd" d="M0.208984 0.708984H31.791V32.291H0.208984V0.708984ZM8.51311 27.1012C9.2127 28.585 10.5909 29.8145 12.965 29.8145C15.5938 29.8145 17.3957 28.4153 17.3957 25.3414V15.2082H14.4278V25.2994C14.4278 26.7833 13.813 27.1648 12.8377 27.1648C11.8203 27.1648 11.3962 26.4653 10.9299 25.6386L8.51311 27.1012ZM21.4244 25.384L19.0079 26.7832C19.8769 28.5005 21.6577 29.8148 24.4137 29.8148C27.2332 29.8148 29.332 28.3521 29.332 25.6808C29.332 23.2005 27.9115 22.0982 25.3887 21.017L24.6468 20.699C23.375 20.1478 22.8237 19.7873 22.8237 18.8969C22.8237 18.1762 23.375 17.625 24.2442 17.625C25.0921 17.625 25.6431 17.9854 26.152 18.8969L28.4628 17.413C27.4877 15.6958 26.1309 15.0385 24.2441 15.0385C21.594 15.0385 19.8981 16.7346 19.8981 18.9605C19.8981 21.3774 21.3185 22.5221 23.4598 23.4336L24.2016 23.7518C25.5584 24.3452 26.364 24.7056 26.364 25.7232C26.364 26.5712 25.5798 27.1861 24.35 27.1861C22.8873 27.1861 22.0605 26.4229 21.4244 25.384Z" fill="#F75050"/>
</svg>
