<svg width="38" height="39" viewBox="0 0 38 39" fill="none" xmlns="http://www.w3.org/2000/svg">
<path fill-rule="evenodd" clip-rule="evenodd" d="M3.55 0.787476C2.10716 0.787476 0.9375 1.95713 0.9375 3.39998V35.6C0.9375 37.0428 2.10716 38.2125 3.55 38.2125H24.45C25.5284 38.2125 26.4541 37.5591 26.853 36.6267C29.3804 36.8135 31.9714 35.9406 33.904 34.008L35.2475 32.6645C38.7708 29.1412 38.7695 23.4271 35.2486 19.9023L30.2094 14.8631C29.3496 14.0033 27.9946 13.9405 27.0625 14.6748V3.39998C27.0625 1.95713 25.8928 0.787476 24.45 0.787476H3.55ZM25.5071 16.8783C24.9506 16.3218 24.0483 16.3218 23.4918 16.8783C22.9353 17.4348 22.9353 18.3371 23.4918 18.8936L26.8506 22.2523C27.0361 22.4378 27.0361 22.7386 26.8506 22.9241C26.6651 23.1096 26.3643 23.1096 26.1788 22.9241L21.8125 18.5577C21.256 18.0012 20.3537 18.0012 19.7972 18.5577C19.3103 19.0446 19.2494 19.7963 19.6146 20.3494C19.6668 20.4284 19.7276 20.5034 19.7972 20.573L23.5756 24.3514C23.6332 24.4546 23.6478 24.5817 23.621 24.7003C23.6029 24.7879 23.5598 24.8714 23.4918 24.9393C23.3411 25.0901 23.1283 25.1317 22.949 25.0375L22.8564 24.9745L22.8411 24.9591C22.8339 24.9528 22.8269 24.9462 22.8201 24.9393L15.0949 17.2142C14.5385 16.6577 13.6362 16.6577 13.0797 17.2142C12.5232 17.7707 12.5232 18.673 13.0797 19.2295L24.4995 30.6492C24.685 30.8347 24.685 31.1355 24.4995 31.321C24.314 31.5065 24.0132 31.5065 23.8277 31.321L19.9672 27.4605C19.3307 26.824 18.2384 26.7159 17.943 27.5662C17.6905 28.2927 17.7885 29.1339 18.2995 29.7953C18.345 29.8592 18.3964 29.9202 18.4537 29.9775L21.8125 33.3362C23.2718 34.7956 25.1508 35.5796 27.061 35.6882C29.2785 35.8144 31.5381 35.0304 33.2322 33.3362L34.5757 31.9927C37.7281 28.8403 37.726 23.7267 34.5757 20.573L29.5376 15.5348C28.9811 14.9783 28.0788 14.9783 27.5224 15.5348C26.9659 16.0913 26.9659 16.9936 27.5224 17.5501L29.8735 19.9012C30.059 20.0867 30.059 20.3875 29.8735 20.573C29.688 20.7585 29.3872 20.7585 29.2017 20.573L25.5071 16.8783ZM12.1 3.63748C11.7065 3.63748 11.3875 3.95647 11.3875 4.34998C11.3875 4.74348 11.7065 5.06248 12.1 5.06248H15.9C16.2935 5.06248 16.6125 4.74348 16.6125 4.34998C16.6125 3.95647 16.2935 3.63748 15.9 3.63748H12.1ZM6.47248 10.607C6.75073 10.3287 7.20186 10.3287 7.48011 10.607L9.88887 13.0157C10.1671 13.294 10.1671 13.7451 9.88887 14.0234C9.61062 14.3016 9.15949 14.3016 8.88124 14.0234L6.47248 11.6146C6.19423 11.3364 6.19423 10.8852 6.47248 10.607ZM6.54205 18.2218C6.54205 17.8283 6.86104 17.5093 7.25455 17.5093H8.99319C9.3867 17.5093 9.70569 17.8283 9.70569 18.2218C9.70569 18.6153 9.3867 18.9343 8.99319 18.9343H7.25455C6.86104 18.9343 6.54205 18.6153 6.54205 18.2218ZM14.7998 11.3891C14.7998 10.9956 14.4808 10.6766 14.0873 10.6766C13.6938 10.6766 13.3748 10.9956 13.3748 11.3891L13.3748 13.1277C13.3748 13.5212 13.6938 13.8402 14.0873 13.8402C14.4808 13.8402 14.7998 13.5212 14.7998 13.1277L14.7998 11.3891ZM6.47248 25.8367C6.19423 25.5584 6.19423 25.1073 6.47248 24.829L8.88124 22.4203C9.15949 22.142 9.61062 22.142 9.88887 22.4203C10.1671 22.6985 10.1671 23.1496 9.88887 23.4279L7.48011 25.8367C7.20186 26.1149 6.75073 26.1149 6.47248 25.8367ZM18.2858 13.0157C18.0075 13.294 18.0075 13.7451 18.2858 14.0234C18.564 14.3016 19.0151 14.3016 19.2934 14.0234L21.7021 11.6146C21.9804 11.3364 21.9804 10.8852 21.7021 10.607C21.4239 10.3287 20.9728 10.3287 20.6945 10.607L18.2858 13.0157ZM14.0873 22.6034C14.4808 22.6034 14.7998 22.9224 14.7998 23.3159L14.7998 25.0546C14.7998 25.4481 14.4808 25.7671 14.0873 25.7671C13.6938 25.7671 13.3748 25.4481 13.3748 25.0546L13.3748 23.3159C13.3748 22.9224 13.6938 22.6034 14.0873 22.6034ZM15.9 33.7C15.9 34.7493 15.0493 35.6 14 35.6C12.9507 35.6 12.1 34.7493 12.1 33.7C12.1 32.6506 12.9507 31.8 14 31.8C15.0493 31.8 15.9 32.6506 15.9 33.7Z" fill="#F75050"/>
</svg>
