<svg width="36" height="35" viewBox="0 0 36 35" fill="none" xmlns="http://www.w3.org/2000/svg">
<path fill-rule="evenodd" clip-rule="evenodd" d="M9.69255 4.1661C9.69255 4.1661 9.14892 0.39087 17.8544 0.390869C26.9521 0.390869 26.2492 4.9425 26.2492 4.9425V12.4638C26.2492 17.0127 21.62 16.9378 21.62 16.9378H13.3804C8.43947 16.9378 8.59588 21.8 8.59588 21.8V25.8761H5.6941C5.6941 25.8761 0.831909 26.1876 0.831909 17.4037C0.831909 8.61974 6.40256 9.2515 6.40256 9.2515H18.0097V8.0772H9.70225L9.69255 4.1661ZM14.7682 4.51548C14.7682 3.68895 14.1002 3.02092 13.2737 3.02092C12.4471 3.02092 11.7791 3.68895 11.7791 4.51548C11.7791 5.34201 12.4471 6.01005 13.2737 6.01005C14.1002 6.01005 14.7682 5.34201 14.7682 4.51548Z" fill="#F75050"/>
<path fill-rule="evenodd" clip-rule="evenodd" d="M26.2635 30.7293C26.2635 30.7293 26.8072 34.5046 18.1017 34.5046C9.00402 34.5046 9.70687 29.9529 9.70687 29.9529V22.4316C9.70687 17.8828 14.3361 17.9576 14.3361 17.9576H22.5757C27.5166 17.9576 27.3602 13.0954 27.3602 13.0954V9.01931H30.262C30.262 9.01931 35.1242 8.70782 35.1242 17.4918C35.1242 26.2757 29.5535 25.6439 29.5535 25.6439H17.9464V26.8182H26.2538L26.2635 30.7293ZM21.1878 30.38C21.1878 31.2065 21.8559 31.8745 22.6824 31.8745C23.5089 31.8745 24.177 31.2065 24.177 30.38C24.177 29.5534 23.5089 28.8854 22.6824 28.8854C21.8559 28.8854 21.1878 29.5534 21.1878 30.38Z" fill="#F75050"/>
</svg>
