<svg width="36" height="40" viewBox="0 0 36 40" fill="none" xmlns="http://www.w3.org/2000/svg">
<path d="M35.3725 27.7875V9.50069L19.5239 0.357289V7.38755L25.7414 10.9636C25.9853 11.0856 25.9853 11.4513 25.7414 11.5732L18.3455 15.8401C18.1423 15.962 17.8578 15.962 17.6546 15.8401L10.2586 11.5326C10.0148 11.4106 10.0148 11.0449 10.2586 10.923L16.4761 7.34692V0.31665L0.627563 9.46006V27.7875L6.72317 24.2927V17.0999C6.72317 16.8561 7.00763 16.6529 7.25145 16.8154L14.6475 21.0823C14.8506 21.2043 15.0132 21.4481 15.0132 21.6919V30.2257C15.0132 30.4696 14.7287 30.6728 14.4849 30.5102L8.26739 26.9341L2.17178 30.4289L18.0204 39.5723L33.8689 30.4289L27.7733 26.9341L21.5558 30.5102C21.3526 30.6321 21.0275 30.4696 21.0275 30.2257V21.6919C21.0275 21.4481 21.1494 21.2043 21.3933 21.0823L28.7893 16.8154C28.9924 16.6935 29.3175 16.8561 29.3175 17.0999V24.2927L35.3725 27.7875Z" fill="#F75050"/>
</svg>
