<svg width="42" height="43" viewBox="0 0 42 43" fill="none" xmlns="http://www.w3.org/2000/svg">
<path fill-rule="evenodd" clip-rule="evenodd" d="M40.8434 19.6573L22.763 1.57817C21.7225 0.536769 20.0336 0.536769 18.9918 1.57817L15.2374 5.33257L20 10.0952C21.1068 9.72126 22.3759 9.97207 23.2582 10.8544C24.1447 11.7423 24.3937 13.0222 24.0107 14.1327L28.6006 18.7226C29.7111 18.3401 30.9924 18.5877 31.8793 19.476C33.1188 20.715 33.1188 22.7233 31.8793 23.9633C30.6394 25.2032 28.6311 25.2032 27.3907 23.9633C26.4583 23.03 26.228 21.6605 26.7 20.5119L22.4195 16.2314L22.419 27.4959C22.7212 27.6459 23.0065 27.8453 23.2582 28.0961C24.4977 29.3352 24.4977 31.3435 23.2582 32.5843C22.0183 33.8238 20.0091 33.8238 18.771 32.5843C17.5315 31.3435 17.5315 29.3352 18.771 28.0961C19.0772 27.7904 19.4316 27.5591 19.8096 27.4037V16.0342C19.4316 15.8797 19.0777 15.6498 18.771 15.3417C17.8318 14.4039 17.606 13.0258 18.0871 11.8727L13.3927 7.17728L0.99538 19.5737C-0.0464742 20.616 -0.0464742 22.3048 0.99538 23.3462L19.0758 41.4258C20.1168 42.4672 21.8052 42.4672 22.8475 41.4258L40.8434 23.4303C41.8848 22.3884 41.8848 20.6987 40.8434 19.6573Z" fill="#F75050"/>
</svg>
