<?xml version="1.0" encoding="UTF-8"?>
<svg width="65px" height="73px" viewBox="0 0 65 73" version="1.1" xmlns="http://www.w3.org/2000/svg" xmlns:xlink="http://www.w3.org/1999/xlink">
    <!-- Generator: Sketch 48.2 (47327) - http://www.bohemiancoding.com/sketch -->
    <title>ic_design</title>
    <desc>Created with Sketch.</desc>
    <defs>
        <polygon id="path-1" points="32.5 0 64.1099272 18.25 64.1099272 54.75 32.5 73 0.890072762 54.75 0.890072762 18.25"></polygon>
    </defs>
    <g id="Element-Sheet" stroke="none" stroke-width="1" fill="none" fill-rule="evenodd" transform="translate(-64.000000, -123.000000)">
        <g id="ic_design" transform="translate(64.000000, 123.000000)">
            <g id="Polygon">
                <use fill-opacity="0.297129755" fill="#3FA2F7" fill-rule="evenodd" xlink:href="#path-1"></use>
                <path stroke="#3FA2F7" stroke-width="2" d="M32.5,1.15470054 L1.89007276,18.8273503 L1.89007276,54.1726497 L32.5,71.8452995 L63.1099272,54.1726497 L63.1099272,18.8273503 L32.5,1.15470054 Z"></path>
            </g>
            <path d="M50.5105263,18.5297544 C49.4797895,17.4991579 47.4125614,18.0871579 44.0047018,20.3807719 C41.1096842,22.3292632 37.6371228,25.2803509 34.2267368,28.6907368 C29.170807,33.7465965 25.3268772,38.7106667 24.0470175,41.7755088 C23.8363509,41.6991579 23.6178947,41.6381053 23.3924912,41.5935439 C22.0681404,41.3315789 20.6297544,41.6665263 19.4459649,42.5118596 C17.7472281,43.7249123 17.2973333,45.457193 17.232,45.749193 C16.874386,47.0847719 16.1971228,48.3590877 15.2726316,49.4354386 C14.9752982,49.781614 15.0092632,50.3020351 15.3491228,50.6067368 C16.5369825,51.6712982 18.0564912,52.2052632 19.6369825,52.2052632 C21.1602105,52.2052632 22.7401404,51.709193 24.133614,50.7141053 C24.7870175,50.2475088 25.2816842,49.7315789 25.3774737,49.6294737 C26.5614737,48.3571228 27.0642105,46.6888421 26.814807,45.1645614 C29.8218246,44.0865965 35.0641404,40.0992281 40.349614,34.8137544 C43.76,31.4033684 46.7111579,27.9307368 48.6595789,25.0357895 C50.9531228,21.6277895 51.5412632,19.5605614 50.5105263,18.5297544 Z M24.1503158,48.4852632 C24.1052632,48.5333333 23.6945263,48.9661053 23.1587368,49.3485614 C21.2126316,50.7380351 18.8300351,50.8987368 17.0994386,49.8289123 C17.9098947,48.7177544 18.5122105,47.465193 18.8582456,46.1619649 L18.8582456,46.1618947 C18.8621053,46.1472982 18.865614,46.1325614 18.8687018,46.1176842 C18.8715789,46.1044211 19.1629474,44.7754386 20.4209123,43.877193 C21.2300351,43.2992982 22.1947368,43.0668772 23.0672982,43.2393684 C23.7869474,43.3815439 24.3919298,43.7923509 24.770807,44.3958596 C25.5143158,45.5802105 25.2529123,47.3004912 24.1503158,48.4852632 Z M26.2432982,43.590386 C26.2261053,43.561614 25.9717193,43.0451228 25.4977544,42.6612632 C25.9061053,41.5695439 26.785193,40.0939649 28.0104561,38.3995789 L30.6388772,41.028 C28.7898246,42.3590175 27.2746667,43.2266667 26.2432982,43.590386 Z M31.9963509,40.0129825 L29.0278596,37.0444912 C29.5408421,36.3841404 30.0958596,35.7001404 30.6873684,35.0004912 L34.0421754,38.3552982 C33.3321404,38.9549474 32.6483509,39.5082807 31.9963509,40.0129825 Z M47.0111579,24.474807 C45.121614,27.2057544 42.3344561,30.4562105 39.1632982,33.6272281 C37.8318596,34.9586667 36.5410526,36.1698246 35.3145965,37.2548772 L31.7877895,33.7280702 C32.906386,32.4626667 34.1260351,31.164 35.4131228,29.8770526 C38.5842105,26.7058947 41.8346667,23.918807 44.5655439,22.0290526 C47.9280702,19.702386 49.0883509,19.6986667 49.3112281,19.7291228 C49.3418246,19.9517895 49.3377544,21.1124912 47.0111579,24.474807 Z" id="Shape" fill="#FFFFFF" fill-rule="nonzero"></path>
        </g>
    </g>
</svg>