<svg xmlns="http://www.w3.org/2000/svg" viewBox="0 0 118 26">
    <g xmlns="http://www.w3.org/2000/svg" id="g3346" transform="translate(110.793893, 8.517241) scale(-1, 1) rotate(-180.000000) translate(-110.793893, -8.517241) translate(103.587786, 0.000000)">
      <polygon id="path3348" points="11.529771 17.0344828 5.16821985 3.59995402 2.7642626 8.69723908 0.166028702 8.69723908 4.1132458 0.359995402 6.2128171 0.359995402 14.1078278 17.0322115 14.1078278 17.0344828"/>
    </g>
    <path xmlns="http://www.w3.org/2000/svg" d="M46.8685497,2.68965517 L52.075458,2.68965517 L52.075458,7.25266083 L46.8685497,7.25266083 L46.8685497,2.68965517 Z M5.90414091,25.4742295 L11.3438464,25.4742295 L17.2479896,8.66506156 L12.0405007,8.66506156 L8.72384916,19.4660703 L8.65650386,19.4660703 L5.3398523,8.66506156 L0,8.66506156 L5.90414091,25.4742295 Z M25.0092941,11.850718 C26.8333644,11.850718 28.0943097,13.1964638 28.2928548,15.1662385 L21.3605681,15.1662385 C21.7588218,13.1631341 22.8531493,11.850718 25.0092941,11.850718 Z M25.2746015,22.2569673 C22.9860933,22.2569673 21.5933676,20.7796358 21.3274772,18.5145093 L33.567106,18.5145093 C33.6002205,14.9030647 32.6388134,12.0144818 30.6144538,10.209048 C29.1886348,8.89548024 27.2978022,8.17319084 24.9100192,8.17319084 C19.8018052,8.17319084 16.2523541,12.0144818 16.2523541,17.0371801 C16.2523541,22.0932035 19.6363509,25.9672472 25.2415106,25.9672472 C27.3645645,25.9672472 29.0556908,25.4087216 30.4489995,24.4560136 C31.9415808,23.4395217 33.002815,21.9616155 33.3017963,20.4842863 L28.3259456,20.4842863 C27.829,21.6013328 26.8002735,22.2569673 25.2746015,22.2569673 Z M34.7943775,25.4742295 L39.9687732,25.4742295 L39.9687732,17.7594672 C39.9687732,14.2474302 42.0912465,12.7034437 45.3411357,13.1303813 L45.4409889,13.1303813 L45.4409889,8.6989637 C45.1756815,8.60013073 44.8772809,8.56737564 44.3797546,8.56737564 C42.3571345,8.56737564 40.996919,9.4867586 39.8358292,11.4559585 L39.7359761,11.4559585 L39.7359761,8.66506156 L34.7943775,8.66506156 L34.7943775,25.4742295 Z M46.8685497,25.4742295 L52.075458,25.4742295 L52.075458,8.66506156 L46.8685497,8.66506156 L46.8685497,25.4742295 Z M53.5024358,25.4742295 L68.0305727,25.4742295 L68.0305727,21.435845 L59.8036716,21.435845 L59.8036716,21.3381614 L67.6659904,12.6057602 L67.6659904,8.66506156 L53.5024358,8.66506156 L53.5024358,12.7034437 L61.4622877,12.7034437 L61.4622877,12.802279 L53.5024358,21.6013328 L53.5024358,25.4742295 Z M77.2176961,22.2247892 C74.7631507,22.2247892 73.4702782,20.1889344 73.4702782,17.1032603 C73.4702782,13.9842587 74.7631507,11.9805797 77.2176961,11.9805797 C79.6728197,11.9805797 81.0330352,13.9842587 81.0330352,17.1032603 C81.0330352,20.1889344 79.6728197,22.2247892 77.2176961,22.2247892 Z M77.2513675,8.20537124 C71.8447529,8.20537124 68.2291178,12.0472369 68.2291178,17.1032603 C68.2291178,22.1259563 71.8447529,26 77.2513675,26 C82.6574015,26 86.2730343,22.1259563 86.2730343,17.1032603 C86.2730343,12.0472369 82.6574015,8.20537124 77.2513675,8.20537124 Z M87.4010333,25.4742295 L92.575429,25.4742295 L92.575429,16.1177971 C92.575429,13.9842587 93.835213,12.4741744 95.6923742,12.4741744 C97.4839367,12.4741744 98.4128076,13.721085 98.4128076,15.4943431 L98.4128076,25.4742295 L103.587786,25.4742295 L103.587786,14.5088799 C103.587786,10.7997493 101.332369,8.17319084 97.683643,8.17319084 C95.3608828,8.17319084 93.7365188,9.15865401 92.5098279,10.9640901 L92.4099747,10.9640901 L92.4099747,8.66506156 L87.4010333,8.66506156 L87.4010333,25.4742295 Z" id="path3358"/>
  </svg>