<svg xmlns="http://www.w3.org/2000/svg" viewBox="0 0 217 32">
    <path xmlns="http://www.w3.org/2000/svg" d="M64.8155215,18.6838118 C63.8912184,18.6838118 63.4952013,19.3862118 63.4952013,19.872549 C63.4952013,20.4171451 63.8892442,21.0612549 64.7906471,21.0612549 C65.6103196,21.0612549 66.1232071,20.5032314 66.1232071,19.8235451 C66.1232071,19.141098 65.5487257,18.6838118 64.8155215,18.6838118 Z M198.577306,12.7401976 C198.623502,12.7401976 198.636531,12.8172549 198.651535,12.8749804 L200.107283,16.4779137 C200.125856,16.5226824 200.101376,16.5637176 200.020814,16.5637176 L197.04733,16.5637176 C196.985341,16.5637176 196.968364,16.5248157 196.985736,16.4656784 L198.478598,12.8749804 C198.493191,12.8172549 198.528347,12.7401976 198.577306,12.7401976 Z M163.412725,10.754902 C164.673031,10.754902 166.505054,10.9300016 167.990019,12.2132173 C168.686504,12.8114133 169.54487,14.0138039 169.54487,15.8651765 C169.54487,17.3681098 169.221502,18.6907137 168.187436,19.4926275 C167.216937,20.250149 166.122066,20.5465569 164.47364,20.5465569 C163.196357,20.5465569 162.5741,20.2381961 162.363655,19.9583216 C162.23415,19.7990118 162.194666,19.2196863 162.178873,18.8553882 C162.162701,18.5781176 162.153983,17.4590902 162.153983,15.9142118 L162.153983,14.0759624 C162.153983,12.9227859 162.151772,11.6427859 162.166238,11.1470588 C162.166238,10.9865098 162.217961,10.9243137 162.363655,10.8651765 C162.494739,10.807451 163.088173,10.754902 163.412725,10.754902 Z M99.6966132,10.754902 C100.956524,10.754902 102.799603,10.9300016 104.286542,12.2132173 C104.981448,12.8114133 105.828758,14.0138039 105.828758,15.8651765 C105.828758,17.3681098 105.502627,18.6907137 104.471324,19.4926275 C103.50122,20.250149 102.40556,20.5465569 100.757528,20.5465569 C99.4814295,20.5465569 98.8579888,20.2381961 98.647543,19.9583216 C98.5192224,19.7990118 98.4785546,19.2196863 98.4627613,18.8553882 C98.446589,18.5781176 98.4378711,17.4590902 98.4378711,15.9142118 L98.4378711,14.0759624 C98.4378711,12.9227859 98.4343334,11.6427859 98.4500951,11.1470588 C98.4500951,10.9865098 98.502213,10.9243137 98.6475114,10.8651765 C98.775832,10.807451 99.3732137,10.754902 99.6965816,10.754902 L99.6966132,10.754902 Z M215.369932,10.1666667 L215.369932,11.624982 L215.555109,11.624982 L215.555109,10.7671373 C215.555109,10.731451 215.559057,10.6678839 215.555109,10.5955702 C215.555109,10.5219231 215.555109,10.4716486 215.555109,10.4362761 L215.555109,10.3872565 L215.974816,11.624982 L216.172232,11.624982 L216.591544,10.3872565 C216.591544,10.4661584 216.591544,10.5395294 216.591544,10.6078431 C216.590281,10.6761569 216.591544,10.7368251 216.591544,10.7671373 L216.591544,11.624982 L216.776721,11.624982 L216.776721,10.1666667 L216.492836,10.1666667 L216.073524,11.3921569 L215.653817,10.1666667 L215.369932,10.1666667 Z M214.000653,10.1666667 L214.000653,10.3382369 L214.494193,10.3382369 L214.494193,11.624982 L214.69161,11.624982 L214.69161,10.3382369 L215.18515,10.3382369 L215.18515,10.1666667 L214.000653,10.1666667 Z M206.646895,10.0686275 C206.404468,10.0686275 206.288782,10.1021584 206.288782,10.2034133 C206.288782,10.30608 206.392623,10.3382369 206.572667,10.3382369 C206.780349,10.3382369 206.973817,10.3460486 207.103322,10.3749804 C207.636741,10.4776471 207.761113,10.7126306 207.794279,11.2083137 C207.823496,11.6752565 207.831393,12.0931388 207.831393,14.3088251 L207.831393,16.8700706 C207.831393,18.2126275 207.824286,19.3700863 207.744925,19.9828235 C207.680172,20.4063843 207.600416,20.7204235 207.275864,20.7794039 C207.134514,20.8085804 206.939861,20.8406745 206.696249,20.8406745 C206.501202,20.8406745 206.436844,20.8785098 206.436844,20.9509804 C206.436844,21.0536 206.546213,21.0980549 206.757843,21.0980549 C207.40142,21.0980549 208.423247,21.0612549 208.7936,21.0612549 C210.102865,21.0612549 211.168518,21.1470588 213.494477,21.1470588 C214.333891,21.1470588 214.421939,21.0758431 214.518673,20.754902 C214.648178,20.3302745 214.753203,19.2363451 214.753203,19.0759686 C214.753203,18.9013176 214.743348,18.8308549 214.629621,18.8308549 C214.5013,18.8308549 214.463002,18.9090039 214.444839,19.0392314 C214.412858,19.3152471 214.219785,19.7324078 214.025132,19.9215843 C213.621613,20.3160314 212.993829,20.3259765 212.137437,20.3259765 C210.876737,20.3259765 210.463347,20.2256471 210.187754,20.0073255 C209.848988,19.744298 209.842276,18.7374588 209.842276,16.8700706 L209.842276,14.3088251 C209.842276,12.0931388 209.847803,11.6752565 209.87939,11.2083137 C209.909808,10.6968659 210.035744,10.4485114 210.471639,10.3749804 C210.666291,10.3460549 210.922143,10.3382369 211.101002,10.3382369 C211.294075,10.3382369 211.397126,10.30608 211.397126,10.2034133 C211.397126,10.1021584 211.279071,10.0686275 211.051648,10.0686275 C210.421495,10.0686275 209.251606,10.1176471 208.867829,10.1176471 C208.430749,10.1176471 207.404974,10.0686275 206.646895,10.0686275 Z M174.060571,10.0686275 C173.803929,10.0686275 173.678373,10.1056878 173.678373,10.191178 C173.678373,10.3096094 173.77945,10.3382369 173.937383,10.3382369 C174.13322,10.3382369 174.338533,10.3548016 174.517392,10.3994918 C174.870767,10.4718055 175.028305,10.7126306 175.060287,11.2083137 C175.091873,11.6752565 175.097006,12.0919216 175.097006,14.3088251 L175.097006,16.8700706 C175.097006,18.2863216 175.102534,19.4451922 175.023173,20.0563608 C174.973029,20.4783843 174.863265,20.7204235 174.541872,20.7794039 C174.397758,20.8085804 174.205474,20.8406745 173.961863,20.8406745 C173.771553,20.8406745 173.702852,20.8785098 173.702852,20.9509804 C173.702852,21.0536 173.824461,21.0980549 174.036091,21.0980549 C174.683222,21.0980549 175.698731,21.0612549 176.071848,21.0612549 C176.506164,21.0612549 177.520489,21.0980549 178.588906,21.0980549 C178.766186,21.0980549 178.89727,21.0536 178.89727,20.9509804 C178.89727,20.8785098 178.814355,20.8406745 178.63826,20.8406745 C178.396227,20.8406745 178.037719,20.8085176 177.81148,20.7794039 C177.327021,20.7204235 177.218837,20.4631059 177.169877,20.0686275 C177.105125,19.4428706 177.096044,18.2863216 177.096044,16.8700706 L177.096044,14.3088251 C177.096044,12.0919216 177.099992,11.6752565 177.133158,11.2083137 C177.164745,10.6968659 177.301752,10.4485114 177.737647,10.3749804 C177.93072,10.3460549 178.058251,10.3382369 178.218948,10.3382369 C178.380434,10.3382369 178.477958,10.3096251 178.477958,10.191178 C178.477958,10.1056878 178.34411,10.0686275 178.132479,10.0686275 C177.51812,10.0686275 176.574075,10.1176471 176.170556,10.1176471 C175.699521,10.1176471 174.677694,10.0686275 174.060571,10.0686275 Z M158.859515,10.0686275 C158.617483,10.0686275 158.501797,10.1021584 158.501797,10.2034133 C158.501797,10.30608 158.594583,10.3382369 158.773442,10.3382369 C158.999681,10.3382369 159.276853,10.3460486 159.40241,10.3749804 C159.938988,10.4776471 160.061781,10.7126306 160.093367,11.2083137 C160.124954,11.6752565 160.130481,12.0931388 160.130481,14.3088251 L160.130481,16.8700706 C160.130481,18.2126275 160.13484,19.368549 160.056648,19.9828235 C159.9915,20.4048471 159.91056,20.7204235 159.587587,20.7794039 C159.441893,20.8085804 159.238949,20.8406745 158.995338,20.8406745 C158.799501,20.8406745 158.736328,20.8774431 158.736328,20.9509804 C158.736328,21.0520941 158.858726,21.0980549 159.069566,21.0980549 C159.712749,21.0980549 160.720756,21.0612549 161.093083,21.0612549 C161.902885,21.0612549 163.35429,21.2328314 164.535234,21.2328314 C167.523327,21.2328314 169.210447,20.2022118 169.951943,19.5171294 C170.858873,18.6861333 171.716449,17.2731451 171.716449,15.4362761 C171.716449,13.7006682 170.955607,12.4940392 170.149359,11.7352941 C168.388405,10.0718431 165.691699,10.0686275 163.671735,10.0686275 C162.701237,10.0686275 161.678225,10.1176471 161.179157,10.1176471 C160.723915,10.1176471 159.713538,10.0686275 158.859515,10.0686275 Z M95.1311638,10.0686275 C94.8887366,10.0686275 94.7856853,10.1021584 94.7856853,10.2034133 C94.7856853,10.30608 94.8796554,10.3382369 95.0573301,10.3382369 C95.2835692,10.3382369 95.5579779,10.3460486 95.6862985,10.3749804 C96.2212966,10.4776471 96.3456689,10.7126306 96.3772555,11.2083137 C96.4104215,11.6752565 96.4143698,12.0931388 96.4143698,14.3088251 L96.4143698,16.8700706 C96.4143698,18.2126275 96.4100424,19.368549 96.3279014,19.9828235 C96.2631489,20.4048471 96.1810237,20.7204235 95.8592351,20.7794039 C95.7135419,20.8085804 95.5200739,20.8406745 95.279226,20.8406745 C95.0857581,20.8406745 95.0202159,20.8774431 95.0202159,20.9509804 C95.0202159,21.0520941 95.133138,21.0980549 95.3408199,21.0980549 C95.9883454,21.0980549 97.0062239,21.0612549 97.3769717,21.0612549 C98.182825,21.0612549 99.6409418,21.2328314 100.819122,21.2328314 C103.8084,21.2328314 105.493151,20.2022118 106.235831,19.5171294 C107.139998,18.6861333 108.000338,17.2731451 108.000338,15.4362761 C108.000338,13.7006682 107.242259,12.4940392 106.433247,11.7352941 C104.672689,10.0718431 101.974403,10.0686275 99.9556234,10.0686275 C98.9863094,10.0686275 97.9648774,10.1176471 97.4630452,10.1176471 C97.012936,10.1176471 95.9863712,10.0686275 95.1311638,10.0686275 Z M80.6826594,10.0686275 C80.4394426,10.0686275 80.3249411,10.1021584 80.3249411,10.2034133 C80.3249411,10.30608 80.4189113,10.3382369 80.5965859,10.3382369 C80.822825,10.3382369 81.0972337,10.3460486 81.2255543,10.3749804 C81.761737,10.4776471 81.8833454,10.7126306 81.9165113,11.2083137 C81.9468977,11.6752565 81.9536256,12.0919216 81.9536256,14.3088251 L81.9536256,16.4289098 C81.9536256,18.5444235 82.5739076,19.6309804 83.3971336,20.3014431 C84.5768934,21.2650196 86.1187148,21.3063686 86.9755015,21.3063686 C88.0249666,21.3063686 89.1960401,21.1440157 90.3438185,20.2524392 C91.7008581,19.2031216 91.8737948,17.4851294 91.8737948,15.8651765 L91.8737948,14.3088251 C91.8737948,12.0919216 91.8777431,11.6752565 91.9109091,11.2083137 C91.9436802,10.6967059 92.0660783,10.4485114 92.503158,10.3749804 C92.6950466,10.3460549 92.795729,10.3382369 92.9718243,10.3382369 C93.1664768,10.3382369 93.2679487,10.30608 93.2679487,10.2034133 C93.2679487,10.1021584 93.1487093,10.0686275 92.9224702,10.0686275 C92.2923174,10.0686275 91.2787821,10.1176471 91.0841296,10.1176471 C91.0683363,10.1176471 90.042956,10.0686275 89.2209145,10.0686275 C88.9946755,10.0686275 88.8880707,10.1021584 88.8880707,10.2034133 C88.8880707,10.30608 88.9820408,10.3382369 89.1593207,10.3382369 C89.3366005,10.3382369 89.6082453,10.3460486 89.7393298,10.3749804 C90.2711693,10.4776471 90.4093607,10.7126306 90.4425266,11.2083137 C90.4745081,11.6752565 90.4674169,12.0919216 90.4674169,14.3088251 L90.4674169,16.1225569 C90.4674169,17.6254588 90.4164835,18.937051 89.5296894,19.7377412 C88.882164,20.3213647 88.0083994,20.5343216 87.2961214,20.5343216 C86.7480937,20.5343216 86.0117309,20.4714824 85.2852389,19.9338196 C84.4920202,19.3501961 84.0265126,18.4573961 84.0265126,16.3431373 L84.0265126,14.3088251 C84.0265126,12.0919216 84.0194056,11.6752565 84.0514028,11.2083137 C84.0841739,10.6967059 84.2188118,10.4485114 84.6558915,10.3749804 C84.8489647,10.3460549 84.947278,10.3382369 85.1245578,10.3382369 C85.2860444,10.3382369 85.3839629,10.30608 85.3839629,10.2034133 C85.3839629,10.1021584 85.2670924,10.0686275 85.0258497,10.0686275 C84.4434716,10.0686275 83.425988,10.1176471 83.0394469,10.1176471 C82.5549872,10.1176471 81.5394778,10.0686275 80.682691,10.0686275 L80.6826594,10.0686275 Z M155.96026,9.95831529 C155.879319,9.95831529 155.779031,10.0050604 155.700854,10.0196078 C155.573718,10.0471843 155.317472,10.0750588 155.009897,10.1053741 C154.702718,10.1184251 151.48878,10.1176408 150.975498,10.1176408 C150.522625,10.1176408 149.500008,10.0686212 148.643222,10.0686212 C148.401189,10.0686212 148.285503,10.1021522 148.285503,10.2034071 C148.285503,10.3060737 148.380658,10.3382306 148.557148,10.3382306 C148.784967,10.3382306 149.070036,10.3460424 149.198751,10.3749741 C149.734934,10.4774839 149.856542,10.7126243 149.889708,11.2083075 C149.923664,11.6752502 149.926428,12.0919153 149.926428,14.3088188 L149.926428,16.8700706 C149.926428,18.2126275 149.922479,19.368549 149.840354,19.9828235 C149.775207,20.4048471 149.695451,20.7204235 149.371293,20.7794039 C149.2256,20.8085804 149.033711,20.8406745 148.791284,20.8406745 C148.600975,20.8406745 148.532274,20.8785098 148.532274,20.9509804 C148.532274,21.0536 148.643617,21.0980235 148.853273,21.0980235 C149.500403,21.0980235 150.519466,21.0612549 150.88903,21.0612549 C151.843735,21.0612549 152.929524,21.1470588 155.368011,21.1470588 C155.980791,21.1470588 156.117798,21.1501961 156.23151,20.7671373 C156.314819,20.4763765 156.4538,19.4860706 156.4538,19.1494745 C156.4538,19.0036863 156.446314,18.8798902 156.317978,18.8798902 C156.204266,18.8798902 156.176628,18.9401255 156.145041,19.1004706 C156.02975,19.6971451 155.836677,20.0027451 155.417365,20.178902 C154.996078,20.352298 154.321704,20.3627451 153.899628,20.3627451 C152.252781,20.3627451 151.992981,20.1459922 151.962579,19.1372392 C151.945207,18.7152157 151.962579,17.3657882 151.962579,16.8700706 L151.962579,15.7181114 C151.962579,15.6312878 151.969307,15.5710525 152.048653,15.5710525 C152.436773,15.5710525 154.034266,15.591131 154.343815,15.6200722 C154.939617,15.6792094 155.176122,15.8904627 155.256668,16.1837961 C155.306812,16.371749 155.303653,16.5647843 155.318657,16.7107922 C155.318657,16.7832627 155.355376,16.8455686 155.466719,16.8455686 C155.613596,16.8455686 155.602146,16.6807373 155.602146,16.5637176 C155.602146,16.461098 155.644788,15.875131 155.676375,15.5833286 C155.725334,14.8403859 155.799563,14.6052486 155.799563,14.5171325 C155.799563,14.4290541 155.753367,14.406858 155.688615,14.406858 C155.609253,14.406858 155.543316,14.4736408 155.429604,14.5906604 C155.28786,14.7365051 155.042669,14.7809349 154.652179,14.8112502 C154.2838,14.8402384 152.426903,14.8480345 152.073527,14.8480345 C151.978373,14.8480345 151.962579,14.7898384 151.962579,14.6886996 L151.962579,10.9877208 C151.962579,10.8850918 151.992587,10.840662 152.073527,10.840662 C152.3965,10.840662 154.094281,10.8717522 154.368294,10.9019545 C155.175727,10.988662 155.329317,11.1658761 155.441844,11.4288973 C155.52239,11.6037208 155.540552,11.8532486 155.540552,11.9558776 C155.540552,12.0873286 155.578851,12.1641914 155.688615,12.1641914 C155.802326,12.1641914 155.831544,12.0661522 155.848917,11.9926212 C155.882083,11.8177192 155.920776,11.1813678 155.935385,11.0367404 C155.984344,10.3648973 156.058968,10.1942306 156.058968,10.0931325 C156.058968,10.020662 156.040805,9.95830902 155.96026,9.95830902 L155.96026,9.95831529 Z M116.846957,9.95831529 C116.764832,9.95831529 116.668888,10.0050604 116.587947,10.0196078 C116.458442,10.0471843 116.203775,10.0750588 115.89699,10.1053741 C115.58981,10.1184251 112.368766,10.1176408 111.849956,10.1176408 C111.398267,10.1176408 110.385522,10.0686212 109.530314,10.0686212 C109.287887,10.0686212 109.172596,10.1021522 109.172596,10.2034071 C109.172596,10.3060737 109.266566,10.3382306 109.443846,10.3382306 C109.670085,10.3382306 109.943704,10.3460424 110.073209,10.3749741 C110.605048,10.4774839 110.744819,10.7126243 110.776406,11.2083075 C110.807992,11.6752502 110.801296,12.0919153 110.801296,14.3088188 L110.801296,16.8700706 C110.801296,18.2126275 110.808024,19.368549 110.727068,19.9828235 C110.666263,20.4048471 110.582559,20.7204235 110.258401,20.7794039 C110.115077,20.8085804 109.91924,20.8406745 109.678392,20.8406745 C109.484134,20.8406745 109.419382,20.8785098 109.419382,20.9509804 C109.419382,21.0536 109.52954,21.0980235 109.739986,21.0980235 C110.384748,21.0980235 111.403811,21.0612549 111.775743,21.0612549 C112.728869,21.0612549 113.816238,21.1470588 116.254724,21.1470588 C116.869084,21.1470588 117.005696,21.1501961 117.118618,20.7671373 C117.200743,20.4763765 117.328274,19.4860706 117.328274,19.1494745 C117.328274,19.0036863 117.334212,18.8798902 117.204691,18.8798902 C117.090979,18.8798902 117.061367,18.9401255 117.032149,19.1004706 C116.918438,19.6971451 116.723785,20.0027451 116.304078,20.178902 C115.884766,20.352298 115.193809,20.3627451 114.774102,20.3627451 C113.12607,20.3627451 112.86864,20.1459922 112.837053,19.1372392 C112.82126,18.7152157 112.837053,17.3657882 112.837053,16.8700706 L112.837053,15.7181114 C112.837053,15.6312878 112.854836,15.5710525 112.935761,15.5710525 C113.325066,15.5710525 114.922164,15.591131 115.230528,15.6200722 C115.827515,15.6792094 116.061651,15.8904627 116.143776,16.1837961 C116.191551,16.371749 116.189577,16.5647843 116.20537,16.7107922 C116.20537,16.7832627 116.226312,16.8455686 116.341192,16.8455686 C116.486886,16.8455686 116.489255,16.6807373 116.489255,16.5637176 C116.489255,16.461098 116.519262,15.875131 116.550848,15.5833286 C116.600992,14.8403859 116.686671,14.6052486 116.686671,14.5171325 C116.686671,14.4290541 116.639291,14.406858 116.575723,14.406858 C116.494387,14.406858 116.428845,14.4736408 116.316318,14.5906604 C116.170625,14.7365051 115.930961,14.7809349 115.539287,14.8112502 C115.169724,14.8402384 113.305324,14.8480345 112.948001,14.8480345 C112.852846,14.8480345 112.837053,14.7898384 112.837053,14.6886996 L112.837053,10.9877208 C112.837053,10.8850918 112.86864,10.840662 112.948001,10.840662 C113.274922,10.840662 114.969939,10.8717522 115.243163,10.9019545 C116.05178,10.988662 116.214846,11.1658761 116.328953,11.4288973 C116.411078,11.6037208 116.427661,11.8532486 116.427661,11.9558776 C116.427661,12.0873286 116.461221,12.1641914 116.575723,12.1641914 C116.68983,12.1641914 116.717468,12.0661522 116.736025,11.9926212 C116.766411,11.8177192 116.805515,11.1813678 116.822493,11.0367404 C116.868689,10.3648973 116.945681,10.1942306 116.945681,10.0931325 C116.945681,10.020662 116.929098,9.95830902 116.846973,9.95830902 L116.846957,9.95831529 Z M187.4604,9.87254902 C185.0535,9.87254902 183.516022,10.4540392 182.352055,11.4166682 C180.801548,12.7012957 180.464361,14.4203545 180.464361,15.4117647 C180.464361,16.8265882 180.880119,18.4586196 182.463398,19.7132078 C183.93415,20.8664314 185.789468,21.3063686 188.003294,21.3063686 C189.037361,21.3063686 190.270423,21.2067922 190.915185,20.9754824 C191.190383,20.8728627 191.255136,20.7939608 191.334497,20.5465569 C191.494799,20.0494902 191.69261,18.7849255 191.69261,18.6102745 C191.69261,18.493098 191.655496,18.3896941 191.544548,18.3896941 C191.413069,18.3896941 191.384641,18.4509961 191.334497,18.6838118 C191.270929,18.9465569 191.054561,19.3624314 190.779363,19.639702 C190.134601,20.3114196 189.266759,20.4607843 187.830358,20.4607843 C185.664701,20.4607843 182.734648,18.7346667 182.734648,15.2647059 C182.734648,13.8485114 183.050909,12.4670588 184.22751,11.4901961 C184.941368,10.9076486 185.856984,10.5833349 187.262983,10.5833349 C188.747949,10.5833349 190.012992,10.9787075 190.544832,11.4901961 C190.95151,11.87008 191.156822,12.3748643 191.174195,12.8259608 C191.174195,13.0310996 191.207361,13.1568627 191.334497,13.1568627 C191.48019,13.1568627 191.51612,13.032 191.531913,12.8137255 C191.5623,12.5219231 191.550865,11.7276486 191.581268,11.245098 C191.615618,10.7349804 191.655496,10.5532957 191.655496,10.4362761 C191.655496,10.3495686 191.586006,10.2792565 191.408726,10.2647059 C190.923871,10.2212173 190.40822,10.0920784 189.792281,10.0196078 C189.049601,9.93152941 188.462485,9.87254902 187.4604,9.87254902 Z M53.1924393,9.87254902 C53.0961001,9.87254902 53.0439822,9.95403922 52.995023,10.1421584 C52.961857,10.259178 52.6495445,11.587178 52.6495445,11.8210604 C52.6495445,11.9814525 52.6850794,12.0539231 52.7976067,12.0539231 C52.8943407,12.0539231 52.9496172,11.9993725 52.9827832,11.8823529 C53.0147646,11.7667075 53.0925466,11.584549 53.254428,11.3676486 C53.4964604,11.0467075 53.8826067,10.9799216 54.8211238,10.9509804 L57.2272337,10.8896878 L57.2272337,16.8700706 C57.2272337,18.2126275 57.2228747,19.3700863 57.1407653,19.9828235 C57.0933854,20.4063843 56.9950721,20.7214902 56.672099,20.7794039 C56.5252213,20.8085804 56.3357017,20.8406745 56.0920899,20.8406745 C55.8990168,20.8406745 55.8330798,20.8785098 55.8330798,20.9509804 C55.8330798,21.0536 55.9542934,21.0980549 56.1663185,21.0980549 C56.8122646,21.0980549 57.8175084,21.0612549 58.1898356,21.0612549 C58.6423137,21.0612549 59.6657199,21.0980549 60.7313731,21.0980549 C60.9102322,21.0980549 61.0397373,21.0536 61.0397373,20.9509804 C61.0397373,20.8785098 60.9595863,20.8406745 60.7807271,20.8406745 C60.5382999,20.8406745 60.1790022,20.8085176 59.9539477,20.7794039 C59.469488,20.7214902 59.3739386,20.4041255 59.3249793,19.9950902 C59.2440386,19.3677961 59.2507508,18.2126275 59.2507508,16.8700706 L59.2507508,10.8896878 L61.2865077,10.9387075 C62.724488,10.9663153 63.1548556,11.3687059 63.186837,11.7475294 L63.1990926,11.9068643 C63.2148859,12.1251388 63.2559485,12.200982 63.3842691,12.200982 C63.4806083,12.200982 63.516538,12.1139608 63.5323314,11.9681192 C63.5323314,11.5880784 63.5816854,10.5833349 63.5816854,10.2769412 C63.5816854,10.0572957 63.5584061,9.97058824 63.445863,9.97058824 C63.3159631,9.97058824 62.9250788,10.1176471 61.891407,10.1176471 L55.4998568,10.1176471 C54.966438,10.1176471 54.3520784,10.0890353 53.8834121,10.0441192 C53.4798932,10.0165427 53.322355,9.87254902 53.1924551,9.87254902 L53.1924393,9.87254902 Z M198.972139,9.75000157 C198.809468,9.75000157 198.721026,9.91482353 198.527952,10.3382369 L194.468678,19.4926275 C194.142941,20.2210667 193.843264,20.7158431 193.099004,20.8039373 C192.96792,20.8196235 192.737337,20.8406745 192.593223,20.8406745 C192.464903,20.8406745 192.395807,20.8654588 192.395807,20.9509804 C192.395807,21.0694118 192.493726,21.0980549 192.704171,21.0980549 C193.543586,21.0980549 194.44183,21.0612549 194.616741,21.0612549 C195.118178,21.0612549 195.815452,21.0980549 196.331893,21.0980549 C196.510753,21.0980549 196.603143,21.0695059 196.603143,20.9509804 C196.603143,20.8654902 196.55221,20.8406745 196.356373,20.8406745 L196.109603,20.8406745 C195.610534,20.8406745 195.468,20.6499608 195.468,20.3872471 C195.468,20.2121569 195.553284,19.8579922 195.71477,19.4926275 L196.578664,17.409302 C196.61025,17.3224627 196.64697,17.2990275 196.726726,17.2990275 L200.329574,17.2990275 C200.412488,17.2990275 200.459473,17.323498 200.489876,17.3970667 L201.785321,20.4852863 C201.864683,20.6588706 201.75255,20.7993255 201.637259,20.8284392 C201.477352,20.8428706 201.415363,20.8651765 201.415363,20.9509804 C201.415363,21.0520941 201.605278,21.0563608 201.896269,21.0735216 C203.187372,21.1011294 204.376608,21.0979922 204.956222,21.0979922 C205.554788,21.0979922 205.696533,21.0694431 205.696533,20.950949 C205.696533,20.8498353 205.614013,20.8406431 205.486877,20.8406431 C205.29104,20.8406431 205.049403,20.823702 204.80816,20.7793725 C204.468209,20.706902 203.999543,20.4972078 203.389526,19.1862431 C202.35388,16.9679529 199.767332,11.0190996 199.379211,10.2156486 C199.217725,9.88031686 199.117832,9.74996392 198.972139,9.74996392 L198.972139,9.75000157 Z M73.1934746,6.41666824 C72.8701067,6.41666824 72.7244134,6.45160784 72.7244134,6.58823529 C72.7244134,6.72364863 72.8452322,6.77204078 73.0821318,6.77204078 C73.3841787,6.77204078 73.7490041,6.78295843 73.9211511,6.82106039 C74.6322446,6.95788235 74.8028123,7.27360941 74.8466387,7.93627608 C74.8904651,8.55961098 74.8959928,9.09803922 74.8959928,12.0539231 L74.8959928,17.642149 C74.8959928,21.4552627 74.9173137,23.3993882 73.2795481,24.897051 C72.8491806,25.2838431 72.522654,25.4957333 72.2431125,25.6323608 C71.8778923,25.8069804 71.7744462,25.8930667 71.7744462,25.9877176 C71.7744462,26.0865412 71.8609145,26.1347922 71.946988,26.1347922 C72.0543825,26.1347922 72.2281089,26.1018824 72.3789349,26.0245176 C72.8314131,25.8299765 73.1729433,25.676 73.4524848,25.5220549 C75.5202231,24.3728784 76.664448,23.0317333 77.1169262,21.8455686 C77.5457144,20.7569098 77.6353414,19.5102588 77.6353414,18.4019608 C77.6353414,17.4289098 77.5611129,16.4917176 77.5611129,15.6568627 L77.5611129,12.0539231 C77.5611129,9.09803922 77.5654718,8.55961098 77.6104669,7.93627608 C77.652714,7.25521569 77.8299939,6.91835294 78.412372,6.82106039 C78.669408,6.78294275 78.7925958,6.77204078 79.0294953,6.77204078 C79.2877159,6.77204078 79.4243279,6.72364863 79.4243279,6.58823529 C79.4243279,6.45160784 79.2695536,6.41666824 78.9679014,6.41666824 C78.1284873,6.41666824 76.7694735,6.47792314 76.2534273,6.47792314 C75.6919753,6.47792314 74.3345408,6.41666824 73.1934746,6.41666824 Z M47.2577104,6.14705882 C44.2644844,6.14705882 42.2851886,7.6827451 42.2851886,9.82352941 C42.2851886,11.3985882 43.1001231,12.7587451 45.4687239,14.4313725 L46.4680452,15.1298824 C48.2566369,16.3751373 48.5780306,17.2892078 48.5780306,18.2426196 C48.5780306,19.2736157 47.628853,20.4607843 45.6906198,20.4607843 C44.3549011,20.4607843 43.0799866,19.9384314 42.6061875,18.5 C42.498793,18.1688314 42.421011,17.7596392 42.421011,17.5073412 C42.421011,17.350949 42.394952,17.1764863 42.1991151,17.1764863 C42.0281525,17.1764863 41.961031,17.3870902 41.93971,17.6789176 C41.9172204,17.9905098 41.8287621,19.158698 41.8287621,20.2279373 C41.8287621,20.6563922 41.9041751,20.7541176 42.2484691,20.8896784 C43.1751413,21.2604392 44.1326103,21.3921725 45.3822555,21.3921725 C46.5233217,21.3921725 47.737432,21.2201255 48.8125612,20.5955608 C50.3638585,19.682902 50.8360783,18.3414431 50.8360783,17.2132235 C50.8360783,15.3658039 49.8912439,14.0592941 47.3070645,12.2500016 L46.7025757,11.8455686 C44.9151685,10.6200784 44.4200485,9.93596235 44.4200485,9.03921569 C44.4200485,7.87286275 45.3937057,7.04164706 46.9864604,7.04164706 C48.3881161,7.04164706 49.0076085,7.62807843 49.3305816,7.99753098 C49.7822701,8.50384314 49.8857162,9.09588392 49.8857162,9.27204078 C49.8857162,9.50337255 49.9567861,9.62745098 50.108007,9.62745098 C50.2813385,9.62745098 50.3425375,9.46658824 50.3425375,9.03921569 C50.3425375,7.52313725 50.428611,6.96321569 50.428611,6.71078588 C50.428611,6.57415843 50.3148993,6.51607843 50.1202468,6.47792314 C49.5603741,6.33992157 48.6569971,6.14705882 47.2577104,6.14705882 Z M129.530955,5.98772706 C129.357623,5.98772706 129.224564,6.16007843 129.160996,6.49019608 L127.026137,19.1740078 C126.917558,19.835498 126.755281,20.6009255 126.150398,20.7181333 C125.828609,20.7758902 125.665543,20.7671373 125.49616,20.7671373 C125.279002,20.7671373 125.163316,20.8047216 125.163316,20.9019765 C125.163316,21.0743059 125.329541,21.1225569 125.545514,21.1225569 C126.233707,21.1225569 127.272117,21.0612549 127.680374,21.0612549 C128.069284,21.0612549 129.03386,21.1225569 129.938027,21.1225569 C130.261395,21.1225569 130.456442,21.0743059 130.456442,20.9019765 C130.456442,20.8047216 130.306406,20.7671373 130.135443,20.7671373 C129.918285,20.7671373 129.610316,20.7464314 129.22259,20.669098 C128.854606,20.5902275 128.580987,20.4258353 128.580987,20.0563608 C128.580987,19.7434196 128.59757,19.4895529 128.642581,19.1372706 L129.765485,11.3921569 L129.851953,11.3921569 C130.606479,12.8517271 131.894423,15.3091388 132.085127,15.7181176 C132.345716,16.2625412 134.047445,19.2368157 134.56507,20.129898 C134.909364,20.7150588 135.122969,21.0980549 135.317621,21.0980549 C135.511089,21.0980549 135.623222,20.9226196 136.119921,20.0073255 L140.808558,11.1838055 L140.894632,11.1838055 L142.190472,19.7377412 C142.276151,20.2861647 142.207434,20.5343216 142.07913,20.5710588 C141.929488,20.6315765 141.844994,20.6943843 141.844994,20.7916392 C141.844994,20.9099137 141.978842,20.9632157 142.473962,21.0000157 C143.335882,21.060502 146.301864,21.1225569 146.841995,21.1225569 C147.143647,21.1225569 147.40937,21.0581804 147.40937,20.9019765 C147.40937,20.7835137 147.257359,20.7671373 147.063891,20.7671373 C146.783165,20.7671373 146.34648,20.7473725 145.719091,20.5710588 C145.07433,20.394902 144.863489,19.8357804 144.670416,18.6102745 L142.708493,6.58823529 C142.644925,6.1805898 142.516604,5.98772706 142.3259,5.98772706 C142.130063,5.98772706 141.997004,6.14168784 141.844994,6.45341176 L135.984099,17.5563451 L130.110964,6.58823529 C129.834186,6.08196078 129.703102,5.98772706 129.530955,5.98772706 Z" id="path3675"/>
    <path xmlns="http://www.w3.org/2000/svg" d="M22.8521228,22.7156863 L22.8521228,31.7843294 L31.9703068,31.7843294 L31.9703068,22.7156863 L22.8521228,22.7156863 Z M11.5253618,22.7156863 L11.5253618,31.7843294 L20.6435461,31.7843294 L20.6435461,22.7156863 L11.5253618,22.7156863 Z M0.223278312,22.7156863 L0.223278312,31.7843294 L9.3414637,31.7843294 L9.3414637,22.7156863 L0.223278312,22.7156863 Z M22.8521228,11.4656878 L22.8521228,20.5343216 L31.9703068,20.5343216 L31.9703068,11.4656878 L22.8521228,11.4656878 Z M0.223278312,11.4656878 L0.223278312,20.5343216 L9.3414637,20.5343216 L9.3414637,11.4656878 L0.223278312,11.4656878 Z M19.2369559,10.5220392 L10.6123114,12.8872565 L12.9936653,21.4411765 L21.6059521,19.0882353 L19.2369559,10.5220392 Z M22.8521228,0.215686275 L22.8521228,9.27204078 L31.9703068,9.27204078 L31.9703068,0.215686275 L22.8521228,0.215686275 Z M11.5253618,0.215686275 L11.5253618,9.27204078 L20.6435461,9.27204078 L20.6435461,0.215686275 L11.5253618,0.215686275 Z M0.223278312,0.215686275 L0.223278312,9.27204078 L9.3414637,9.27204078 L9.3414637,0.215686275 L0.223278312,0.215686275 Z" id="path3677"/>
  </svg>