<svg xmlns="http://www.w3.org/2000/svg" viewBox="0 0 79 79">
    <circle xmlns="http://www.w3.org/2000/svg" opacity=".16" cx="39.5" cy="39.5" r="39.5"/>
    <path xmlns="http://www.w3.org/2000/svg" d="M34.71 38.133c-.108 1.89-.98 2.223-1.959 2.334h-1.306l.544-3.334h1.415c.762 0 1.306.334 1.306 1z"/>
    <path xmlns="http://www.w3.org/2000/svg" d="M40 31c-8.837 0-16 3.806-16 8.5S31.163 48 40 48s16-3.806 16-8.5S48.837 31 40 31zm-7.014 11.184h-1.972l-.439 2.349h-2.082l1.754-9.06H34.3c1.754.113 2.63 1.007 2.63 2.573 0 2.684-2.082 4.25-3.945 4.138zm8.25-5.033h-1.644l-.986 5.033h-2.082l1.753-9.059h2.083l-.439 2.349h1.973c1.753.112 2.41 1.006 2.192 2.125l-.767 4.585h-2.192l.767-4.138c.11-.56.11-.895-.658-.895zm6.435 5.033H45.7l-.439 2.349h-2.082l1.753-9.06h4.055c1.754.113 2.63 1.007 2.63 2.573 0 2.684-2.082 4.25-3.945 4.138zm.439-5.033h-1.425l-.548 3.356h1.315c.986-.112 1.863-.448 1.973-2.35 0-.67-.548-1.006-1.315-1.006z"/>
  </svg>