<svg xmlns="http://www.w3.org/2000/svg" viewBox="0 0 97 41">
    <path xmlns="http://www.w3.org/2000/svg" d="M0,0.58255875 L4.9069273,0.58255875 L11.1333298,19.1834046 L16.987039,0.58255875 L21.5257447,0.58255875 C21.5257447,0.58255875 16.7773883,12.9833504 13.1892482,23.5302588 L8.3359805,23.5302588 C4.85395567,12.9833504 0,0.58255875 0,0.58255875" id="Fill-1"/>
    <path xmlns="http://www.w3.org/2000/svg" d="M26.5482809,0.500473333 L31.0730557,0.501156667 C31.1234475,11.1796067 31.0904262,13.0240942 31.1072809,23.5055733 L26.5482809,23.5216317 L26.5482809,0.517215 L26.5482809,0.500473333 Z" id="Fill-3"/>
    <path xmlns="http://www.w3.org/2000/svg" d="M35.5835901,0.58255875 L53.9430759,0.58255875 L53.9430759,4.18748375 L46.8735989,4.05389208 C46.8735989,4.05389208 46.5846628,12.9833504 46.9265706,23.5302588 L42.6007833,23.5302588 C42.9695209,12.9833504 42.653067,4.05389208 42.653067,4.05389208 L35.5835901,4.18748375 L35.5835901,0.58255875 Z" id="Fill-5"/>
    <path xmlns="http://www.w3.org/2000/svg" d="M75.4413028,23.5296096 L70.5329996,23.5296096 L64.309177,4.92876375 L58.4537479,23.5296096 L53.916934,23.5296096 C53.916934,23.5296096 58.6625387,11.1281346 62.2520546,0.582592917 L67.1066982,0.582592917 C70.588723,11.1281346 75.4413028,23.5296096 75.4413028,23.5296096" id="Fill-7"/>
    <path xmlns="http://www.w3.org/2000/svg" d="M92.1111656,2.12005875 L90.9509493,5.56405875 C90.9509493,5.56405875 88.3644546,2.70191708 86.1494493,2.70191708 C84.1454706,2.70191708 82.4053181,3.70556292 82.4053181,5.77691708 C82.4053181,10.2006463 93.3756053,9.22091708 93.3756053,17.5944838 C93.3756053,20.7215879 90.0789812,24.0067129 85.7275681,24.0067129 C81.5871816,24.0067129 77.8141567,21.3041296 77.8141567,21.3041296 L78.9757489,17.6472712 C78.9757489,17.6472712 82.1930876,20.9870629 85.2000876,20.9870629 C87.5992897,20.9870629 89.317084,19.4490504 89.317084,17.7533588 C89.317084,12.7190713 78.2360379,13.4611713 78.2360379,5.88232125 C78.2360379,2.80800458 80.9004422,1.70833333e-05 85.6226567,1.70833333e-05 C89.050334,1.70833333e-05 92.1111656,2.12005875 92.1111656,2.12005875" id="Fill-9"/>
    <path xmlns="http://www.w3.org/2000/svg" d="M94.801127,2.03464208 L95.2021979,2.03464208 C95.5905418,2.03464208 95.6744709,1.90720042 95.6744709,1.70305458 C95.6744709,1.55084208 95.612728,1.39606708 95.2163007,1.39606708 L94.801127,1.39606708 L94.801127,2.03464208 Z M95.2787316,1.12837125 C95.6892617,1.12837125 96.001072,1.26247542 96.001072,1.71159625 C96.001072,2.10075458 95.7537564,2.24955042 95.4661961,2.28559625 L96.0519798,3.19904208 L95.7033645,3.19904208 L95.1598894,2.30148375 L94.801127,2.30148375 L94.801127,3.19904208 L94.4888007,3.19904208 L94.4888007,1.12837125 L95.2787316,1.12837125 Z M93.7241518,2.15747125 C93.7241518,3.01095458 94.3531039,3.65755875 95.1813876,3.65755875 C96.0332333,3.65755875 96.6250365,2.97883792 96.6250365,2.15473792 C96.6250365,1.32260875 95.9955684,0.669342083 95.1813876,0.669342083 C94.3556837,0.669342083 93.7241518,1.31867958 93.7241518,2.15747125 Z M96.9844869,2.15473792 C96.9844869,3.14437542 96.2093468,3.95788375 95.1820755,3.95788375 C94.1964248,3.95788375 93.3660773,3.19904208 93.3660773,2.15747125 C93.3660773,1.13247125 94.1964248,0.369700417 95.1813876,0.369700417 C96.1568911,0.369700417 96.9844869,1.13247125 96.9844869,2.15473792 Z" id="Fill-11"/>
    <polygon xmlns="http://www.w3.org/2000/svg" id="Fill-13" points="9.71786933 28.5691929 9.71786933 33.6480679 16.0337044 33.6480679 16.0337044 28.5691929 17.7394598 28.5691929 17.7394598 40.7084387 16.0337044 40.7084387 16.0337044 35.0181513 9.71786933 35.0181513 9.71786933 40.7084387 8.01280195 40.7084387 8.01280195 28.5691929"/>
    <path xmlns="http://www.w3.org/2000/svg" d="M26.5765037,35.4852779 C26.5959381,34.4942737 26.1303725,32.9094529 24.2318211,32.9094529 C22.487197,32.9094529 21.7521296,34.3875029 21.6164328,35.4852779 L26.5765037,35.4852779 Z M21.5969984,36.6204654 C21.6358672,38.7630571 23.0884594,39.6459237 24.7942147,39.6459237 C26.0135941,39.6459237 26.7692998,39.4477571 27.3906846,39.2142279 L27.6997431,40.3313071 C27.0991686,40.5822612 26.0531509,40.8892487 24.5616899,40.8892487 C21.6943424,40.8892487 19.9510941,39.1060904 19.9510941,36.4942196 C19.9510941,33.8463029 21.6358672,31.7756321 24.3675179,31.7756321 C27.4290374,31.7756321 28.2230959,34.2800487 28.2230959,35.8816112 C28.2230959,36.2060237 28.2029736,36.4581737 28.1646207,36.6384029 L21.5969984,36.6204654 Z" id="Fill-15"/>
    <path xmlns="http://www.w3.org/2000/svg" d="M35.2779025,36.2600242 C33.417016,36.2239783 31.3060621,36.5309658 31.3060621,38.2225575 C31.3060621,39.267545 32.0425053,39.7368242 32.8943511,39.7368242 C34.1338528,39.7368242 34.9292872,39.015395 35.1999929,38.277395 C35.259156,38.1157867 35.2779025,37.935045 35.2779025,37.7727533 L35.2779025,36.2600242 Z M36.9441011,38.6202575 C36.9441011,39.3763658 36.9829699,40.1138533 37.0797979,40.7083533 L35.5492961,40.7083533 L35.3941649,39.6092117 L35.3356897,39.6092117 C34.8310833,40.294595 33.8058759,40.9072033 32.4683422,40.9072033 C30.5704787,40.9072033 29.6009947,39.6640492 29.6009947,38.40347 C29.6009947,36.2974367 31.6158085,35.1443117 35.2388617,35.1622492 L35.2388617,34.9815075 C35.2388617,34.2607617 35.0266312,32.9461992 33.1079574,32.9641367 C32.2170709,32.9641367 31.3060621,33.1983492 30.6470124,33.6127908 L30.2600443,32.5510617 C31.0346684,32.0993783 32.1775142,31.79427 33.3585408,31.79427 C36.2473865,31.79427 36.9441011,33.6127908 36.9441011,35.3604158 L36.9441011,38.6202575 Z" id="Fill-17"/>
    <polygon xmlns="http://www.w3.org/2000/svg" id="Fill-19" points="39.6783316 40.7082167 41.3833989 40.7082167 41.3833989 27.9204875 39.6783316 27.9204875"/>
    <path xmlns="http://www.w3.org/2000/svg" d="M46.2661966,29.9031621 L46.2661966,31.9919412 L48.7075353,31.9919412 L48.7075353,33.1983662 L46.2661966,33.1983662 L46.2661966,37.8983329 C46.2661966,38.9800496 46.5953775,39.5919746 47.5440512,39.5919746 C48.0096168,39.5919746 48.2810105,39.5572954 48.5329697,39.4831537 L48.6101913,40.6904329 C48.2810105,40.7977162 47.7569697,40.9065371 47.098608,40.9065371 C46.3052374,40.9065371 45.6656222,40.6550704 45.2578438,40.2406287 C44.7934821,39.7540954 44.599998,38.9800496 44.599998,37.9529996 L44.599998,33.1983662 L43.1468899,33.1983662 L43.1468899,31.9919412 L44.599998,31.9919412 L44.599998,30.3883287 L46.2661966,29.9031621 Z" id="Fill-21"/>
    <path xmlns="http://www.w3.org/2000/svg" d="M50.6269658,27.9212221 L52.3313452,27.9212221 L52.3313452,33.3605554 L52.3710739,33.3605554 C52.6417796,32.9093846 53.0676165,32.4956263 53.5909693,32.2441596 C54.0941998,31.9551096 54.6947743,31.7943554 55.3337016,31.7943554 C56.5933257,31.7943554 58.6088275,32.5144179 58.6088275,35.5226221 L58.6088275,40.7084387 L56.905136,40.7084387 L56.905136,35.7014846 C56.905136,34.2787846 56.3420544,33.1082346 54.7338151,33.1082346 C53.630698,33.1082346 52.7781644,33.8289804 52.4476076,34.6932262 C52.3507796,34.9093304 52.3313452,35.1435429 52.3313452,35.4498471 L52.3313452,40.7084387 L50.6269658,40.7084387 L50.6269658,27.9212221 Z" id="Fill-22"/>
    <path xmlns="http://www.w3.org/2000/svg" d="M68.0660695,40.4014 C67.6213142,40.6016167 66.6323957,40.9058708 65.3727716,40.9058708 C62.5449809,40.9058708 60.7035287,39.1240792 60.7035287,36.4396042 C60.7035287,33.756325 62.6808496,31.7943042 65.7403053,31.7943042 C66.7493461,31.7943042 67.6400606,32.0278333 68.1063142,32.2620458 L67.7174543,33.469325 C67.3108798,33.2697917 66.6700606,33.0548833 65.7403053,33.0548833 C63.5916865,33.0548833 62.4282025,34.5489917 62.4282025,36.3681958 C62.4282025,38.3847125 63.8242113,39.6287208 65.683206,39.6287208 C66.6525181,39.6287208 67.2914454,39.4117625 67.7752415,39.2135958 L68.0660695,40.4014 Z" id="Fill-23"/>
    <path xmlns="http://www.w3.org/2000/svg" d="M75.0234289,36.2600242 C73.1637463,36.2239783 71.0502126,36.5309658 71.0502126,38.2225575 C71.0502126,39.267545 71.7880317,39.7368242 72.6391895,39.7368242 C73.8800672,39.7368242 74.6755016,39.015395 74.9468952,38.277395 C75.0046824,38.1157867 75.0234289,37.935045 75.0234289,37.7727533 L75.0234289,36.2600242 Z M76.6889395,38.6202575 C76.6889395,39.3763658 76.7284963,40.1138533 76.8246363,40.7083533 L75.2941346,40.7083533 L75.1403793,39.6092117 L75.0812161,39.6092117 C74.5772977,40.294595 73.5514023,40.9072033 72.2138686,40.9072033 C70.3160051,40.9072033 69.347209,39.6640492 69.347209,38.40347 C69.347209,36.2974367 71.360647,35.1443117 74.9838722,35.1622492 L74.9838722,34.9815075 C74.9838722,34.2607617 74.7721576,32.9461992 72.8534839,32.9641367 C71.9619094,32.9641367 71.0502126,33.1983492 70.3939147,33.6127908 L70.0048828,32.5510617 C70.7808828,32.0993783 71.9230406,31.79427 73.1054431,31.79427 C75.9936009,31.79427 76.6889395,33.6127908 76.6889395,35.3604158 L76.6889395,38.6202575 Z" id="Fill-24"/>
    <path xmlns="http://www.w3.org/2000/svg" d="M79.4419853,34.7118471 C79.4419853,33.6841138 79.4232388,32.8012471 79.3654516,31.9918387 L80.8569126,31.9918387 L80.9334463,33.7029054 L80.9919215,33.7029054 C81.4184463,32.5316721 82.465152,31.7943554 83.6086856,31.7943554 C83.7825633,31.7943554 83.918948,31.8116096 84.0721874,31.8476554 L84.0721874,33.3245096 C83.8800793,33.3070846 83.7039658,33.2884637 83.4723009,33.2884637 C82.2716679,33.2884637 81.4184463,34.1359679 81.1867814,35.3058346 C81.1477406,35.5400471 81.1289941,35.7928804 81.1289941,36.0624554 L81.1289941,40.7084387 L79.4232388,40.7084387 L79.4419853,34.7118471 Z" id="Fill-25"/>
    <path xmlns="http://www.w3.org/2000/svg" d="M91.5952082,35.4852779 C91.6139546,34.4942737 91.1497649,32.9094529 89.2512135,32.9094529 C87.5071053,32.9094529 86.770834,34.3875029 86.6344493,35.4852779 L91.5952082,35.4852779 Z M86.6157028,36.6204654 C86.6540557,38.7630571 88.1064759,39.6459237 89.8129191,39.6459237 C91.0328145,39.6459237 91.7880043,39.4477571 92.4081851,39.2142279 L92.7191355,40.3313071 C92.1192489,40.5822612 91.0718553,40.8892487 89.5810823,40.8892487 C86.7123589,40.8892487 84.9691106,39.1060904 84.9691106,36.4942196 C84.9691106,33.8463029 86.6540557,31.7756321 89.3855344,31.7756321 C92.4484298,31.7756321 93.2418004,34.2800487 93.2418004,35.8816112 C93.2418004,36.2060237 93.222366,36.4581737 93.1833252,36.6384029 L86.6157028,36.6204654 Z" id="Fill-26"/>
  </svg>