<svg xmlns="http://www.w3.org/2000/svg" viewBox="0 0 79 79">
    <circle xmlns="http://www.w3.org/2000/svg" opacity=".16" cx="39.5" cy="39.5" r="39.5"/>
    <g xmlns="http://www.w3.org/2000/svg" transform="translate(29.000000, 29.000000)" fill="#F75050">
      <path d="M15.8652656,4.65398828 C15.8652656,3.31912109 14.9090391,2.20373828 13.6456719,1.95585156 L14.1182422,0.892503906 C14.2606406,0.572257812 14.1163516,0.197183594 13.7961055,0.0548710937 C13.4757305,-0.0875273438 13.1007852,0.0568046875 12.9584297,0.377050781 L12.2797812,1.90398828 L9.72004688,1.90398828 L9.04139844,0.377050781 C8.89904297,0.0568046875 8.52401172,-0.087484375 8.20372266,0.0548710937 C7.88347656,0.197183594 7.73923047,0.572257812 7.88158594,0.892503906 L8.35415625,1.95585156 C7.09078906,2.20373828 6.1345625,3.31907812 6.1345625,4.65398828 L6.1345625,5.71166406 L15.8652656,5.71166406 L15.8652656,4.65398828" id="Fill-1"/>
      <path d="M21.3652227,11.2116211 L17.5575469,11.2116211 L17.5575469,9.89213672 C19.4732656,9.58697266 20.9421523,7.92348047 20.9421523,5.92319922 L20.9421523,5.07705859 C20.9421523,4.72660547 20.658,4.44245312 20.3075469,4.44245312 C19.9570508,4.44245312 19.6729414,4.72660547 19.6729414,5.07705859 L19.6729414,5.92319922 C19.6729414,7.22111328 18.7688789,8.31110156 17.5575469,8.59847656 L17.5575469,8.03859375 C17.5575469,7.45537891 17.0830859,6.980875 16.4998711,6.980875 L11.6345195,6.980875 L11.6345195,14.3846914 C11.6345195,14.7351445 11.3504102,15.0192969 10.9999141,15.0192969 C10.6494609,15.0192969 10.3653086,14.7351445 10.3653086,14.3846914 L10.3653086,6.980875 L5.49995703,6.980875 C4.91674219,6.980875 4.44228125,7.45537891 4.44228125,8.03859375 L4.44228125,8.59847656 C3.23094922,8.31110156 2.32688672,7.22111328 2.32688672,5.92319922 L2.32688672,5.07705859 C2.32688672,4.72660547 2.04277734,4.44245312 1.69228125,4.44245312 C1.34182812,4.44245312 1.05767578,4.72660547 1.05767578,5.07705859 L1.05767578,5.92319922 C1.05767578,7.92348047 2.5265625,9.58692969 4.44228125,9.89213672 L4.44228125,11.2116211 L0.634605469,11.2116211 C0.284152344,11.2116211 0,11.4957734 0,11.8462266 C0,12.1967227 0.284152344,12.480832 0.634605469,12.480832 L4.44228125,12.480832 L4.44228125,13.8003164 C2.5265625,14.1054805 1.05767578,15.7689727 1.05767578,17.7692539 L1.05767578,18.6154375 C1.05767578,18.9658906 1.34182812,19.250043 1.69228125,19.250043 C2.04277734,19.250043 2.32688672,18.9658906 2.32688672,18.6154375 L2.32688672,17.7692539 C2.32688672,16.4713828 3.23094922,15.3813516 4.44228125,15.0940195 L4.44228125,15.4423672 C4.44228125,19.0582305 7.38405078,22 10.9999141,22 C14.6158203,22 17.5575469,19.0582305 17.5575469,15.4423672 L17.5575469,15.0940195 C18.7688789,15.3813516 19.6729414,16.4713828 19.6729414,17.7692539 L19.6729414,18.6154375 C19.6729414,18.9658906 19.9570508,19.250043 20.3075469,19.250043 C20.658,19.250043 20.9421523,18.9658906 20.9421523,18.6154375 L20.9421523,17.7692539 C20.9421523,15.7689727 19.4732656,14.1055234 17.5575469,13.8003164 L17.5575469,12.480832 L21.3652227,12.480832 C21.7156758,12.480832 21.9998281,12.1967227 21.9998281,11.8462266 C21.9998281,11.4957734 21.7156758,11.2116211 21.3652227,11.2116211"/>
    </g>
  </svg>