<svg xmlns="http://www.w3.org/2000/svg" viewBox="0 0 18 18">
    <path xmlns="http://www.w3.org/2000/svg" d="M15.001 0H2.024C.906 0 0 .93 0 2.08v13.378c0 1.148.906 2.08 2.024 2.08H15c1.118 0 2.024-.932 2.024-2.08V2.08C17.025.93 16.119 0 15 0zm-2.764 2.74a.54.54 0 0 1 .532-.548h1.596a.54.54 0 0 1 .532.548v1.644a.54.54 0 0 1-.532.548h-1.596a.54.54 0 0 1-.532-.548V2.74zM8.532 5.424c1.808 0 3.274 1.507 3.274 3.365 0 1.858-1.466 3.365-3.274 3.365s-3.274-1.507-3.274-3.365c0-1.858 1.466-3.365 3.274-3.365zm6.897 9.921a.54.54 0 0 1-.532.548H2.128a.54.54 0 0 1-.532-.548v-8.22h2.128c-.277.41-.37 1.177-.37 1.664 0 2.935 2.323 5.323 5.178 5.323 2.856 0 5.18-2.388 5.18-5.323 0-.487-.068-1.242-.411-1.665h2.128v8.221z"/>
  </svg>