<svg xmlns="http://www.w3.org/2000/svg" viewBox="0 0 67 67">
    <circle xmlns="http://www.w3.org/2000/svg" opacity=".16" cx="33.5" cy="33.5" r="33.5"/>
    <path xmlns="http://www.w3.org/2000/svg" d="M46.75 34.913C46.75 28.102 41.526 18 34.311 18c-7.216 0-12.438 10.102-12.438 16.913 0 6.41 2.887 8.925 10.883 9.197v1.566h-4.664v3.075H40.53v-3.075h-4.664V44.11c7.996-.272 10.883-2.787 10.883-9.197zm-12.438 0c3.109 0 6.218 1.537 6.218 3.075 0 0-3.109 1.538-6.218 1.538-3.11 0-6.219-1.538-6.219-1.538 0-1.538 3.11-3.075 6.219-3.075z" fill-rule="nonzero"/>
  </svg>