<svg xmlns="http://www.w3.org/2000/svg" viewBox="0 0 87 35">
    <path xmlns="http://www.w3.org/2000/svg" d="M.57 35a.57.57 0 0 1-.557-.694C4.852 15.782 15.677.715 24.147.715c.146 0 15.552.01 17.487.033h.041l.021-.002c.229-.01.46-.02.686-.02 7.36 0 9.758 10.071 11.872 18.958l.006.026c.581 2.454 1.13 4.773 1.77 6.802 1.637-1.615 3.333-3.584 5.043-5.854.712-2.174 1.604-5 2.55-7.993l.414-1.314.771-2.47c1.505-4.76 4.129-7.573 8.257-8.854A.542.542 0 0 1 73.34.01a.413.413 0 0 1 .062-.004h13.03c.21 0 .399.113.492.295.1.147.104.367.007.542l-.034.058C75.181 21.621 68.11 34.126 60.76 34.126l-2.646.012H43.705c-7.361 0-9.759-10.074-11.874-18.962-.561-2.38-1.092-4.624-1.694-6.608a4.26 4.26 0 0 0-.136.128c-1.801 1.867-3.72 4.207-5.703 6.953-2.874 4.02-5.857 8.89-9.118 14.887-1.762 3.255-4.392 4.195-5.811 4.423-.17.035-.21.041-.337.041H.571zm.995-1.136c1.295-2.31 2.6-4.716 3.987-7.355a631.156 631.156 0 0 0 3.34-6.507c2.001-3.935 3.729-7.333 5.382-10.1 1.765-2.95 3.376-5.008 5.008-6.392-2.837 1.8-5.808 4.97-8.64 9.234-3.92 5.9-7.23 13.398-9.324 21.12h.247zm27.492-28.29c-.646.506-1.328 1.1-2.141 1.861-2.964 2.796-5.992 6.557-8.998 11.176-2.79 4.292-5.58 9.36-8.296 15.066 1.367-.323 3.223-1.23 4.547-3.685 3.263-6.006 6.27-10.914 9.194-15.004 1.99-2.764 3.946-5.148 5.814-7.085.057-.067.219-.215.568-.53a22.59 22.59 0 0 0-.688-1.8zm2.018 2.14c.675 2.127 1.255 4.569 1.868 7.152l.01.042C34.963 23.388 37.242 33 43.705 33c.654 0 1.317-.065 1.972-.193.368-.069.73-.151 1.075-.244-3.952-2.572-6.345-8.849-8.66-14.92-1.577-4.137-3.207-8.412-5.306-11.475l-.61.542-.068.06c-.389.351-.736.668-1.033.943zm49.883-6.572c-3.255 5.8-5.719 10.86-7.893 15.323a344.01 344.01 0 0 1-2.624 5.314c-2.769 5.463-5.113 9.197-8.239 10.93l-.115.056c-.082.042-.162.082-.241.12 2.792-.541 5.754-3.16 9.523-8.395 4.04-5.613 8.69-13.83 14.073-23.348h-4.484zM53.15 30.525c.188.208.38.404.584.598.413.4.872.754 1.365 1.056a.919.919 0 0 0 .102-.062 5.966 5.966 0 0 0 1.379-1.115c-.102-.186-.19-.366-.265-.52a16.227 16.227 0 0 1-.715-1.67 4.269 4.269 0 0 1-.089-.218c-.557.496-1.115.968-1.66 1.404-.214.165-.444.338-.7.527zm3.27-2.792l.075.214.048.135c.036.105.075.205.114.3l.06.153c.047.126.097.25.147.372l.018.044.077.193c.027.058.058.13.089.2l.007.018.086.196c.056.132.121.26.184.386.06.13.124.257.198.395.604-.848 1.181-1.927 1.811-3.387.498-1.143 1.014-2.504 1.614-4.263-1.506 1.905-3.028 3.6-4.529 5.044zM39.222 2.36c3.372 2.31 5.245 7.492 6.875 12.608.23.72.458 1.447.677 2.15l.012.038c1.476 4.72 3.002 9.599 5.362 12.685.318-.223.643-.463.994-.733a30.84 30.84 0 0 0 1.966-1.703c-.679-2.068-1.254-4.452-1.863-6.976l-.113-.472c-2.01-8.481-4.29-18.094-10.753-18.094-.156 0-.317 0-.47.007a.27.27 0 0 1-.092.015h-.068c-.334.027-.775.067-1.222.15a13.76 13.76 0 0 0-1.305.325zm33.493-.986c-3.335 1.258-5.492 3.76-6.783 7.86l-.783 2.47-.115.363c-.737 2.337-1.435 4.553-2.065 6.519a95.387 95.387 0 0 0 4.396-6.986 143.252 143.252 0 0 0 5.35-10.226zM30.017 4.895c.247.547.463 1.084.658 1.639.203-.186.422-.381.651-.586l.015-.013c.259-.24.531-.485.772-.697a11.805 11.805 0 0 0-.895-1.044c-.45.253-.873.504-1.2.701z"/>
  </svg>