<svg xmlns="http://www.w3.org/2000/svg" viewBox="0 0 50 59">
    <path xmlns="http://www.w3.org/2000/svg" d="M3.636 19.062C1.63 19.062.001 20.634 0 22.574v14.76c.001 1.94 1.629 3.512 3.636 3.512 2.008 0 3.636-1.573 3.637-3.512v-14.76c-.001-1.94-1.629-3.512-3.637-3.512zM50 22.574c-.001-1.94-1.629-3.512-3.637-3.512s-3.636 1.572-3.636 3.512v14.76c.001 1.94 1.628 3.512 3.636 3.512S50 39.273 50 37.334v-14.76zM9.27 19.97h-.18v23.627c0 1.97 1.628 3.585 3.617 3.585h3.048v8.235c0 1.98 1.62 3.583 3.616 3.583 1.997 0 3.616-1.605 3.617-3.583v-8.235h4.933v8.235c.001 1.98 1.62 3.583 3.617 3.583 1.996 0 3.615-1.605 3.616-3.583v-8.235h3.048c1.988 0 3.616-1.613 3.616-3.585V19.969H9.271zM41.818 19.06v-1.786a13.766 13.766 0 0 0-.223-1.497c-.897-4.346-3.862-8.029-7.928-10.166L36.168.89a.61.61 0 0 0-.236-.817.583.583 0 0 0-.799.242L32.6 5.096a17.664 17.664 0 0 0-7.116-1.477c-2.57 0-5.002.539-7.166 1.498l-2.543-4.8a.582.582 0 0 0-.799-.243.61.61 0 0 0-.236.817l2.514 4.745c-3.876 2.054-6.743 5.512-7.76 9.612a13.71 13.71 0 0 0-.393 3.814h32.717v-.002zm-8.906-9.08c.85 0 1.54.705 1.54 1.576 0 .87-.688 1.575-1.54 1.575-.85 0-1.54-.704-1.54-1.575s.689-1.576 1.54-1.576zm-14.915 0c.85 0 1.54.705 1.54 1.576 0 .87-.69 1.575-1.54 1.575-.85 0-1.54-.704-1.54-1.575s.69-1.576 1.54-1.576z"/>
  </svg>