<svg xmlns="http://www.w3.org/2000/svg" viewBox="0 0 33 33">
    <path xmlns="http://www.w3.org/2000/svg" d="M16.4999434,0 C25.6131492,0 33,7.38787034 33,16.5000566 C33,25.6132624 25.6131492,33 16.4999434,33 C7.38673756,33 0,25.6131492 0,16.5000566 C0,7.38787034 7.38685084,0 16.4999434,0 Z" fill="#E4E7E7"/>
    <path xmlns="http://www.w3.org/2000/svg" d="M15.0526316,16.2110283 C15.0526316,18.448267 13.2387817,20.2631579 11,20.2631579 C8.7612183,20.2631579 6.94736842,18.4483786 6.94736842,16.2110283 C6.94736842,13.9736781 8.7612183,12.1578947 11,12.1578947 C13.2387817,12.1578947 15.0526316,13.9737896 15.0526316,16.2110283 Z" fill="#FF0084"/>
    <path xmlns="http://www.w3.org/2000/svg" d="M25.4736842,16.2110283 C25.4736842,18.448267 23.6598095,20.2631579 21.4209971,20.2631579 C19.1821847,20.2631579 17.3684211,18.4483786 17.3684211,16.2110283 C17.3684211,13.9736781 19.1822958,12.1578947 21.4209971,12.1578947 C23.6596983,12.1578947 25.4736842,13.9737896 25.4736842,16.2110283 Z" fill="#0063DC"/>
  </svg>