<svg xmlns="http://www.w3.org/2000/svg" viewBox="0 0 46 52">
    <path xmlns="http://www.w3.org/2000/svg" d="M22.549 36.801v.002l.156-.04v-.004z"/>
    <path xmlns="http://www.w3.org/2000/svg" d="M0 0l4.187 46.802L22.972 52l18.837-5.205L46 0H0zm37.268 11.107l-.262 2.91-.116 1.29H14.854l.526 5.878h20.986l-.14 1.541-1.354 15.112-.086.97L23 42.063v.002l-.027.007-11.796-3.264-.806-9.013h5.78l.41 4.578 6.414 1.726.005-.001.02-.006 6.403-1.723.668-7.444H10.113L8.698 11.107l-.138-1.54h28.846l-.138 1.54z"/>
    <path xmlns="http://www.w3.org/2000/svg" d="M22.705 36.759v.004l-.156.04v-.002z"/>
  </svg>