<svg xmlns="http://www.w3.org/2000/svg" viewBox="0 0 79 79">
    <circle xmlns="http://www.w3.org/2000/svg" opacity=".16" cx="39.5" cy="39.5" r="39.5"/>
    <g xmlns="http://www.w3.org/2000/svg" fill="#F75050">
      <path d="M51,28 L51,50 L29,50 L29,28 L51,28 Z M39.132,36.088 L36.948,36.088 L36.948,42.444 C36.948,42.724 36.948,42.724 36.927,43.053 C36.906,43.382 36.906,43.382 36.808,43.662 C36.71,43.942 36.71,43.942 36.5,44.131 C36.29,44.32 36.29,44.32 35.912,44.32 C35.548,44.32 35.548,44.32 35.261,44.068 C35.0218333,43.858 35.0218333,43.858 34.9528056,43.5702222 L34.932,43.452 L32.93,43.942 C33.168,45.132 33.168,45.132 33.98,45.692 C34.792,46.252 34.792,46.252 35.968,46.252 C36.976,46.252 36.976,46.252 37.599,45.951 C38.222,45.65 38.222,45.65 38.558,45.153 C38.894,44.656 38.894,44.656 39.013,44.012 C39.10225,43.529 39.10225,43.529 39.1245625,43.022375 L39.132,42.682 L39.132,36.088 Z M44.368,35.836 C43.64,35.836 43.64,35.836 42.954,36.039 C42.268,36.242 42.268,36.242 41.743,36.648 C41.218,37.054 41.218,37.054 40.903,37.656 C40.588,38.258 40.588,38.258 40.588,39.056 C40.588,39.882 40.588,39.882 40.931,40.386 C41.274,40.89 41.274,40.89 41.792,41.198 C42.31,41.506 42.31,41.506 42.912,41.688 C43.514,41.87 43.514,41.87 44.032,42.052 C44.55,42.234 44.55,42.234 44.893,42.493 C45.236,42.752 45.236,42.752 45.236,43.2 C45.236,43.466 45.236,43.466 45.103,43.662 C44.97,43.858 44.97,43.858 44.753,43.984 C44.536,44.11 44.536,44.11 44.263,44.173 C43.99,44.236 43.99,44.236 43.724,44.236 C43.178,44.236 43.178,44.236 42.667,43.991 C42.2411667,43.7868333 42.2411667,43.7868333 41.9368611,43.4416944 L41.82,43.298 L40.266,45.006 C40.98,45.664 40.98,45.664 41.806,45.958 C42.632,46.252 42.632,46.252 43.598,46.252 C44.368,46.252 44.368,46.252 45.061,46.056 C45.754,45.86 45.754,45.86 46.279,45.454 C46.804,45.048 46.804,45.048 47.112,44.432 C47.42,43.816 47.42,43.816 47.42,42.99 C47.42,42.122 47.42,42.122 47.084,41.604 C46.748,41.086 46.748,41.086 46.237,40.778 C45.726,40.47 45.726,40.47 45.138,40.302 C44.55,40.134 44.55,40.134 44.039,39.966 C43.528,39.798 43.528,39.798 43.192,39.56 C42.856,39.322 42.856,39.322 42.856,38.874 C42.856,38.594 42.856,38.594 42.996,38.398 C43.136,38.202 43.136,38.202 43.36,38.083 C43.584,37.964 43.584,37.964 43.836,37.908 C44.088,37.852 44.088,37.852 44.326,37.852 C44.732,37.852 44.732,37.852 45.187,38.013 C45.551,38.1418 45.551,38.1418 45.79404,38.3826 L45.908,38.51 L47.406,36.872 C46.776,36.312 46.776,36.312 45.992,36.074 C45.208,35.836 45.208,35.836 44.368,35.836 Z"/>
    </g>
  </svg>