<svg xmlns="http://www.w3.org/2000/svg" viewBox="0 0 79 79">
    <circle xmlns="http://www.w3.org/2000/svg" opacity=".16" cx="39.5" cy="39.5" r="39.5"/>
    <g xmlns="http://www.w3.org/2000/svg" transform="translate(16.000000, 17.000000)" fill="#F75050">
      <path d="M13.089096,5.29036819 C16.1924995,5.29036819 17.4133969,7.49058419 17.4133969,7.49058419 C17.4133969,7.49058419 15.0253631,8.70711831 15.0253631,11.658596 C15.0253631,14.9885125 18,16.1359254 18,16.1359254 C18,16.1359254 15.920659,21.9675994 13.1120746,21.9675994 C11.8222415,21.9675994 10.8189898,21.1014237 9.45978756,21.1014237 C8.07457186,21.1014237 6.7001951,22 5.8048992,22 C3.24040754,22 0,16.4681394 0,12.0214826 C0,7.64653903 2.74268372,5.3512813 5.31497941,5.3512813 C6.98764362,5.3517133 8.28528073,6.31249877 9.15456319,6.31249877 C9.90071537,6.31249877 11.2859311,5.29036819 13.089096,5.29036819 Z M13.3995231,0 C13.3995231,0 13.6995448,1.79110457 12.2584002,3.51697595 C10.7197052,5.35948945 8.97030132,5.05794796 8.97030132,5.05794796 C8.97030132,5.05794796 8.64166486,3.60899362 9.9319315,1.91465881 C11.3826144,0.0095041728 13.3995231,0 13.3995231,0 Z"/>
    </g>
    <g xmlns="http://www.w3.org/2000/svg" transform="translate(45.000000, 39.000000)" fill="#F75050">
      <path d="M18.75,10 L1.25,10 C0.56,10 0,10.56 0,11.25 L0,20 L2.5,20 L2.5,12.5 L3.75,12.5 L3.75,20 C3.75,20.69 4.31,21.25 5,21.25 L6.25,21.25 L6.25,25 L8.75,25 L8.75,21.25 L11.25,21.25 L11.25,25 L13.75,25 L13.75,21.25 L15,21.25 C15.69,21.25 16.25,20.69 16.25,20 L16.25,12.5 L17.5,12.5 L17.5,20 L20,20 L20,11.25 C20,10.56 19.44,10 18.75,10 Z"/>
      <path d="M3.86718066,6.80721634 C3.86718066,7.46563292 4.41668127,8 5.09374452,8 L14.9062555,8 C15.5833187,8 16.1328193,7.46563292 16.1328193,6.80721634 C16.1328193,5.59415536 15.7538111,4.4669748 15.1110916,3.52467571 L17,1.68778888 L15.2656387,0 L13.3767303,1.83688683 C12.4065183,1.21306098 11.248642,0.843298047 10,0.843298047 C8.75135798,0.843298047 7.59348169,1.21306098 6.62326967,1.83688683 L4.73436131,0 L3,1.68778888 L4.88890836,3.52467571 C4.24618889,4.4669748 3.86718066,5.59415536 3.86718066,6.80721634 Z"/>
    </g>
    <rect xmlns="http://www.w3.org/2000/svg" fill="#D48988" transform="translate(40.000000, 39.000000) rotate(45.000000) translate(-40.000000, -39.000000) " x="39" y="16" width="2" height="46" rx="1"/>
  </svg>