<svg xmlns="http://www.w3.org/2000/svg" viewBox="0 0 76 39">
    <path xmlns="http://www.w3.org/2000/svg" d="M25.437 16.365c-.258 4.333-2.327 5.098-4.653 5.353h-3.102l1.292-7.647h3.36c1.81 0 3.103.764 3.103 2.294z"/>
    <path xmlns="http://www.w3.org/2000/svg" d="M38 0C17.013 0 0 8.73 0 19.5S17.013 39 38 39s38-8.73 38-19.5S58.987 0 38 0zM21.342 25.658h-4.684l-1.042 5.388h-4.945l4.165-20.783h9.63c4.164.257 6.246 2.31 6.246 5.901 0 6.158-4.945 9.75-9.37 9.494zm19.594-11.546h-3.904L34.69 25.658h-4.945l4.164-20.783h4.945l-1.041 5.388h4.685c4.164.257 5.726 2.31 5.205 4.875l-1.821 10.52h-5.206l1.822-9.494c.26-1.283.26-2.052-1.562-2.052zM56.22 25.658h-4.685l-1.04 5.388h-4.946l4.164-20.783h9.63c4.165.257 6.247 2.31 6.247 5.901 0 6.158-4.945 9.75-9.37 9.494zm1.041-11.546h-3.383l-1.302 7.697h3.124c2.342-.256 4.424-1.026 4.685-5.388 0-1.54-1.302-2.31-3.124-2.31z"/>
  </svg>