<svg xmlns="http://www.w3.org/2000/svg" viewBox="0 0 67 67">
    <circle xmlns="http://www.w3.org/2000/svg" opacity=".16" cx="33.5" cy="33.5" r="33.5"/>
    <path xmlns="http://www.w3.org/2000/svg" d="M46.417 24.776h-6.459v-1.259C39.958 22.13 38.8 21 37.375 21h-7.75c-1.425 0-2.583 1.129-2.583 2.517v1.259h-6.459c-1.424 0-2.583 1.129-2.583 2.517v3.775c0 1.389 1.159 2.517 2.583 2.517h10.334v-.629c0-.348.289-.63.646-.63h3.875c.357 0 .645.282.645.63v.63h10.334c1.424 0 2.583-1.13 2.583-2.518v-3.775c0-1.388-1.159-2.517-2.583-2.517zm-9.042 0h-7.75v-1.259h7.75v1.259zM48.642 34.976a.663.663 0 0 0-.678.062 2.6 2.6 0 0 1-1.547.516H36.083v1.88a.636.636 0 0 1-.646.626h-3.875a.636.636 0 0 1-.645-.627v-1.88H20.583a2.601 2.601 0 0 1-1.547-.515.658.658 0 0 0-.678-.062.625.625 0 0 0-.358.562v8.789c0 1.382 1.159 2.506 2.583 2.506h25.834c1.424 0 2.583-1.124 2.583-2.506v-8.79a.625.625 0 0 0-.358-.56z"/>
  </svg>