<svg xmlns="http://www.w3.org/2000/svg" viewBox="0 0 67 67">
    <circle xmlns="http://www.w3.org/2000/svg" opacity=".16" cx="33.5" cy="33.5" r="33.5"/>
    <path xmlns="http://www.w3.org/2000/svg" d="M50.91 20H16.89c-1.043 0-1.89.835-1.89 1.864v22.372c0 1.029.847 1.864 1.89 1.864h34.02c1.043 0 1.89-.835 1.89-1.864V21.864c0-1.029-.847-1.864-1.89-1.864zm-1.89 10.414l-6.778-6.685h6.778v6.685zm-30.24 5.272l6.778 6.685H18.78v-6.685zm12.122 6.685L18.78 30.414v-6.685h18.118L49.02 35.686v6.685H30.902z"/>
    <path xmlns="http://www.w3.org/2000/svg" d="M33.487 31.015c.344.174.889.362 1.634.564.848.235 1.548.473 2.098.714.55.241 1.03.608 1.436 1.102.407.493.61 1.143.61 1.95 0 1.043-.352 1.878-1.057 2.505-.705.628-1.63 1.02-2.777 1.177V41.6h-2.563v-2.606a10.47 10.47 0 0 1-2.364-.648 7.931 7.931 0 0 1-2.004-1.151l1.341-2.657c.608.516 1.35.95 2.227 1.303.878.353 1.631.53 2.262.53.39 0 .694-.073.911-.219a.705.705 0 0 0 .327-.622c0-.325-.178-.574-.533-.748-.355-.174-.906-.356-1.65-.547-.838-.213-1.531-.434-2.082-.664a3.69 3.69 0 0 1-1.427-1.067c-.401-.482-.602-1.116-.602-1.9 0-.953.318-1.75.954-2.388.637-.639 1.517-1.054 2.64-1.244V24.5h2.563v2.421c.722.09 1.418.25 2.09.48a8.49 8.49 0 0 1 1.779.832l-1.324 2.69a11.65 11.65 0 0 0-2.115-.942c-.769-.257-1.4-.386-1.892-.386-.31 0-.553.059-.731.176a.577.577 0 0 0-.267.513c0 .314.172.558.516.731z"/>
  </svg>