<svg xmlns="http://www.w3.org/2000/svg" viewBox="0 0 114 20">
    <path xmlns="http://www.w3.org/2000/svg" d="M40.6133015,19.9997719 C36.483663,19.9997719 32.6502413,18.7657109 30.091422,16.4771094 C28.1582293,14.7480554 27.2292895,12.3994617 27.2292895,9.98220762 C27.2292895,7.59437943 28.1982895,5.22959009 30.0911931,3.50966035 C32.4675666,1.3515363 36.6631328,0 40.6133015,0 C44.984675,0 48.483422,1.09719656 51.1580725,3.51559114 C53.0610484,5.23643331 53.9810605,7.59072972 53.9810605,9.98243573 C53.9810605,12.3006912 53.0047352,14.7694975 51.1580725,16.4771094 C48.6674701,18.7805379 44.7534702,19.9997719 40.6133015,19.9997719 L40.6133015,17.361938 C42.805169,17.361938 44.8383979,16.607815 46.2583617,15.1999361 C47.6684822,13.8016378 48.3254701,12.0828486 48.3254701,9.98220762 C48.3254701,7.9698442 47.6167473,6.08841443 46.2583617,4.75398618 C44.8573979,3.37895481 42.7756388,2.60521454 40.6133015,2.60521454 C38.4443256,2.60521454 36.3611931,3.37097105 34.9590847,4.75398618 C33.6080244,6.08795821 32.8974702,7.97486257 32.8974702,9.98220762 C32.8974702,11.9833938 33.6162654,13.8691576 34.9590847,15.2001642 C36.3623377,16.5911631 38.4381449,17.3621661 40.6133015,17.3621661 L40.6133015,20 L40.6133015,19.9997719 Z M10.4298558,0.0095805105 C8.22081971,0.0095805105 5.71121731,0.421314355 3.57886792,1.37024111 C1.61087998,2.24526107 4.66409478e-07,3.66043933 4.66409478e-07,6.00652387 C-0.000915196237,8.11948265 1.3467113,9.35696526 1.3100848,9.32274915 C1.88328962,9.84853669 2.80604865,10.7438582 5.21859081,11.2696457 C6.29678357,11.5045964 8.60196429,11.8654623 10.8975305,12.1045188 C13.176157,12.3440316 15.4186149,12.5716827 16.3319884,12.8020712 C17.057651,12.9861539 18.2766269,13.2368439 18.2766269,14.5995575 C18.2766269,15.9567965 16.99241,16.3710395 16.7692173,16.4609138 C16.5462534,16.5487351 15.005651,17.2531308 12.2362293,17.2531308 C10.1915546,17.2531308 7.73345827,16.6404343 6.83748237,16.321084 C5.8046149,15.9547435 4.72115707,15.4702434 3.71049443,14.2400602 C3.45914503,13.9350806 3.0626631,13.0963298 3.0626631,12.2657907 L0.556265524,12.2657907 L0.556265524,19.2641256 L3.34216913,19.2641256 L3.34216913,18.3186204 C3.34216913,18.2109537 3.47722937,17.7681973 3.94490406,17.9787404 C4.52680768,18.2422044 6.23497634,18.9199115 8.02097634,19.2914984 C9.48534983,19.5967061 10.4296269,19.8154611 12.2501932,19.8154611 C15.2206028,19.8154611 16.8163739,19.3332421 17.9195185,19.0193663 C18.9587956,18.7228267 20.2430124,18.1904241 21.2861811,17.3614818 C21.851145,16.9132508 23.0900365,15.7642738 23.0900365,13.6786879 C23.0900365,11.6768174 22.0118437,10.4343165 21.6325305,10.0563425 C21.1158678,9.54127603 20.4847474,9.1420881 19.8270727,8.83437122 C19.2540968,8.56566071 18.3498799,8.24288875 17.6100245,8.0624558 C16.1740365,7.71117042 12.9270968,7.27776637 11.3743619,7.11581012 C9.74608476,6.94632633 6.92149441,6.71320057 5.79339803,6.3653368 C5.45139803,6.25972308 4.75412093,5.92873925 4.75412093,5.12215151 C4.75412093,4.54846142 5.07300045,4.06213645 5.70320526,3.66910742 C6.7035667,3.04454937 8.72420525,2.65631059 10.8304583,2.65631059 C13.3206028,2.6471863 15.4293739,3.21448938 16.7708197,3.81213075 C17.2270486,4.01514633 17.7608799,4.30666758 18.1848317,4.65156596 C18.6632655,5.04026095 19.334904,5.84798923 19.5777835,6.97461165 L21.8280245,6.97461165 L21.8280245,0.882775611 L19.3154462,0.882775611 L19.3154462,1.59082096 C19.3154462,1.81938457 19.0785185,2.11638039 18.6305305,1.87093684 C17.5060968,1.28310409 14.3269161,0.0148269805 10.429398,0.0095805105 L10.4298558,0.0095805105 Z M65.4918556,1.11658569 L77.748458,12.1387349 L77.6225544,4.7177171 C77.6101929,3.74461096 77.4302652,3.3383517 76.3740483,3.3383517 L74.0695544,3.3383517 L74.0695544,1.11841055 L84.5493134,1.11841055 L84.5493134,3.3383517 L82.3013616,3.3383517 C81.2240845,3.3383517 81.1560965,3.68165332 81.1430483,4.7177171 L81.3330483,18.897557 L77.7441086,18.897557 L63.6268797,6.34252606 L63.6298556,15.252857 C63.6422171,16.221401 63.6877713,16.6776158 64.6892773,16.6776158 L67.206205,16.6776158 L67.206205,18.8966445 L56.9141569,18.8966445 L56.9141569,16.6778439 L59.3200605,16.6778439 C60.2187834,16.6778439 60.1830725,15.824038 60.1830725,15.2024453 L60.1830725,4.80211684 C60.1830725,4.13079678 60.0885303,3.33994845 58.6774942,3.33994845 L56.7253014,3.33994845 L56.7253014,1.11658569 L65.4918556,1.11658569 Z M96.5245784,16.6735099 C96.6230121,16.6735099 97.060241,16.660964 97.1449398,16.6351878 C97.3869037,16.5599124 97.5510362,16.3879194 97.6270362,16.208627 C97.6590844,16.1333516 97.6751085,15.8003148 97.6751085,15.7280047 L97.6769398,12.219713 C97.6769398,12.1353133 97.6707591,12.0988161 97.5270001,11.9108556 C97.3690483,11.705559 91.1070603,4.6342298 90.8204579,4.3228632 C90.4644941,3.93622117 89.8395543,3.3385798 88.8900122,3.3385798 L86.7123375,3.3385798 L86.7123375,1.11772623 L99.0021326,1.11772623 L99.0021326,3.33584251 L97.5205904,3.33584251 C97.1779037,3.33584251 96.9501326,3.65975501 97.2429157,4.01970848 C97.2429157,4.01970848 101.377819,8.94842492 101.416964,8.99997719 C101.455422,9.05244189 101.488386,9.0649878 101.541036,9.01708524 C101.592771,8.96804215 105.779639,4.06487374 105.812602,4.02609549 C106.011759,3.78840758 105.876699,3.3383517 105.447482,3.3383517 L103.927711,3.3383517 L103.927711,1.11772623 L114,1.11772623 L114,3.3383517 L111.749759,3.3383517 C110.933446,3.3383517 110.601289,3.48890258 109.987108,4.1807523 C109.706229,4.49736536 103.377398,11.6957504 103.205253,11.8907822 C103.11506,11.9927462 103.122843,12.1348571 103.122843,12.2192568 L103.122843,15.7270923 C103.122843,15.7982618 103.138868,16.1317548 103.170916,16.2065741 C103.247145,16.3867789 103.412193,16.5587719 103.653928,16.6331349 C103.738627,16.6591391 104.169904,16.6719131 104.268108,16.6719131 L106.569855,16.6719131 L106.569855,18.8923105 L94.34347,18.8923105 L94.34347,16.671685 L96.5250362,16.6735099 L96.5245784,16.6735099 Z" id="path4258"/>
  </svg>