<svg xmlns="http://www.w3.org/2000/svg" viewBox="0 0 79 79">
    <circle xmlns="http://www.w3.org/2000/svg" opacity=".16" cx="39.5" cy="39.5" r="39.5"/>
    <path xmlns="http://www.w3.org/2000/svg" d="M48.75 37h-17.5c-.69 0-1.25.56-1.25 1.25V47h2.5v-7.5h1.25V47c0 .69.56 1.25 1.25 1.25h1.25V52h2.5v-3.75h2.5V52h2.5v-3.75H45c.69 0 1.25-.56 1.25-1.25v-7.5h1.25V47H50v-8.75c0-.69-.56-1.25-1.25-1.25zM33.867 33.807c0 .659.55 1.193 1.227 1.193h9.812c.677 0 1.227-.534 1.227-1.193 0-1.213-.38-2.34-1.022-3.282L47 28.688 45.266 27l-1.89 1.837A6.224 6.224 0 0 0 40 27.843c-1.249 0-2.407.37-3.377.994L34.734 27 33 28.688l1.889 1.837a5.805 5.805 0 0 0-1.022 3.282z"/>
  </svg>