<svg xmlns="http://www.w3.org/2000/svg" viewBox="0 0 240 55">
    <path xmlns="http://www.w3.org/2000/svg" d="M110.512651,30.3207768 C112.945695,30.4738779 114.352298,29.6018875 114.499169,27.6591353 C114.631636,25.9052158 114.645331,24.1255034 114.513337,22.3720572 C114.331283,19.9487045 112.945695,18.849547 110.512651,18.9976789 L110.512651,30.3207768 Z M118.873005,3.98086719 L127.237775,3.98086719 L127.237775,4.88574957 L125.395046,4.88574957 L125.395046,6.83181458 C125.395046,15.3941221 125.414881,23.9566662 125.382768,32.518737 C125.373323,35.0019576 124.853137,37.3382295 122.83048,39.064463 C121.426946,40.2615864 119.76816,40.6162984 118.034521,40.2817001 C116.035477,39.8957527 114.973381,37.1657244 116.03406,35.4184307 C116.514341,34.6268952 117.285765,34.517571 118.076552,34.7059304 C118.930384,34.9094343 119.389413,35.5996911 119.38776,36.4231719 C119.386343,37.2639269 119.159662,38.1042086 119.022945,39.0005722 C119.439708,39.580085 120.330848,39.3354071 120.520458,38.359535 C120.721401,37.3273444 120.849617,36.2632084 120.852687,35.2125604 C120.879842,25.2754186 120.873466,15.3382768 120.875355,5.40089834 C120.875355,5.27855938 120.856229,5.15622042 120.837575,4.92787014 L118.873005,4.92787014 L118.873005,3.98086719 Z M128.528205,6.25490474 C129.789591,6.72769632 130.956763,7.16522966 132.244831,7.64772317 C131.014377,9.83065724 129.829024,11.9338462 128.528205,14.2426687 L128.528205,6.25490474 Z M105.834117,28.5837765 L105.834117,7.50172096 L104.524089,7.50172096 L104.524089,6.56418332 L104.924795,6.56418332 C105.065054,6.56654964 105.208855,6.5684427 105.314403,6.56796944 C105.563989,6.56654964 105.813102,6.56536648 106.062687,6.56418332 L109.951213,6.56418332 L109.951213,6.55377149 C110.930665,6.55400812 111.910116,6.55661108 112.889331,6.56465658 C116.021073,6.59068615 118.324484,8.4238775 118.665922,11.1243267 C119.144078,14.9057127 117.720001,17.025466 114.038558,18.0006282 C113.652727,18.1028534 113.25698,18.1688738 112.626051,18.3020979 C113.352139,18.4864345 113.8702,18.600728 114.378343,18.7498064 C116.715048,19.4360404 118.761317,20.5617008 119.3207,23.1445437 C120.135336,26.9074724 118.657186,30.7811451 113.905855,31.132071 C111.724993,31.2932177 109.483684,31.2962939 107.311087,31.3003167 L120.197201,55 L133.132665,31.2096864 C132.36738,31.3514293 131.507645,31.2466011 130.639645,30.8793476 C130.276719,30.7257731 129.923238,30.5490087 129.627844,30.4122352 C129.251932,30.7891906 128.93505,31.1074612 128.618169,31.4254952 C128.550401,31.3713064 128.482869,31.3175908 128.4151,31.263402 L128.4151,25.9576299 L129.03989,25.9576299 C129.03989,25.9576299 129.244612,26.4431996 129.334576,26.7162734 C129.630678,27.6150034 129.868457,28.5508846 130.301276,29.3819376 C130.862548,30.4597983 131.954632,30.5281851 132.991934,30.3360395 C133.352735,30.2693092 133.631836,30.1150249 133.846711,29.8966131 L134.329589,29.0085317 C134.366189,28.879567 134.396413,28.7451598 134.419789,28.6046001 C134.59287,27.5520591 134.146591,26.90132 133.29819,26.3790722 C132.04011,25.604811 130.727484,24.8875781 129.586759,23.9618721 C127.811562,22.5219638 128.086413,19.086771 129.310727,17.5448741 C130.226424,16.392001 131.866793,16.0947906 133.172099,16.8018483 C133.524871,16.9928107 133.60232,17.0436866 134.222624,17.4045511 C134.842927,17.7654155 135.142099,16.5167062 135.142099,16.5167062 C135.142099,16.5167062 135.243397,16.5271181 135.493927,16.5271181 L135.493927,20.7687542 C135.478107,20.7737235 135.463703,20.7784561 135.448591,20.7829521 L134.913293,20.7829521 C134.913293,20.7829521 134.870082,20.6580102 134.756505,20.3264882 C134.642456,19.9949662 134.011999,18.1303027 132.879774,17.5479503 C131.861598,17.0238095 130.664438,17.2249471 130.123473,18.0221617 C129.590537,18.8084912 129.815801,19.9199537 130.768806,20.6360034 C131.378484,21.0938871 132.096544,21.4093182 132.772809,21.7758618 C134.179649,22.5380548 135.575155,23.329117 135.945164,25.0681286 C135.998057,25.3175392 136.037726,25.5664765 136.066297,25.8142306 L150.10211,0 L90.2925279,0 L105.834117,28.5837765 Z M113.889208,15.6650425 C114.367836,13.683246 114.36453,11.656726 113.84765,9.6761126 C113.385315,7.90349915 112.38414,7.31499432 110.512603,7.64273022 L110.512603,17.9688957 C112.38414,18.080113 113.453319,17.4691281 113.889208,15.6650425 M47.3710448,17.5583385 C47.3710448,18.8508248 47.3701003,20.0470017 47.3715171,21.2434152 C47.3719894,21.6340953 47.3894627,22.0278516 47.0839154,22.3399698 C46.761367,22.5037194 46.4473192,22.5032462 46.1564118,22.3172531 C45.8756577,21.9982726 45.9103683,21.6274696 45.9096599,21.2677883 C45.9063541,20.2370175 45.8954923,17.5609415 45.8954923,17.5609415 L43.4128616,17.5609415 C43.4128616,19.1790339 43.3342316,20.7635246 43.4388355,22.3366569 C43.516521,23.5027815 44.2943207,24.2422578 45.4277263,24.5323692 C45.9946653,24.6774248 46.585453,24.6629903 47.1698653,24.6208697 C48.9219216,24.4940347 49.8898029,23.4646837 49.9065678,21.6894673 C49.9179019,20.491634 49.9117626,19.293564 49.9070401,18.0954941 C49.9063317,17.9085545 49.9131794,17.5583385 49.9131794,17.5583385 L47.3710448,17.5583385 Z M21.592252,20.231078 C21.3013445,20.1444705 20.9969779,20.1032965 20.7037092,20.021895 C20.4730139,19.9577676 20.1464514,19.9241658 20.1584938,19.6082615 C20.2612087,19.0138408 20.7832837,19.1603163 22.2071246,19.7147461 C22.4411256,19.1603163 22.6786686,18.6082529 22.8243584,17.9797572 C21.685758,17.3363536 20.4671107,17.1049271 19.2486996,17.5696732 C18.4890817,17.8595479 17.9773962,18.4224964 17.709393,19.2251536 C17.3379665,20.3359062 17.8949882,21.357685 18.9811686,21.746472 C19.2654646,21.8479873 19.4614493,21.8510636 19.758496,21.9161375 C20.0239019,21.9745857 20.3171706,21.9757688 20.4626243,22.2578347 C20.5034742,22.5039324 20.3950922,22.656087 20.1842316,22.7112224 C19.3941533,22.9173292 18.7670022,22.4987265 18.1174191,22.0680555 C17.8574441,22.730153 17.625096,23.3212608 17.3757467,23.9561456 C18.4562601,24.5995491 20.1804535,24.8314489 21.2196449,24.5027664 C21.6189343,24.3766414 21.9986252,24.2046096 22.3136175,23.9218339 C22.9632006,23.337825 23.233329,22.6023715 23.0829166,21.7448156 C22.9372267,20.9132893 22.3627317,20.4606115 21.592252,20.231078 M3.338352,20.4004832 C3.14827042,20.7551952 2.44414214,20.620078 2.44414214,20.620078 L2.46114322,19.4993869 C3.36125624,19.4018944 3.5286697,20.0460078 3.338352,20.4004832 M5.98013175,19.8046427 C5.90905777,18.5289574 5.01272277,17.6302274 3.64980244,17.5488259 C2.79219213,17.4974766 0,17.5315517 0,17.5315517 L0,24.5271159 L2.46208773,24.5271159 L2.46208773,22.3777837 L3.65594172,24.5271159 L6.51141567,24.5271159 C5.92487823,23.5505339 5.32535384,22.6671851 4.65664449,21.7869125 C5.62452572,21.4662756 6.03538528,20.7892702 5.98013175,19.8046427 M56.8054902,20.4004832 C56.6151725,20.7551952 55.9110442,20.620078 55.9110442,20.620078 L55.9280453,19.4993869 C56.8283944,19.4018944 56.9958079,20.0460078 56.8054902,20.4004832 M59.4472699,19.8046427 C59.3759598,18.5289574 58.4796248,17.6302274 57.1169406,17.5488259 C56.2590942,17.4974766 53.466902,17.5315517 53.466902,17.5315517 L53.466902,24.5271159 L55.9292259,24.5271159 L55.9292259,22.3777837 L57.1228438,24.5271159 L59.9785538,24.5271159 C59.3920164,23.5505339 58.792492,22.6671851 58.1237827,21.7869125 C59.0916639,21.4662756 59.5022873,20.7892702 59.4472699,19.8046427 M12.0042302,21.8282285 L13.8519176,21.8282285 L13.8519176,20.143879 L11.9938406,20.143879 L11.9938406,19.3892582 L14.1196847,19.3892582 L14.1196847,17.5697915 L9.43635794,17.5697915 L9.43635794,24.5270213 L14.1947728,24.5270213 L14.1947728,22.6029631 L12.0042302,22.6029631 L12.0042302,21.8282285 Z M25.8895597,19.6876753 L27.3285126,19.6876753 L27.3285126,24.5876228 C27.3287487,24.5906991 27.3289849,24.5944852 27.3294571,24.597798 L29.851757,24.597798 L29.851757,19.7432839 L31.1679244,19.7432839 L31.1679244,17.6434079 L25.8895597,17.6434079 L25.8895597,19.6876753 Z M83.2695921,19.6876753 L84.7087811,19.6876753 L84.7087811,24.5876228 C84.7090173,24.5906991 84.7092534,24.5944852 84.7094895,24.597798 L87.2320256,24.597798 L87.2320256,19.7432839 L88.5479568,19.7432839 L88.5479568,17.6434079 L83.2695921,17.6434079 L83.2695921,19.6876753 Z M36.5329946,22.0174871 L37.0411382,19.9727464 L37.5129183,22.0061288 L36.5329946,22.0174871 Z M35.5379589,17.5475007 C34.7403247,19.8523005 33.9448155,22.1500013 33.1171933,24.5416452 L35.6869545,24.5416452 C35.7131645,24.5388056 35.7660568,24.5343095 35.7660568,24.5343095 L36.1018282,23.734492 L37.8822197,23.734492 L38.2399508,24.5416452 L40.9022736,24.5416452 C40.0392324,22.1253915 39.2198745,19.83266 38.4035863,17.5475007 L35.5379589,17.5475007 Z M65.8822752,22.0174871 L66.3904187,19.9727464 L66.8621988,22.0061288 L65.8822752,22.0174871 Z M64.8872394,17.5475007 C64.0896052,19.8523005 63.294096,22.1500013 62.4664738,24.5416452 L65.036235,24.5416452 C65.062445,24.5388056 65.1153373,24.5343095 65.1153373,24.5343095 L65.4508726,23.734492 L67.2315002,23.734492 L67.5892313,24.5416452 L70.2515541,24.5416452 C69.3882767,22.1253915 68.569155,19.83266 67.7528668,17.5475007 L64.8872394,17.5475007 Z M77.7568249,21.2723553 L75.5407806,17.5792331 L73.0997081,17.5792331 L73.0997081,24.5397758 L75.4956805,24.5397758 L75.4893051,20.9495887 L77.7214059,24.5977507 L80.1176145,24.5977507 L80.1176145,17.5792331 L77.7568249,17.5792331 L77.7568249,21.2723553 Z M237.824569,22.6075774 L237.824569,21.8382854 L239.659506,21.8382854 L239.659506,20.1655308 L237.81418,20.1655308 L237.81418,19.416116 L239.925384,19.416116 L239.925384,17.6091908 L235.274407,17.6091908 L235.274407,24.5183842 L240,24.5183842 L240,22.6075774 L237.824569,22.6075774 Z M230.319015,20.2112009 C230.029761,20.1250667 229.727519,20.0841293 229.436612,20.0034376 C229.207097,19.9397835 228.883132,19.9061817 228.895174,19.5924071 C228.997181,19.0024825 229.515714,19.1477748 230.929402,19.6984184 C231.16175,19.1477748 231.397404,18.5992608 231.542385,17.9752612 C230.411813,17.3363536 229.201666,17.1063469 227.991756,17.56849 C227.237332,17.8559984 226.728953,18.4151608 226.462839,19.2121388 C226.09401,20.3150825 226.647017,21.329999 227.726114,21.7159464 C228.008284,21.8169885 228.202852,21.8195914 228.49801,21.8846654 C228.761291,21.9424037 229.052671,21.9435868 229.196944,22.2237596 C229.237557,22.4684375 229.13012,22.619409 228.92044,22.6738345 C228.136029,22.8787582 227.513128,22.4632316 226.868031,22.0354002 C226.609709,22.6930017 226.37925,23.2796135 226.13179,23.9104755 C227.204511,24.549383 228.916898,24.7793897 229.948769,24.4533103 C230.345225,24.3278951 230.722319,24.1572831 231.03495,23.8761638 C231.680519,23.296651 231.948522,22.5656935 231.79929,21.7145266 C231.654309,20.8884429 231.083828,20.4390779 230.319015,20.2112009 M219.767126,17.6092855 C219.767126,18.8923064 219.766182,20.0804378 219.767599,21.2683326 C219.768071,21.6566464 219.785544,22.0475631 219.481886,22.357315 C219.161699,22.5203547 218.84954,22.5198814 218.56123,22.3353081 C218.282129,22.0182207 218.316603,21.6502573 218.315659,21.2927057 C218.312589,20.2690339 218.301963,17.6118884 218.301963,17.6118884 L215.83657,17.6118884 C215.83657,19.2183859 215.758176,20.7924648 215.862072,22.3540021 C215.939285,23.5120812 216.711654,24.2465882 217.837031,24.5345698 C218.400192,24.678679 218.986729,24.6647177 219.567364,24.6225971 C221.307378,24.496472 222.268647,23.4749299 222.28494,21.7117817 C222.296274,20.5222305 222.290135,19.3322061 222.285648,18.1426549 C222.284704,17.9568985 222.291315,17.6092855 222.291315,17.6092855 L219.767126,17.6092855 Z M208.190946,22.4638469 C207.396853,22.4638469 206.753173,21.8185503 206.753173,21.0229921 C206.753173,20.2274339 207.396853,19.5823739 208.190946,19.5823739 C208.984802,19.5823739 209.628482,20.2274339 209.628482,21.0229921 C209.628482,21.8185503 208.984802,22.4638469 208.190946,22.4638469 M208.049506,17.4252328 C207.960251,17.4309119 207.71161,17.4375376 207.464858,17.4647504 C205.805363,17.6479039 204.546338,18.8843083 204.333588,20.6131447 C204.144924,22.1436832 204.864164,23.6749316 206.508547,24.3176252 C207.670051,24.7719595 208.835806,24.7579982 209.973462,24.2750314 C212.229648,23.3183265 212.796587,20.2676614 211.059643,18.5239171 C210.27287,17.7340381 209.304753,17.4107982 208.049506,17.4252328 M198.204485,19.7839374 L196.605438,19.7839374 L196.605438,17.5023276 L194.216786,17.5023276 L194.216786,24.4524584 L196.605438,24.4524584 L196.605438,22.1476586 L198.204485,22.1476586 L198.204485,24.4524584 L200.592901,24.4524584 L200.592901,17.5023276 L198.204485,17.5023276 L198.204485,19.7839374 Z M187.05097,21.5108335 C187.05097,21.5108335 186.410123,18.8163001 186.101034,17.5103258 L184.161494,17.5103258 C183.837765,18.819613 183.157721,21.5692817 183.157721,21.5692817 L182.213217,17.529493 L179.643219,17.529493 C180.463285,19.8709708 182.070833,24.462113 182.070833,24.462113 L184.216511,24.462113 L185.171878,20.7245039 L185.983443,24.464716 L188.212947,24.464716 L190.607739,17.5103258 L188.040339,17.5103258 L187.05097,21.5108335 Z M173.994845,21.8381671 L175.829781,21.8381671 L175.829781,20.1654125 L173.984455,20.1654125 L173.984455,19.4159976 L176.095896,19.4159976 L176.095896,17.6093091 L171.444918,17.6093091 L171.444918,24.5182659 L176.170511,24.5182659 L176.170511,22.6074591 L173.994845,22.6074591 L173.994845,21.8381671 Z M164.672725,20.4446151 C164.483824,20.7969608 163.784418,20.6627902 163.784418,20.6627902 L163.801655,19.5499079 C164.695393,19.4531253 164.861626,20.0927427 164.672725,20.4446151 M167.296087,19.8530341 C167.225485,18.5861041 166.335525,17.6937632 164.982286,17.6128349 C164.130107,17.561959 161.357513,17.5955608 161.357513,17.5955608 L161.357513,24.5426153 L163.802364,24.5426153 L163.802364,22.4081909 L164.987953,24.5426153 L167.823829,24.5426153 C167.241541,23.5728957 166.646031,22.6956993 165.981808,21.8215792 C166.943078,21.5030719 167.350868,20.8305626 167.296087,19.8530341 M155.248197,22.6618845 C154.949025,22.9690334 154.11975,22.7629266 154.11975,22.7629266 L154.101332,21.7515596 C154.101332,21.7515596 155.01939,21.6472047 155.233557,21.8667996 C155.451029,22.1559644 155.422458,22.4041918 155.248197,22.6618845 M155.030961,19.415761 C155.224348,19.6452945 155.124939,19.871515 154.928482,20.0747823 C154.767916,20.2349824 154.133445,20.1036515 154.133445,20.1036515 L154.124708,19.2439659 C154.124708,19.2439659 154.795307,19.1362981 155.030961,19.415761 M157.005212,21.166131 C156.874162,21.0705315 156.733194,20.98913 156.571448,20.8850117 C156.969793,20.6528753 157.26495,20.3767253 157.365068,19.938482 C157.555386,19.104826 157.400251,18.0047219 156.031191,17.6549792 C155.300381,17.4682762 154.554222,17.4810543 153.808063,17.4864969 C153.127547,17.4919394 152.446559,17.4879167 151.742431,17.4879167 L151.742431,24.464077 L155.85386,24.464077 C156.191993,24.4588711 156.498957,24.3270669 156.791517,24.1715994 C158.007331,23.5258295 158.116658,21.9725743 157.005212,21.166131 M139.316362,36.512051 C139.140211,36.8305583 138.892515,37.0787857 138.573745,37.2564966 C138.25521,37.433971 137.922509,37.5229447 137.576112,37.5229447 C137.229714,37.5229447 136.897249,37.433971 136.578478,37.2564966 C136.259708,37.0787857 136.011539,36.8305583 135.834209,36.512051 C135.656642,36.1937804 135.568095,35.8610753 135.568095,35.5139355 C135.568095,35.164666 135.658295,34.8288846 135.838931,34.506118 C136.019568,34.1833514 136.269862,33.9353606 136.589576,33.7619091 C136.909527,33.5884575 137.238215,33.5016134 137.576112,33.5016134 C137.911883,33.5016134 138.240098,33.5884575 138.560994,33.7619091 C138.881889,33.9353606 139.132183,34.1833514 139.311639,34.506118 C139.491095,34.8288846 139.581059,35.164666 139.581059,35.5139355 C139.581059,35.8610753 139.492748,36.1937804 139.316362,36.512051 M138.758868,33.4135861 C138.373982,33.2060595 137.979887,33.1021779 137.576112,33.1021779 C137.172336,33.1021779 136.778241,33.2060595 136.393592,33.4135861 C136.008942,33.6213494 135.708826,33.9183231 135.493243,34.3049805 C135.277659,34.6914012 135.169514,35.0943862 135.169514,35.5139355 C135.169514,35.9292254 135.276006,36.3284243 135.488284,36.7117688 C135.700797,37.0951133 135.997608,37.3927969 136.379424,37.6045829 C136.760768,37.8166056 137.159585,37.9223803 137.576112,37.9223803 C137.992638,37.9223803 138.391455,37.8166056 138.773035,37.6045829 C139.154379,37.3927969 139.450717,37.0951133 139.662286,36.7117688 C139.873619,36.3284243 139.97964,35.9292254 139.97964,35.5139355 C139.97964,35.0943862 139.872203,34.6914012 139.657564,34.3049805 C139.442925,33.9183231 139.143281,33.6213494 138.758868,33.4135861 M137.445557,35.3862013 L136.938831,35.3862013 L136.938831,34.6034213 L137.413444,34.6034213 C137.617693,34.6034213 137.757244,34.6185657 137.832804,34.6483814 C137.908129,34.6781971 137.96716,34.7231573 138.009663,34.7839718 C138.051929,34.8447863 138.073417,34.9134097 138.073417,34.9900786 C138.073417,35.1093414 138.029261,35.2051775 137.941186,35.277587 C137.852875,35.3499966 137.687587,35.3862013 137.445557,35.3862013 M137.996912,35.8237347 C137.941659,35.7704924 137.868223,35.7248223 137.776842,35.6864879 C138.000218,35.6692137 138.178965,35.5904151 138.31403,35.4500921 C138.448858,35.3095324 138.51639,35.1445996 138.51639,34.955057 C138.51639,34.8206498 138.476012,34.6940515 138.395257,34.5747888 C138.314502,34.455526 138.20612,34.3719948 138.070347,34.324195 C137.934102,34.2761586 137.714269,34.2522588 137.410375,34.2522588 L136.521123,34.2522588 L136.521123,36.8459867 L136.938831,36.8459867 L136.938831,35.7439895 L137.184166,35.7439895 C137.3308,35.7439895 137.442252,35.7738052 137.518757,35.8334366 C137.629264,35.9141282 137.774953,36.1155024 137.955354,36.4368493 L138.184869,36.8459867 L138.694901,36.8459867 L138.379436,36.3379369 C138.228316,36.0975184 138.100808,35.9259599 137.996912,35.8237347" id="bjsrestaurant"/>
  </svg>