<svg xmlns="http://www.w3.org/2000/svg" viewBox="0 0 79 79">
    <circle xmlns="http://www.w3.org/2000/svg" opacity=".16" cx="39.5" cy="39.5" r="39.5"/>
    <path xmlns="http://www.w3.org/2000/svg" d="M29.714 44.522c0 3.027 2.27 5.298 2.27 5.298l3.046-3.045-1.11-6.615c-1.044.573-4.206 2.465-4.206 4.362M46.089 40L45 46.638l3.019 3.019s2.27-2.271 2.27-5.298c0-1.894-3.151-3.783-4.2-4.359"/>
    <path xmlns="http://www.w3.org/2000/svg" d="M37.436 48.03l-1.515 2.271h7.57l-1.514-2.27zM39.975 36.6a1.893 1.893 0 1 1 .002-3.786 1.893 1.893 0 0 1-.002 3.785m0 6.055a1.892 1.892 0 1 1 0-3.784 1.892 1.892 0 0 1 0 3.784m0-13.624c-1.834.086-6.993 3.394-5.905 9.855l1.397 8.31h9.05l1.364-8.31c1.088-6.46-4.07-9.769-5.906-9.855"/>
  </svg>