<svg xmlns="http://www.w3.org/2000/svg" viewBox="0 0 63 38">
    <path xmlns="http://www.w3.org/2000/svg" d="M17.8 13.827c0 .784.083 1.42.23 1.885.166.466.375.974.668 1.525a.93.93 0 0 1 .146.487c0 .211-.125.423-.397.635l-1.316.89a.992.992 0 0 1-.543.19c-.209 0-.417-.106-.626-.297a6.542 6.542 0 0 1-.752-.995c-.209-.36-.418-.762-.647-1.25-1.63 1.949-3.676 2.923-6.14 2.923-1.755 0-3.154-.508-4.178-1.525C3.222 17.28 2.7 15.924 2.7 14.23c0-1.8.627-3.261 1.9-4.362 1.274-1.101 2.966-1.652 5.117-1.652.71 0 1.441.064 2.214.17.773.105 1.566.275 2.402.465V7.305c0-1.609-.334-2.731-.982-3.388-.668-.656-1.796-.974-3.404-.974-.731 0-1.483.085-2.256.276-.772.19-1.524.423-2.255.72a5.94 5.94 0 0 1-.731.275c-.146.042-.25.063-.334.063-.293 0-.439-.211-.439-.656V2.583c0-.338.042-.593.146-.74.105-.149.293-.297.585-.445.731-.382 1.608-.7 2.632-.953C8.318.169 9.404.042 10.553.042c2.485 0 4.302.572 5.471 1.716 1.15 1.143 1.734 2.88 1.734 5.209v6.86h.042zm-8.48 3.22c.69 0 1.4-.128 2.152-.382.752-.254 1.42-.72 1.984-1.355.334-.403.585-.847.71-1.355a7.703 7.703 0 0 0 .209-1.843v-.89a17.226 17.226 0 0 0-1.922-.36 15.524 15.524 0 0 0-1.963-.126c-1.4 0-2.422.275-3.112.847-.689.572-1.023 1.376-1.023 2.435 0 .995.25 1.736.773 2.245.501.529 1.232.783 2.193.783zm16.77 2.286c-.375 0-.626-.063-.793-.212-.167-.127-.313-.423-.438-.826L19.95 1.927c-.126-.424-.188-.699-.188-.847 0-.339.167-.53.501-.53h2.047c.397 0 .668.064.814.212.167.127.293.424.418.826l3.509 14.018L30.31 1.588c.104-.423.23-.699.396-.826.167-.127.46-.211.836-.211h1.67c.397 0 .669.063.836.211.167.127.313.424.397.826l3.3 14.188 3.613-14.188c.125-.423.271-.699.417-.826.167-.127.439-.211.815-.211h1.942c.334 0 .522.169.522.529 0 .106-.02.212-.042.339-.02.127-.062.296-.146.53l-5.033 16.368c-.125.423-.272.698-.439.825-.167.128-.438.212-.793.212h-1.796c-.397 0-.669-.063-.836-.212-.167-.148-.313-.423-.396-.847L32.335 4.637 29.12 18.274c-.104.424-.23.699-.397.847-.167.149-.46.212-.835.212H26.09zm26.838.572a13.64 13.64 0 0 1-3.217-.381c-1.044-.254-1.858-.53-2.401-.847-.334-.191-.564-.403-.648-.593a1.512 1.512 0 0 1-.125-.593v-1.08c0-.445.167-.657.48-.657.126 0 .25.022.376.064s.314.127.522.212c.71.317 1.483.571 2.298.74.835.17 1.65.255 2.485.255 1.316 0 2.34-.233 3.05-.699.71-.466 1.085-1.143 1.085-2.012 0-.592-.188-1.08-.564-1.482-.376-.402-1.086-.762-2.11-1.1l-3.027-.954c-1.525-.487-2.653-1.207-3.342-2.16-.69-.931-1.044-1.969-1.044-3.07 0-.89.188-1.673.564-2.35a5.422 5.422 0 0 1 1.503-1.737A6.594 6.594 0 0 1 50.985.36C51.821.106 52.698 0 53.617 0c.46 0 .94.021 1.4.085.48.063.918.148 1.357.233.417.106.814.211 1.19.338.376.127.668.255.877.382.293.169.501.338.627.529.125.17.188.402.188.699v.995c0 .445-.167.678-.48.678-.168 0-.44-.085-.794-.255-1.19-.55-2.527-.825-4.01-.825-1.19 0-2.13.19-2.778.593-.647.402-.981 1.016-.981 1.884 0 .593.209 1.101.626 1.504.418.402 1.19.804 2.298 1.164l2.965.953c1.504.487 2.59 1.165 3.237 2.033.648.868.961 1.863.961 2.965 0 .91-.188 1.736-.543 2.456a5.678 5.678 0 0 1-1.525 1.863c-.647.53-1.42.91-2.318 1.186a9.804 9.804 0 0 1-2.986.445zM56.957 30.046C50.064 35.242 40.048 38 31.437 38 19.366 38 8.492 33.446.278 25.877c-.65-.598-.063-1.41.713-.94 8.884 5.26 19.842 8.445 31.178 8.445 7.648 0 16.05-1.625 23.781-4.96 1.153-.535 2.138.77 1.006 1.624zm2.87-3.335c-.88-1.154-5.824-.556-8.066-.278-.67.086-.775-.513-.168-.962 3.94-2.822 10.414-2.01 11.168-1.069.755.962-.21 7.569-3.897 10.733-.566.492-1.11.235-.859-.406.838-2.117 2.703-6.885 1.823-8.018z"/>
  </svg>