<svg xmlns="http://www.w3.org/2000/svg" viewBox="0 0 160 26">
    <path xmlns="http://www.w3.org/2000/svg" d="M18.7464554,24.676866 C16.6488741,23.3662143 15.1042535,18.8425938 15.1042535,13.468506 C15.1042535,13.2712841 15.1050876,13.0765587 15.1100917,12.8826655 L15.1125938,12.885162 C9.2793995,11.9706184 5.06422018,9.46415312 4.95663053,6.50083216 L4.93911593,6.53495071 C3.51125938,8.30495455 2.69641368,10.3512354 2.69641368,12.531494 C2.69641368,18.9474459 9.75479566,24.2041992 18.7080901,24.6693765 L18.7464554,24.676866 Z M0,13 C0,5.82095762 8.95412844,0 20,0 C31.0458716,0 40,5.82095762 40,13 C40,20.1790424 31.0458716,26 20,26 C8.95412844,26 0,20.1790424 0,13 Z M20,1.87568813 C22.1326105,1.87568813 23.9457882,5.10280374 24.618015,9.60645244 L24.6205171,9.59979516 C28.7689741,8.9557035 31.6738949,7.46863398 31.6738949,5.73940597 C31.6738949,3.41768019 26.4470392,1.53866342 20,1.53866342 C13.5529608,1.53866342 8.32610509,3.41851235 8.32610509,5.73940597 C8.32610509,7.46863398 11.2301918,8.95487134 15.3794829,9.59979516 L15.381985,9.60645244 C16.0542118,5.1036359 17.8682235,1.87568813 20,1.87568813 Z M21.2910759,24.6693765 C30.2443703,24.2041992 37.3035863,18.9474459 37.3035863,12.531494 C37.3035863,10.3512354 36.4879066,8.30495455 35.0608841,6.53495071 L35.0433695,6.50083216 C34.9357798,9.46415312 30.7214345,11.9706184 24.8874062,12.885162 L24.8899083,12.8826655 C24.8940784,13.0765587 24.8957465,13.2712841 24.8957465,13.468506 C24.8957465,18.8425938 23.3494579,23.3662143 21.2535446,24.676866 L21.2910759,24.6693765 Z M20,9.94098067 C20.9557965,9.94098067 21.8840701,9.90020484 22.7723103,9.82198182 L22.7714762,9.82281398 C22.3294412,6.93605172 21.2552127,4.89892459 20,4.89892459 C18.7447873,4.89892459 17.6713928,6.93605172 17.2285238,9.82281398 L17.2276897,9.82198182 C18.1159299,9.90020484 19.0442035,9.94098067 20,9.94098067 Z M20,20.6309051 C21.6055046,20.6309051 22.9149291,17.2972731 22.9849875,13.1165024 L22.9933278,13.1189988 C22.0258549,13.2080399 21.0250209,13.2554731 20,13.2554731 C18.9749791,13.2554731 17.9741451,13.2088721 17.0066722,13.1189988 L17.0158465,13.1165024 C17.0850709,17.2981052 18.3944954,20.6309051 20,20.6309051 Z" id="Shape"/>
    <path xmlns="http://www.w3.org/2000/svg" d="M103,12.5 C103,7.25307815 107.477387,3 112.999162,3 C118.523451,3 123,7.25387386 123,12.5 C123,17.7477176 118.522613,22 112.999162,22 C107.477387,22 103,17.7469219 103,12.5 Z M112.999162,18.5163749 C116.083752,18.5163749 118.583752,15.8220957 118.583752,12.4992043 C118.583752,9.17710864 116.083752,6.48203367 112.999162,6.48203367 C109.916248,6.48203367 107.417085,9.17631292 107.417085,12.4992043 C107.417085,15.8220957 109.917085,18.5163749 112.999162,18.5163749 Z" id="Shape"/>
    <polygon xmlns="http://www.w3.org/2000/svg" id="Shape" points="134.742474 6.5039531 134.742474 22 130.257526 22 130.257526 6.5039531 130.272684 6.5039531 124 6.5039531 124 3 141 3 141 6.50310918 134.758523 6.50310918 134.742474 6.50310918"/>
    <path xmlns="http://www.w3.org/2000/svg" d="M144.917626,17.7247046 L144.913198,17.7289242 L143.20372,22 L138,22 L146.226749,3 L149.000886,3 L151.772365,3 L160,22 L154.795394,22 L153.085917,17.7289242 L153.081488,17.7247046 L149.000886,17.7247046 L144.917626,17.7247046 Z M149.000886,14.5178111 L151.804252,14.5178111 L151.80248,14.5186551 L149.019486,7.56475971 L148.980514,7.56475971 L146.195748,14.5186551 L146.194863,14.5178111 L149.000886,14.5178111 Z" id="Shape"/>
    <polygon xmlns="http://www.w3.org/2000/svg" id="Shape" points="56.7436933 6.5039531 56.7436933 22 52.2580899 22 52.2580899 6.5039531 52.273247 6.5039531 46 6.5039531 46 3 63 3 63 6.50310918 56.7588504 6.50310918 56.7436933 6.50310918"/>
    <path xmlns="http://www.w3.org/2000/svg" d="M63,12.5 C63,7.25307815 67.4771994,3 73.0004187,3 C78.5228006,3 83,7.25387386 83,12.5 C83,17.7477176 78.5228006,22 73.0004187,22 C67.4771994,22 63,17.7469219 63,12.5 Z M73.0004187,18.5163749 C76.0832042,18.5163749 78.583937,15.8220957 78.583937,12.4992043 C78.583937,9.17710864 76.0840417,6.48203367 73.0004187,6.48203367 C69.9167958,6.48203367 67.4169005,9.17631292 67.4169005,12.4992043 C67.4169005,15.8220957 69.9167958,18.5163749 73.0004187,18.5163749 Z" id="Shape"/>
    <polygon xmlns="http://www.w3.org/2000/svg" id="Shape" points="95.0004414 22 97.2524829 22 97.2524829 14.874789 97.2524829 14.7853336 105 3 99.8143898 3 95.0004414 10.9860087 90.1873759 3 85 3 92.7483999 14.7853336 92.7483999 14.8739451 92.7483999 21.9991561 95.0004414 21.9991561"/>
  </svg>