<svg xmlns="http://www.w3.org/2000/svg" viewBox="0 0 212 35">
    <g xmlns="http://www.w3.org/2000/svg" id="layer1-9">
      <path d="M128.023365,26.5363189 L128.023365,20.1811619 L126.183481,20.1811619 L126.183481,15.764522 L128.023365,15.764522 L128.023365,11.8078091 L133.496467,11.8078091 L133.496467,15.764522 L137.123373,15.764522 L137.123373,20.1811619 L133.496467,20.1811619 L133.496467,25.4681524 C133.496467,26.5657054 133.98701,27.0264212 134.993147,27.0264212 C135.713873,27.0264212 136.405013,26.8246608 137.066764,26.5081159 L137.066764,30.809774 C136.087846,31.359438 134.791368,31.7057638 133.2651,31.7057638 C129.983764,31.7057638 128.023365,30.2607017 128.023365,26.5363189" id="path3085"/>
      <path d="M114.260925,15.764522 L119.731265,15.764522 L119.731265,18.9120238 C120.623001,16.7750991 122.064454,15.3894015 124.654453,15.5043832 L124.654453,21.2802927 L124.194876,21.2802927 C121.345108,21.2802927 119.731265,22.9257346 119.731265,26.5363189 L119.731265,31.3878383 L114.260925,31.3878383 L114.260925,15.764522" id="path3083"/>
      <path d="M97.3879609,26.9114395 L97.3879609,26.8542444 C97.3879609,23.6195695 99.8327891,21.9443467 103.490662,21.9443467 C104.930932,21.9443467 106.341417,22.2334775 107.23552,22.5512057 L107.23552,22.2912642 C107.23552,20.6738281 106.225833,19.7510158 104.12401,19.7510158 C102.484525,19.7510158 101.215463,20.0673635 99.8327891,20.6154497 L98.7100814,16.7461071 C100.467517,16.0240691 102.339552,15.5347558 105.015746,15.5347558 C107.810089,15.5347558 109.712893,16.1976265 110.948621,17.4391531 C112.130699,18.5939011 112.62144,20.2113372 112.62144,22.4062459 L112.62144,31.3878383 L107.207314,31.3878383 L107.207314,29.7715856 C106.138454,30.9535505 104.67136,31.7347558 102.62871,31.7347558 C99.6621739,31.7347558 97.3879609,30.0313299 97.3879609,26.9114395 M107.292326,25.7271078 L107.292326,25.0056615 C106.74616,24.7731341 105.969022,24.601549 105.162298,24.601549 C103.578041,24.601549 102.655535,25.381571 102.655535,26.5363189 L102.655535,26.5941057 C102.655535,27.6634555 103.462457,28.2977287 104.586742,28.2977287 C106.169421,28.2977287 107.292326,27.28656 107.292326,25.7271078" id="path3079"/>
      <path d="M80.9954812,23.6491531 L80.9954812,23.5905775 C80.9954812,19.0281889 84.2497951,15.4183935 88.8583802,15.4183935 C94.2417362,15.4183935 96.7185178,19.3745147 96.7185178,23.9670786 C96.7185178,24.3120238 96.7185178,24.716728 96.6891286,25.0930319 L86.2658169,25.0930319 C86.697582,26.7962605 87.9360715,27.6634555 89.6345318,27.6634555 C90.9306162,27.6634555 91.9661425,27.1715783 93.0906254,26.074617 L96.1149539,28.5852817 C94.6168926,30.4924402 92.4572778,31.7631561 89.3465569,31.7631561 C84.4531528,31.7631561 80.9954812,28.4998836 80.9954812,23.6491531 Z M91.5925641,22.2912642 C91.3905872,20.5588463 90.3846473,19.4610962 88.8854025,19.4610962 C87.4476976,19.4610962 86.4664131,20.586655 86.1798189,22.2912642 L91.5925641,22.2912642 Z" id="path3075"/>
      <polyline id="path3073" points="61.1839896 11.172747 66.7720839 11.172747 66.7720839 18.7390582 73.9422651 18.7390582 73.9422651 11.172747 79.5285843 11.172747 79.5285843 31.3878383 73.9422651 31.3878383 73.9422651 23.7069398 66.7720839 23.7069398 66.7720839 31.3878383 61.1839896 31.3878383 61.1839896 11.172747"/>
      <path d="M57.3643769,31.4004607 L57.3643769,18.5479479 C57.3643769,16.7119873 55.2688662,16.5283715 55.2688662,16.5283715 L53.7445715,16.5283715 C53.7445715,16.5283715 51.6484691,16.6137696 51.6484691,18.5479479 L51.6484691,31.4004607 L57.3643769,31.4004607 Z" id="path3071"/>
      <path d="M54.5077051,15.3876265 C56.219578,15.3876265 57.5557027,14.2640399 57.5557027,12.520972 C57.5557027,10.7422065 56.219578,9.58726124 54.5077051,9.58726124 C52.7983964,9.58726124 51.4614826,10.7422065 51.4614826,12.520972 C51.4614826,14.2640399 52.7983964,15.3876265 54.5077051,15.3876265" id="path3009"/>
      <g id="g3013" transform="translate(23.039367, 18.303051) scale(-1, 1) rotate(-180.000000) translate(-23.039367, -18.303051) translate(0.035112, 0.753051)">
        <g id="g3019">
          <g id="g3021">
            <path d="M22.8990433,29.1321397 C20.6799028,32.5413583 16.8344176,34.8116838 12.4693049,34.8116838 C5.59989309,34.8116838 0.0303410184,29.2285242 0.0303410184,22.3379472 C0.0303410184,18.4637275 2.1257806,14.6607224 4.89192038,12.3710304 C5.00613333,12.2352189 11.9566767,5.80649807 18.0826217,0.145895869 L18.0826217,9.291379 C18.0826217,15.5338225 27.6015767,15.4878102 27.6015767,9.291379 L27.6015767,0.0677007666 L40.1181039,11.8972217 C43.1854866,14.388628 45.7645294,17.9659083 45.7645294,22.3379472 C45.7645294,29.2285242 40.1970615,34.8116838 33.3243859,34.8116838 C28.9937261,34.8116838 25.1264902,32.5006752 22.8990433,29.1321397 M10.5068007,12.4252238 C6.79232937,15.7257511 4.90869711,19.1718785 4.90869711,22.6672187 L4.90869711,22.7089091 C4.90869711,25.7127137 6.73594328,29.1279554 9.16042492,30.6531713 C9.56325473,30.9061744 10.0948138,30.7839494 10.3482645,30.3792938 C10.6014634,29.9755341 10.4799374,29.4415469 10.0765743,29.188538 C8.1449622,27.9744335 6.63233109,25.1269048 6.63233109,22.7089091 L6.63233109,22.6672187 C6.63233109,19.6881858 8.32081506,16.6771605 11.6502316,13.7186947 C12.0061486,13.4016978 12.0394581,12.8549675 11.7232916,12.4982859 C11.5538692,12.3051451 11.3166294,12.2082306 11.0776598,12.2082306 C10.8747267,12.2082306 10.6706881,12.2791815 10.5068007,12.4252238 M34.0719236,12.4982859 C33.7557188,12.8549675 33.7882807,13.4016978 34.14542,13.7186947 C37.4745185,16.6771605 39.1631565,19.6881858 39.1631565,22.6672187 L39.1631565,22.7089091 C39.1631565,25.1269048 37.6503684,27.9744335 35.7190703,29.188538 C35.31545,29.4415469 35.194368,29.9755341 35.4475941,30.3792938 C35.7000453,30.7839494 36.2316045,30.9056562 36.635208,30.6531713 C39.0588998,29.1279554 40.886108,25.7127137 40.886108,22.7089091 L40.886108,22.6672187 C40.886108,19.1718785 39.0030062,15.7257511 35.2888565,12.4252238 C35.1251701,12.2791815 34.9195179,12.2082306 34.7170511,12.2082306 C34.4791942,12.2082306 34.2419988,12.3051451 34.0719236,12.4982859 M16.0952429,15.3732451 C13.5767533,16.7878781 11.8815352,19.564731 11.870952,22.2919671 L11.870952,22.3183786 C11.8800329,24.9116743 13.3072008,27.2697318 15.5980722,28.4782436 C16.0190252,28.7010433 16.5401864,28.5387559 16.7628179,28.1159108 C16.9840168,27.6939237 16.8219359,27.1706124 16.4003501,26.9484452 C14.6737631,26.0373412 13.5991812,24.2597869 13.5950153,22.3054422 C13.59932,20.1802425 14.9423732,18.0021758 16.9375668,16.8823125 C17.3528961,16.6496597 17.501047,16.1224101 17.2689501,15.7052397 C17.1108658,15.4234328 16.8177588,15.2639827 16.5156945,15.2639827 C16.3733,15.2639827 16.2287773,15.2992547 16.0952429,15.3733973 M28.5263807,15.7052397 C28.2947968,16.1224101 28.4424938,16.6496597 28.8576208,16.8823125 C30.8528354,18.0021758 32.1951931,20.1802425 32.2001951,22.3054422 C32.1955214,24.2597869 31.121635,26.0373412 29.3945007,26.9484452 C28.9729325,27.1706124 28.810703,27.6939237 29.0323781,28.1159108 C29.2550091,28.5381966 29.7752209,28.7010433 30.1977482,28.4782436 C32.4881563,27.2697318 33.9144576,24.9116743 33.9248701,22.3183786 L33.9248701,22.2919671 C33.9135108,19.564731 32.2174776,16.7878781 29.6994703,15.3732451 C29.5661988,15.2991025 29.4225497,15.2638129 29.2785504,15.2638129 C28.9769408,15.2638129 28.6844814,15.423304 28.5263807,15.7050699 M19.1920722,21.6588927 C19.1920722,23.7283735 20.8666566,25.4029844 22.9265907,25.4029844 C24.9934023,25.4029844 26.6641268,23.7283735 26.6641268,21.6588927 C26.6641268,19.5906974 24.9934023,17.9137675 22.9265907,17.9137675 C20.8666566,17.9137675 19.1920722,19.5906974 19.1920722,21.6588927" id="path3029"/>
          </g>
        </g>
      </g>
    </g>
    <path xmlns="http://www.w3.org/2000/svg" d="M142.933022,16.2 C142.569411,16.2000324 142.266488,16.3325225 142.014699,16.5915487 C141.76287,16.8505966 141.634041,17.1620979 141.634043,17.536156 L141.634043,30.207318 C141.634041,30.5669001 141.752736,30.8690982 141.990521,31.1209142 C142.22823,31.3726316 142.527114,31.5 142.890724,31.5 C143.254422,31.5 143.564369,31.3726316 143.809121,31.1209142 C144.053847,30.8690982 144.171644,30.5669001 144.171649,30.207318 L144.171649,21.1653854 L147.742324,26.6651765 C148.036029,27.1251944 148.392203,27.3549206 148.81182,27.3549159 C149.245409,27.3549206 149.605641,27.1251944 149.899359,26.6651765 L153.488181,21.1218514 L153.488181,30.1825076 C153.48817,30.5420282 153.610904,30.8494019 153.862809,31.1084698 C154.114596,31.367459 154.419456,31.5 154.769087,31.5 C155.132703,31.5 155.441601,31.3726316 155.69343,31.1209142 C155.945292,30.8690982 156.068072,30.5565488 156.068085,30.1825076 L156.068085,17.536156 C156.068072,17.1620979 155.945292,16.8505966 155.69343,16.5915487 C155.441601,16.3325225 155.132703,16.2000324 154.769087,16.2 L154.497202,16.2 C153.993522,16.2000324 153.598575,16.4292961 153.319039,16.8898658 L148.854042,24.0798833 L144.401235,16.9147023 C144.10752,16.4397199 143.714138,16.2000324 143.210957,16.2 L142.933022,16.2 Z" id="path3067"/>
    <path xmlns="http://www.w3.org/2000/svg" d="M161.952086,16.2 C161.567595,16.2000109 161.241018,16.3279625 160.974765,16.5902407 C160.708509,16.8525157 160.578722,17.1744177 160.578723,17.5531681 L160.578723,30.1405303 C160.578722,30.5193026 160.708509,30.8411937 160.974765,31.1034578 C161.241018,31.3657484 161.567595,31.5 161.952086,31.5 L171.092682,31.5 C171.43293,31.5 171.718502,31.3807585 171.955007,31.1474877 C172.191462,30.9143526 172.306261,30.6329231 172.306383,30.2978372 C172.306261,29.9628326 172.186144,29.6748751 171.942265,29.441918 C171.69837,29.208978 171.418006,29.0957572 171.092682,29.0957556 L163.306276,29.0957556 L163.306276,24.986018 L169.981267,24.986018 C170.321008,24.9860227 170.606864,24.8664987 170.843593,24.6335353 C171.080244,24.4006016 171.201245,24.1233945 171.201255,23.80276 C171.201245,23.4675665 171.080244,23.1808453 170.843593,22.9405376 C170.606864,22.7002409 170.321008,22.5817799 169.981267,22.5817721 L163.306276,22.5817721 L163.306276,18.6042444 L170.977666,18.6042444 C171.317934,18.6042538 171.609736,18.4849577 171.846385,18.2517804 C172.083036,18.0185533 172.19777,17.7371784 172.197783,17.4021316 C172.19777,17.0670894 172.083036,16.7856599 171.846385,16.5524811 C171.609736,16.3192539 171.317934,16.2000109 170.977666,16.2 L161.952086,16.2 Z" id="path3069"/>
    <path xmlns="http://www.w3.org/2000/svg" d="M177.244725,16.2 C176.874198,16.2000109 176.559336,16.3279625 176.302791,16.5902407 C176.046217,16.8525157 175.914892,17.1744177 175.914894,17.5531681 L175.914894,30.1405303 C175.914892,30.5193026 176.046217,30.8411937 176.302791,31.1034578 C176.559336,31.3657484 176.874198,31.5 177.244725,31.5 L181.498885,31.5 C183.821719,31.5 185.722872,30.7668016 187.212031,29.309783 C188.701166,27.85283 189.446796,26.0320618 189.446809,23.8468492 L189.446809,23.80276 C189.446796,21.6317693 188.701166,19.8210224 187.212031,18.3713122 C185.722872,16.921702 183.821719,16.2000109 181.498885,16.2 L177.244725,16.2 Z M178.543765,18.6482478 L181.498885,18.6482478 C183.051902,18.6482571 184.305571,19.1385707 185.260455,20.1146727 C186.215275,21.0908089 186.688705,22.3316101 186.688715,23.8468492 L186.688715,23.8909384 C186.688705,25.4060823 186.215275,26.6490064 185.260455,27.6104837 C184.305571,28.5719205 183.051902,29.0517538 181.498885,29.0517522 L178.543765,29.0517522 L178.543765,18.6482478 Z" id="path3072"/>
    <path xmlns="http://www.w3.org/2000/svg" d="M193.515911,16.2 C193.134367,16.2000108 192.810316,16.3211788 192.546119,16.5724097 C192.281936,16.8236621 192.15319,17.1360988 192.153191,17.5096738 L192.153191,30.1841115 C192.15319,30.5576973 192.281936,30.8698662 192.546119,31.1213757 C192.810316,31.3727867 193.134367,31.5 193.515911,31.5 C193.882623,31.5 194.19612,31.3727867 194.460244,31.1213757 C194.724471,30.8698662 194.859571,30.5576973 194.859574,30.1841115 L194.859574,17.5096738 C194.859571,17.1360988 194.724471,16.8236621 194.460244,16.5724097 C194.19612,16.3211788 193.882623,16.2000108 193.515911,16.2 Z" id="path3074"/>
    <path xmlns="http://www.w3.org/2000/svg" d="M204.737615,15.3 C204.024445,15.3000122 203.506688,15.659139 203.18483,16.3721491 L197.735074,28.7821618 C197.62329,29.010273 197.565957,29.208881 197.565957,29.379922 C197.565957,29.722062 197.679438,30.0132587 197.910339,30.2487453 C198.14124,30.4842656 198.426765,30.6 198.762187,30.6 C199.335826,30.6 199.734878,30.3244299 199.958501,29.7681409 L201.197056,26.8781766 L208.326473,26.8781766 L209.522833,29.6818655 C209.77465,30.2951941 210.192156,30.6 210.77947,30.6 C211.129073,30.6 211.418657,30.4788402 211.64957,30.2364366 C211.88046,29.9939307 211.999988,29.693248 212,29.336733 C211.999988,29.1513171 211.947094,28.9676496 211.848912,28.7821618 L206.399153,16.3721491 C206.077301,15.659139 205.563616,15.3000122 204.864536,15.3 L204.737615,15.3 Z M204.761794,18.4918237 L207.341701,24.5427835 L202.18196,24.5427835 L204.761794,18.4918237 Z" id="path3076"/>
  </svg>