<svg xmlns="http://www.w3.org/2000/svg" viewBox="0 0 104 39">
    <path xmlns="http://www.w3.org/2000/svg" d="M28.9901723,22.714749 C28.9591602,22.714749 28.9281482,22.714749 28.8971361,22.714749 C28.8971361,24.2001473 28.9107627,25.6858693 28.8875819,27.170944 C28.8817867,27.5428195 29.0102205,27.749471 29.2979434,27.9449564 C31.4369916,29.3979896 33.983112,28.635305 35.1169313,26.1910892 C35.7490759,24.8283548 35.8381964,23.3758071 35.7684976,21.9020602 C35.6995819,20.449027 35.3130277,19.0908237 34.4929313,17.8975207 C33.7035337,16.7490436 32.648341,16.0640353 31.2361964,16.1834627 C30.6222205,16.2354087 30.0188952,16.4095332 29.4064855,16.4965954 C29.0777265,16.5433631 28.9837506,16.7055124 28.9854735,17.0285166 C28.9950277,18.9238195 28.9901723,20.8192842 28.9901723,22.714749 M22.6881482,16.4762054 C22.5749072,15.0841805 22.5731843,15.0767365 23.801606,14.7700768 C25.2886181,14.3986867 26.7065578,13.8423299 28.0131361,13.0228444 C28.4261602,12.7637614 28.7207747,12.9246162 28.9820277,13.1654129 C29.1104614,13.2838693 29.112341,13.5756411 29.1275337,13.7923257 C29.150088,14.1112842 29.1334855,14.4333174 29.1334855,14.8448402 C29.3875337,14.7184544 29.6069675,14.5956286 29.836112,14.4975622 C30.710088,14.123583 31.558847,13.6227324 32.4694735,13.4175373 C34.2454614,13.0171805 35.8634133,13.6324419 37.2822928,14.7093921 C39.2362084,16.1925249 40.1247506,18.2747365 40.249112,20.7501846 C40.3664253,23.0848444 39.8556663,25.227417 38.4394494,27.0733631 C36.8280759,29.1733755 34.7361723,30.3843174 32.1014012,30.3697531 C31.0441723,30.3639274 29.9878831,30.1661763 28.8691,30.0493382 C28.8691,31.2275913 28.8581361,32.5134585 28.8733289,33.7990021 C28.8819434,34.5134627 28.8788108,35.2358527 28.9787386,35.9397946 C29.1486783,37.1356867 29.517847,37.4559398 30.6613771,37.5786037 C31.3497506,37.6525581 31.3497506,37.6525581 31.3154494,38.3717116 C31.3069916,38.5503672 31.2993169,38.728861 31.2892928,38.9491058 L22.4564976,38.9491058 C22.4564976,38.7560477 22.4566542,38.5655788 22.456341,38.3749481 C22.4552446,37.583944 22.4552446,37.583944 23.223341,37.4727697 C24.0208831,37.3572261 24.445341,36.8477988 24.5184855,35.857749 C24.5751843,35.0910187 24.6209193,34.3213755 24.6221723,33.553027 C24.6307867,28.6247863 24.6276542,23.6968693 24.6213892,18.7687905 C24.6209193,18.3587241 24.5836422,17.9468776 24.5354012,17.5392386 C24.4428349,16.7561639 24.1999072,16.5273423 23.4335337,16.4786328 C23.1949916,16.4634212 22.9548831,16.4762054 22.6881482,16.4762054" id="Fill-1"/>
    <path xmlns="http://www.w3.org/2000/svg" d="M49.9080651,29.1354598 C49.8754867,29.5497336 49.8480771,29.8996008 49.8231735,30.215161 L42.2819205,30.215161 L42.2819205,29.1377253 C42.6498361,29.0979162 43.0370169,29.0477502 43.4257639,29.0157087 C44.2184506,28.9500075 44.7299928,28.5085469 44.7371976,27.7094515 C44.7668,24.3981734 44.7844988,21.0860863 44.7472217,17.7749701 C44.7350048,16.6832938 44.3237036,16.3533311 43.2669446,16.2573685 C43.1162699,16.2436133 42.9687277,16.1911817 42.8287036,16.1586548 C42.8139807,15.1629411 42.8293301,15.1987046 43.6517759,14.8232689 C44.6936554,14.3478249 45.7200289,13.831439 46.7255711,13.2794515 C47.049788,13.1012813 47.3389205,13.0363892 47.5646193,13.2906174 C47.7195229,13.4652274 47.7917277,13.7798166 47.7885952,14.0303228 C47.7809205,14.631829 47.707306,15.2322025 47.6504506,15.9583145 C47.8904024,15.8058747 48.0251012,15.7129867 48.1662217,15.6320739 C49.237547,15.0179452 50.2703422,14.3102813 51.3910048,13.8150946 C53.2933904,12.97441 56.1980289,13.6556963 57.0904867,15.8685012 C57.1346554,15.9780573 57.2190771,16.0704598 57.313053,16.2139992 C57.8432337,15.8717378 58.3507036,15.5391859 58.862559,15.214078 C59.9379566,14.5311734 61.0113181,13.8301444 62.2806193,13.5985718 C64.2558361,13.2378622 66.9780048,14.1358332 67.5366916,16.9360656 C67.6269084,17.3883685 67.6759325,17.8562066 67.6836072,18.3178954 C67.7305952,21.1301029 67.7601976,23.942634 67.7954386,26.7550033 C67.7965349,26.8446548 67.7959084,26.9341444 67.7963783,27.0237959 C67.8060892,28.7151983 68.0845711,29.0204017 69.7000169,29.111995 C69.8027639,29.1179826 69.9051976,29.1302813 70.0630771,29.1448456 C70.0741976,29.3377419 70.0889205,29.5272398 70.0948723,29.7170614 C70.1001976,29.8921568 70.0959687,30.0675759 70.0959687,30.2122481 L62.6903542,30.2122481 L62.6903542,29.1488913 C63.0640651,29.1056838 63.4379325,29.0636091 63.8114867,29.0189452 C64.6293904,28.9213643 64.991041,28.5606548 65.0348964,27.7104224 C65.0790651,26.8525842 65.0886193,25.9921568 65.0862699,25.1328622 C65.0804747,23.1265469 65.0691976,21.1202315 65.0399084,19.114078 C65.0117157,17.1800988 64.1020289,15.9376008 62.430041,15.562327 C61.6486313,15.3867461 60.8575108,15.4959784 60.1468964,15.8418 C59.3548361,16.2271071 58.6071012,16.7142025 57.8626554,17.1943394 C57.7259205,17.2825344 57.6281855,17.5495469 57.628812,17.7335427 C57.6408723,20.7782938 57.6714145,23.8230448 57.6975711,26.8677959 C57.699294,27.0648996 57.6955349,27.2621651 57.700547,27.4591071 C57.7282699,28.5527253 58.0108241,28.8933685 59.045812,29.0495303 C59.368306,29.0982398 59.6965952,29.1066548 60.0558964,29.1361071 L60.0558964,30.2159701 L52.7718241,30.2159701 L52.7718241,29.1629701 C53.1535229,29.1105386 53.4943422,29.0679784 53.8339084,29.0161942 C54.4347277,28.9242772 54.7230771,28.6509535 54.8397639,28.0350448 C54.8959928,27.7382564 54.9434506,27.4338622 54.9443904,27.1328664 C54.9515952,24.4093394 54.9555108,21.6856506 54.9392217,18.9621237 C54.9364024,18.5027004 54.8894145,18.0264473 54.7642699,17.5878996 C54.3654988,16.1894017 53.133788,15.4134473 51.5797398,15.4755884 C50.1282819,15.533522 48.9438723,16.2656216 47.7708964,17.0279826 C47.6473181,17.10841 47.5696313,17.3610199 47.569788,17.533688 C47.5726072,20.9553311 47.5826313,24.3769743 47.6108241,27.7984556 C47.6169325,28.5405884 48.0471855,28.938356 48.804788,29.0137668 C49.1474867,29.0477502 49.489559,29.0890158 49.9080651,29.1354598" id="Fill-4"/>
    <path xmlns="http://www.w3.org/2000/svg" d="M99.2378494,22.4644207 L99.1866325,22.4644207 C99.1866325,22.0881759 99.1954036,21.7117693 99.1849096,21.3358481 C99.1538976,20.2098647 99.1789578,19.0772465 99.0655602,17.9598398 C98.8696205,16.0289353 97.4144036,14.7754332 95.2095723,14.6619934 C93.1865843,14.5579394 91.4293916,15.7849021 90.5906566,17.7533502 C90.0260181,19.0787029 89.9160663,20.4684622 89.9603916,21.892205 C90.0009578,23.1983004 90.2755241,24.4330307 90.9046928,25.5740639 C92.0634157,27.6752091 94.1534398,28.6814415 96.2805843,28.1428855 C97.2981867,27.8852589 98.1441265,27.2924913 98.8884157,26.5571552 C99.0719819,26.3755867 99.2138855,26.0558191 99.2223434,25.7943087 C99.2588373,24.6854788 99.2378494,23.5745452 99.2378494,22.4644207 M103.984259,28.5811095 L103.984259,29.5470473 C102.540946,29.8558108 101.146813,30.1581012 99.750488,30.4501967 C99.3623675,30.5314332 98.978006,30.1846407 98.9839578,29.7352506 C98.9916325,29.1716116 99.043006,28.6084581 99.083259,27.9109892 C98.7770542,28.1255701 98.5662349,28.2636075 98.3655964,28.4157237 C97.3002229,29.2235577 96.1999217,29.9896407 94.8873916,30.2681427 C93.048753,30.6583046 91.3772349,30.3456573 89.9337651,28.9575162 C87.7563434,26.8638149 87.1356325,24.2317195 87.3238976,21.3078523 C87.4941506,18.6590888 88.509247,16.4161842 90.6338855,14.8566697 C93.0905723,13.0532838 95.7500904,12.9273834 98.5017048,14.1009436 C98.6862108,14.1795909 98.8772952,14.2412465 99.1632952,14.3470805 L99.1632952,13.6886116 C99.1632952,11.5198232 99.1656446,9.35119668 99.1606325,7.18257012 C99.160006,6.89710954 99.1313434,6.61051618 99.0997048,6.32635021 C98.9875602,5.31947054 98.6313916,4.98724232 97.6609337,4.96879419 C97.5259217,4.96620498 97.3910663,4.95552448 97.2637289,4.94888963 C97.0908133,4.01920083 97.1298133,3.99395602 97.884753,3.64376515 C98.9552952,3.14712199 100.011898,2.61714274 101.062078,2.07551203 C101.726488,1.73292697 102.043657,1.90494772 102.037548,2.66374855 C101.977247,10.1881593 101.910211,17.7124083 101.8615,25.2368191 C101.857114,25.9308896 101.930102,26.6314332 102.0305,27.3190307 C102.145934,28.1095494 102.503042,28.4068232 103.2785,28.4901635 C103.501693,28.5141137 103.723789,28.547288 103.984259,28.5811095" id="Fill-6"/>
    <path xmlns="http://www.w3.org/2000/svg" d="M6.15443494,14.157178 L10.6458566,14.157178 C10.4381699,14.8148378 10.2688566,15.3999996 10.056941,15.9683315 C10.0253024,16.0528046 9.79286867,16.0919664 9.6530012,16.0930992 C8.45888072,16.1026469 7.26460361,16.0986012 6.02725422,16.0986012 C6.01409759,16.3843855 5.9993747,16.5562444 5.9993747,16.7279415 C5.99780843,19.4689456 5.98355542,22.2099498 6.00955542,24.9506303 C6.01550723,25.5684809 6.09836265,26.2036469 6.25968795,26.797871 C6.61068795,28.0900494 7.50643494,28.5967257 8.77401325,28.3010701 C8.9586759,28.2580245 9.13957952,28.1957216 9.32032651,28.1360079 C10.1955554,27.8473108 10.1958687,27.8463398 10.5017602,28.7485183 C10.5412301,28.8647091 10.5717723,28.9839747 10.6178205,29.140622 C9.09525422,29.9380992 7.53776024,30.5154934 5.81251928,30.4077174 C5.33386867,30.3777797 4.84519398,30.3248627 4.38565181,30.1916801 C2.69314578,29.70151 1.84062771,28.5595058 1.8400012,26.7532071 C1.83906145,23.4393398 1.86819398,20.1253108 1.88463976,16.8114436 C1.88542289,16.6535017 1.88463976,16.4957216 1.88463976,16.2725639 L0.00183253012,16.2725639 C-0.0211915663,15.437705 0.164254217,14.8588544 0.891940964,14.409788 C2.69549518,13.2965888 3.83495301,11.5755722 4.64032651,9.60599129 C5.04316988,8.62111992 5.03878434,8.61270498 6.15443494,8.73941452 L6.15443494,14.157178 Z" id="Fill-9"/>
    <path xmlns="http://www.w3.org/2000/svg" d="M74.8409687,18.5492253 C74.9617277,18.5734992 75.027041,18.5982585 75.0921976,18.5980967 C77.1551253,18.5946983 79.218053,18.587578 81.2809807,18.5843415 C81.7563422,18.5835324 81.956041,18.2883622 82.0221373,17.8554784 C82.2044506,16.6621755 81.5129446,15.463856 80.3553181,15.0902004 C78.7184145,14.5620012 77.2694627,14.9626817 76.0750289,16.2233041 C75.4687277,16.8631631 75.0470892,17.6347481 74.8409687,18.5492253 M84.2185108,26.9763 C84.2727036,26.9955573 84.2940048,26.9962046 84.303559,27.0075324 C84.874306,27.6833166 84.8691373,27.6781382 84.2391855,28.2938851 C82.4646072,30.028495 80.3185108,30.7358353 77.9462458,30.4149349 C75.3904145,30.0689515 73.6700289,28.4625075 72.6369205,26.050495 C72.1903783,25.00769 72.0282699,23.9215158 71.9974145,22.7761133 C71.9466675,20.8994203 72.1734627,19.1144826 73.0709325,17.4515614 C74.1580771,15.4371548 75.7434506,14.0313747 77.9423301,13.6106278 C79.9570169,13.2253207 81.9283181,13.4188643 83.4629446,15.1083249 C84.4891614,16.2377066 84.7490048,17.5993083 84.538812,19.0826029 C84.4600289,19.6389598 84.0744145,19.9143871 83.4414867,19.9198892 C80.7014627,19.9438394 77.9614386,19.9611548 75.2214145,19.9820303 C75.0309566,19.9834867 74.833294,19.9653622 74.6527036,20.0127772 C74.5518361,20.0393166 74.4061735,20.1807523 74.4047639,20.2721838 C74.3778241,22.1270303 74.4703904,23.9487025 75.549547,25.5598394 C77.5127036,28.4905033 81.1870048,28.8460344 83.7171494,27.2912129 C83.893041,27.1831133 84.0668964,27.0716154 84.2185108,26.9763" id="Fill-12"/>
    <path xmlns="http://www.w3.org/2000/svg" d="M21.0906988,30.1506573 L12.4784337,30.1506573 L12.4784337,28.7633253 C12.7880843,28.7076573 13.1066627,28.6565203 13.4227349,28.5925992 C14.1060964,28.4547237 14.4992289,28.0140722 14.5368193,27.3064083 C14.6220241,25.6986697 14.7076988,24.089151 14.7274337,22.4796324 C14.7465422,20.9220598 14.706759,19.3625452 14.6486506,17.8056199 C14.6058916,16.6556863 14.3361807,16.4224954 13.2164578,16.393205 C12.996241,16.3875411 12.7758675,16.3923959 12.493,16.3923959 C12.493,15.9593502 12.4666867,15.5847237 12.5080361,15.2180266 C12.521506,15.0989228 12.6977108,14.9293295 12.8225422,14.9039228 C14.703,14.5191012 16.487759,13.8753585 18.1237229,12.8327154 C18.5021325,12.591595 18.7560241,12.8280224 19.0070964,13.0154166 C19.1233133,13.1021552 19.2002169,13.3308149 19.1955181,13.4918315 C19.1402289,15.3699809 19.0327831,17.2471593 19.0055301,19.1256324 C18.9729518,21.3648149 18.9944096,23.6051303 19.0161807,25.8447983 C19.0218193,26.4310929 19.0622289,27.0285535 19.1823614,27.5993129 C19.3341325,28.3200846 19.7299277,28.6519892 20.4325542,28.6464871 C20.9935904,28.6421178 21.1691687,28.8617154 21.0958675,29.4033461 C21.0651687,29.6299021 21.0906988,29.8645494 21.0906988,30.1506573" id="Fill-14"/>
    <path xmlns="http://www.w3.org/2000/svg" d="M13.0931145,3.80822863 C12.9772108,2.07960622 14.4191145,0.0334817427 16.5426566,0.000469294606 C18.6779458,-0.0327049793 20.3894036,1.63248174 20.3666928,3.72585934 C20.3442952,5.80192158 18.9489096,7.49963527 16.7213675,7.51533237 C14.4775361,7.53119129 13.0074398,5.70514979 13.0931145,3.80822863" id="Fill-16"/>
  </svg>