<svg xmlns="http://www.w3.org/2000/svg" viewBox="0 0 36 36">
    <path xmlns="http://www.w3.org/2000/svg" transform="translate(-1217.000000, -196.000000)" d="M1235,196 C1244.92509,196 1253,204.074909 1253,214 C1253,223.924 1244.92509,232 1235,232 C1225.07491,232 1217,223.924 1217,214 C1217,204.074909 1225.07491,196 1235,196 Z M1235,230.490182 C1244.09273,230.490182 1251.49018,223.092727 1251.49018,214 C1251.49018,204.906182 1244.09273,197.508727 1235,197.508727 C1225.90727,197.508727 1218.50982,204.906182 1218.50982,214 C1218.50982,223.092727 1225.90727,230.490182 1235,230.490182 Z M1244.71313,206.991564 C1245.01095,206.701382 1245.48876,206.707927 1245.78004,207.006836 C1246.07131,207.305745 1246.06476,207.782473 1245.76585,208.073745 L1232.48076,221.007564 C1232.43385,221.054473 1232.37495,221.080655 1232.31931,221.112291 C1232.29204,221.127564 1232.26804,221.152655 1232.23858,221.164655 C1232.14804,221.201745 1232.05095,221.221382 1231.95495,221.221382 C1231.85895,221.221382 1231.76185,221.201745 1231.67131,221.164655 C1231.64185,221.152655 1231.61785,221.127564 1231.59058,221.112291 C1231.53495,221.080655 1231.47604,221.054473 1231.42913,221.007564 L1224.23458,214.003927 C1223.93567,213.712655 1223.92913,213.235927 1224.21931,212.937018 C1224.51058,212.638109 1224.9884,212.631564 1225.28731,212.921745 L1231.95495,219.412655 L1244.71313,206.991564 Z"/>
  </svg>