<svg xmlns="http://www.w3.org/2000/svg" viewBox="0 0 52 46">
    <path xmlns="http://www.w3.org/2000/svg" d="M39.223 42.817c-6.126 3.495-14.548 3.854-23.021.269C9.342 40.204 3.649 35.16 0 29.396 1.752 30.837 3.795 31.99 5.985 33c8.75 4.049 17.5 3.772 23.654.01-.002-.003-.005-.008-.008-.01-8.758-6.629-16.202-15.275-21.749-22.336-1.168-1.152-2.043-2.593-2.92-3.89 6.715 6.052 17.37 13.689 21.166 15.85C18.1 14.266 10.948 3.891 11.239 4.18c12.7 12.68 24.522 19.885 24.522 19.885.393.218.694.4.937.561.256-.643.479-1.31.669-2.002 2.043-7.349-.292-15.706-5.4-22.623 11.822 7.06 18.828 20.318 15.91 31.414-.078.3-.16.595-.249.884l.102.124c5.839 7.205 4.233 14.842 3.503 13.401-3.167-6.117-9.03-4.246-12.01-3.006z"/>
  </svg>