<svg xmlns="http://www.w3.org/2000/svg" viewBox="0 0 62 56">
    <path xmlns="http://www.w3.org/2000/svg" d="M31 22.33c-3.057 0-5.539 2.515-5.539 5.618 0 3.108 2.482 5.623 5.539 5.623 3.057 0 5.539-2.515 5.539-5.623 0-3.103-2.482-5.618-5.539-5.618zm0 0c-3.057 0-5.539 2.515-5.539 5.618 0 3.108 2.482 5.623 5.539 5.623 3.057 0 5.539-2.515 5.539-5.623 0-3.103-2.482-5.618-5.539-5.618zm0 0c-3.057 0-5.539 2.515-5.539 5.618 0 3.108 2.482 5.623 5.539 5.623 3.057 0 5.539-2.515 5.539-5.623 0-3.103-2.482-5.618-5.539-5.618zm0 0c-3.057 0-5.539 2.515-5.539 5.618 0 3.108 2.482 5.623 5.539 5.623 3.057 0 5.539-2.515 5.539-5.623 0-3.103-2.482-5.618-5.539-5.618zm0 0c-3.057 0-5.539 2.515-5.539 5.618 0 3.108 2.482 5.623 5.539 5.623 3.057 0 5.539-2.515 5.539-5.623 0-3.103-2.482-5.618-5.539-5.618zm0 0c-3.057 0-5.539 2.515-5.539 5.618 0 3.108 2.482 5.623 5.539 5.623 3.057 0 5.539-2.515 5.539-5.623 0-3.103-2.482-5.618-5.539-5.618zm19.976-4.175a38.206 38.206 0 0 0-1.995-.64c.113-.467.215-.927.308-1.382 1.514-7.446.525-13.442-2.849-15.42-3.234-1.893-8.522.08-13.866 4.801a43.85 43.85 0 0 0-1.543 1.438 30.42 30.42 0 0 0-1.026-.962C24.403.943 18.793-1.185 15.423.798c-3.234 1.897-4.19 7.536-2.828 14.591.13.683.282 1.378.456 2.086a38.25 38.25 0 0 0-2.296.734C4.195 20.53 0 24.17 0 27.946c0 3.902 4.499 7.816 11.338 10.189.537.184 1.1.365 1.674.532a41.554 41.554 0 0 0-.487 2.244c-1.297 6.936-.282 12.442 2.938 14.326 3.331 1.948 8.916-.052 14.357-4.88.431-.381.863-.785 1.294-1.21.562.545 1.12 1.064 1.673 1.549 5.272 4.605 10.476 6.464 13.698 4.57 3.323-1.953 4.405-7.867 3.001-15.064a36.346 36.346 0 0 0-.371-1.683c.393-.115.778-.24 1.154-.365C57.376 35.764 62 31.897 62 27.944c.001-3.785-4.328-7.45-11.024-9.79zM34.31 7.545c4.58-4.046 8.857-5.643 10.806-4.502 2.075 1.214 2.883 6.12 1.581 12.545a39.15 39.15 0 0 1-.28 1.254 63.198 63.198 0 0 0-8.29-1.33c-1.703-2.464-3.47-4.7-5.241-6.64.478-.463.951-.91 1.424-1.327zM20.064 34.433a80.265 80.265 0 0 0 1.948 3.232 54.981 54.981 0 0 1-5.716-.931 60.615 60.615 0 0 1 2.008-5.558 82.096 82.096 0 0 0 1.76 3.257zM16.335 19.41a58.315 58.315 0 0 1 5.619-.984 80.956 80.956 0 0 0-3.648 6.429 59.027 59.027 0 0 1-1.97-5.445zm3.378 8.604c.8-1.69 1.682-3.39 2.633-5.072a77.46 77.46 0 0 1 3.006-4.859A73.9 73.9 0 0 1 31 17.868c1.92 0 3.813.072 5.657.214a83.829 83.829 0 0 1 2.988 4.845 92.127 92.127 0 0 1 2.673 5.048 81.456 81.456 0 0 1-2.664 5.098 91.347 91.347 0 0 1-2.977 4.871c-1.84.133-3.741.202-5.677.202-1.928 0-3.804-.06-5.614-.18a77.795 77.795 0 0 1-3.031-4.88 74.839 74.839 0 0 1-2.642-5.073zm22.233 6.404a84.775 84.775 0 0 0 1.802-3.335 56.98 56.98 0 0 1 2.08 5.537 55.141 55.141 0 0 1-5.784 1 91.991 91.991 0 0 0 1.902-3.202zm1.776-9.563a93.072 93.072 0 0 0-1.785-3.275 81.973 81.973 0 0 0-1.885-3.15 58.99 58.99 0 0 1 5.652 1.004 57.63 57.63 0 0 1-1.982 5.421zM31.03 10.794a57.597 57.597 0 0 1 3.649 4.473 73.87 73.87 0 0 0-7.326 0 58.377 58.377 0 0 1 3.677-4.472zM16.75 3.127c2.071-1.219 6.659.519 11.495 4.876.309.28.618.57.93.87-1.8 1.966-3.58 4.202-5.283 6.636-2.913.275-5.708.717-8.274 1.309-.16-.661-.304-1.309-.422-1.94-1.168-6.048-.395-10.605 1.554-11.751zm-3.027 32.951a34.991 34.991 0 0 1-1.53-.485c-3.022-1.051-5.517-2.411-7.23-3.901-1.539-1.335-2.317-2.666-2.317-3.743 0-2.291 3.37-5.214 8.984-7.201.68-.241 1.39-.468 2.13-.683.778 2.562 1.797 5.24 3.022 7.953-1.24 2.747-2.272 5.468-3.059 8.06zM28.08 48.334c-2.406 2.133-4.82 3.648-6.942 4.412-1.91.683-3.428.704-4.35.163-1.953-1.142-2.769-5.563-1.657-11.494.126-.679.28-1.378.452-2.09 2.542.57 5.348.983 8.354 1.227 1.717 2.45 3.513 4.703 5.323 6.678a34.54 34.54 0 0 1-1.18 1.104zm3.022-3.038a60.607 60.607 0 0 1-3.729-4.532 91.293 91.293 0 0 0 7.37-.013 56.756 56.756 0 0 1-3.641 4.545zm16.086 3.742c-.372 2.017-1.112 3.365-2.029 3.906-1.957 1.15-6.134-.343-10.64-4.283a39.857 39.857 0 0 1-1.56-1.442c1.75-1.94 3.496-4.193 5.199-6.7 2.997-.27 5.826-.707 8.396-1.312.127.519.237 1.026.334 1.523.622 3.179.71 6.059.3 8.308zm2.249-13.433c-.343.116-.69.228-1.045.331-.782-2.519-1.843-5.201-3.137-7.973 1.235-2.704 2.253-5.352 3.015-7.854.634.185 1.251.382 1.844.588 5.74 2.005 9.236 4.97 9.236 7.254 0 2.431-3.779 5.59-9.913 7.654zM31 33.571c3.057 0 5.539-2.515 5.539-5.623 0-3.103-2.482-5.618-5.539-5.618-3.057 0-5.539 2.515-5.539 5.618.002 3.108 2.483 5.623 5.539 5.623zm0-11.24c-3.057 0-5.539 2.514-5.539 5.617 0 3.108 2.482 5.623 5.539 5.623 3.057 0 5.539-2.515 5.539-5.623 0-3.103-2.482-5.618-5.539-5.618zm0 0c-3.057 0-5.539 2.514-5.539 5.617 0 3.108 2.482 5.623 5.539 5.623 3.057 0 5.539-2.515 5.539-5.623 0-3.103-2.482-5.618-5.539-5.618zm0 0c-3.057 0-5.539 2.514-5.539 5.617 0 3.108 2.482 5.623 5.539 5.623 3.057 0 5.539-2.515 5.539-5.623 0-3.103-2.482-5.618-5.539-5.618zm0 0c-3.057 0-5.539 2.514-5.539 5.617 0 3.108 2.482 5.623 5.539 5.623 3.057 0 5.539-2.515 5.539-5.623 0-3.103-2.482-5.618-5.539-5.618zm0 0c-3.057 0-5.539 2.514-5.539 5.617 0 3.108 2.482 5.623 5.539 5.623 3.057 0 5.539-2.515 5.539-5.623 0-3.103-2.482-5.618-5.539-5.618zm0 0c-3.057 0-5.539 2.514-5.539 5.617 0 3.108 2.482 5.623 5.539 5.623 3.057 0 5.539-2.515 5.539-5.623 0-3.103-2.482-5.618-5.539-5.618z"/>
  </svg>