<svg xmlns="http://www.w3.org/2000/svg" viewBox="0 0 53 53">
    <path xmlns="http://www.w3.org/2000/svg" d="M26.376 0c-2.202.01-4.303.196-6.153.52-5.45.954-6.44 2.95-6.44 6.63v4.86h12.878v1.62H8.951c-3.743 0-7.02 2.228-8.045 6.467-1.182 4.859-1.234 7.89 0 12.962.916 3.776 3.102 6.466 6.845 6.466h4.427v-5.827c0-4.21 3.678-7.923 8.045-7.923h12.863c3.58 0 6.44-2.92 6.44-6.481V7.149c0-3.456-2.945-6.053-6.44-6.63A40.644 40.644 0 0 0 26.376 0zm-6.963 3.91c1.33 0 2.417 1.093 2.417 2.438a2.421 2.421 0 0 1-2.417 2.422 2.419 2.419 0 0 1-2.417-2.422 2.428 2.428 0 0 1 2.417-2.438z"/>
    <path xmlns="http://www.w3.org/2000/svg" d="M40.766 13.475v5.62c0 4.357-3.75 8.025-8.028 8.025H19.9c-3.517 0-6.426 2.963-6.426 6.432v12.051c0 3.43 3.028 5.448 6.426 6.432 4.068 1.178 7.968 1.391 12.837 0 3.235-.923 6.426-2.78 6.426-6.432V40.78H26.327v-1.608h19.262c3.735 0 5.127-2.566 6.426-6.417 1.342-3.964 1.285-7.777 0-12.863-.923-3.662-2.686-6.416-6.426-6.416h-4.823v-.001zm-7.22 30.52a2.407 2.407 0 0 1 2.412 2.404 2.416 2.416 0 0 1-2.412 2.419 2.42 2.42 0 0 1-2.412-2.42 2.411 2.411 0 0 1 2.412-2.403z"/>
  </svg>