<svg xmlns="http://www.w3.org/2000/svg" viewBox="0 0 22 13">
    <path xmlns="http://www.w3.org/2000/svg" d="M11.81 12.22s.389-.042.587-.256c.183-.196.177-.565.177-.565s-.025-1.725.776-1.979c.789-.25 1.803 1.668 2.877 2.405.813.558 1.43.436 1.43.436l2.873-.04s1.502-.093.79-1.274c-.059-.097-.415-.875-2.136-2.472-1.801-1.672-1.56-1.401.61-4.293 1.321-1.762 1.85-2.837 1.684-3.298C21.321.446 20.35.562 20.35.562l-3.234.02s-.24-.033-.418.073c-.174.105-.286.348-.286.348s-.512 1.363-1.194 2.522C13.777 5.97 13.2 6.1 12.965 5.948c-.548-.354-.41-1.422-.41-2.18 0-2.371.359-3.36-.7-3.615-.352-.085-.611-.141-1.51-.15C9.19-.01 8.214.006 7.66.277c-.368.18-.652.582-.48.605.214.029.699.13.955.48.332.451.32 1.464.32 1.464s.19 2.79-.445 3.137c-.436.237-1.034-.248-2.318-2.467-.658-1.136-1.155-2.393-1.155-2.393s-.095-.235-.266-.36c-.208-.152-.497-.2-.497-.2L.7.562S.24.574.071.775c-.151.178-.013.547-.013.547S2.465 6.953 5.19 9.79c2.499 2.602 5.336 2.43 5.336 2.43h1.286z"/>
  </svg>