<svg xmlns="http://www.w3.org/2000/svg" viewBox="0 0 79 79">
    <circle xmlns="http://www.w3.org/2000/svg" opacity=".16" cx="39.5" cy="39.5" r="39.5"/>
    <path xmlns="http://www.w3.org/2000/svg" d="M42.69 29.5c-.86-.15-1.75-.22-2.74-.22-.87.01-1.74.08-2.51.22-2.08.36-2.43 1.05-2.43 2.47v2.04h5.34v.93h-7.63c-1.53 0-2.7.95-3.07 2.47-.49 2.01-.49 3.23 0 5.25.27 1.12.94 2.46 2.57 2.46h1.55v-2.13c0-1.94 1.66-3.57 3.62-3.57h5.34a2.4 2.4 0 0 0 2.39-2.41v-5.04c0-1.36-1.22-2.27-2.43-2.47zm-5.63 3.42c-.71 0-1.29-.57-1.29-1.28 0-.72.58-1.3 1.29-1.3.71 0 1.29.58 1.29 1.3 0 .71-.58 1.28-1.29 1.28z" fill-rule="nonzero"/>
    <path xmlns="http://www.w3.org/2000/svg" d="M50.32 37.33c-.42-1.67-1.19-2.45-2.4-2.45h-1.71v2.05c0 1.96-1.66 3.61-3.62 3.61h-5.33c-1.29 0-2.38 1.09-2.38 2.39v5c0 1.46 1.54 2.13 2.46 2.4.92.26 1.73.39 2.57.39.83 0 1.68-.13 2.6-.39 1.63-.47 2.46-1.27 2.46-2.4V45.9h-5.33v-.92h8.28c1.33 0 1.85-.84 2.4-2.47.53-1.57.53-3.07 0-5.18zm-7.4 9.42c.71 0 1.29.57 1.29 1.28 0 .71-.58 1.29-1.29 1.29-.7 0-1.28-.58-1.28-1.29 0-.71.58-1.28 1.28-1.28z" fill-rule="nonzero"/>
  </svg>