<svg xmlns="http://www.w3.org/2000/svg" viewBox="0 0 115 31">
    <path xmlns="http://www.w3.org/2000/svg" d="M88.2578691,21.9688281 C88.0115936,24.5753399 93.400438,25.0734755 94.1213972,25.3024669 C94.8491169,25.5326751 95.1122936,26.3442443 94.1605115,26.540627 C91.3995709,27.1115239 87.4514378,25.9137598 86.4880662,25.0576578 L84.8172565,28.9103602 C85.7463426,30.3001267 105.844349,34.1920082 106.612149,25.5891321 C106.89778,22.3886052 101.403424,22.3129237 100.088264,22.1997664 C98.9824395,22.1043735 98.9013135,20.9883747 100.170356,20.86378 C102.471583,20.6423323 105.655779,21.0986118 106.682893,22.0235816 L108.450764,17.9387242 C106.969007,16.1698199 89.0232544,13.9645907 88.2578691,21.9688281 Z M76.0095298,25.8738505 L76.5897257,24.5814236 L85.3259843,24.5814236 L86.5824718,21.3130024 L77.7667774,21.3130024 L78.4283408,19.9821263 L87.0561898,19.9821263 L88.5285306,16.305852 L69.4581206,16.305852 L63.9468629,30.4466228 L82.883753,30.4466228 L84.8172565,25.8738505 L76.0095298,25.8738505 Z M65.2026261,16.305852 C62.7041378,22.9675326 44.2696978,22.8524285 45.7034071,17.5985222 L43.9732015,17.5985222 L38.8830265,30.4356721 L47.8100278,30.4356721 L50.119705,25.2080475 L52.1852797,30.4356721 L61.6511896,30.4356721 L67.5801497,16.305852 L65.2026261,16.305852 Z M32.0616801,16.305852 L26.3488146,30.4356721 L36.8010334,30.4356721 L42.7570355,16.305852 L32.0616801,16.305852 Z M20.1895145,16.2944146 L18.0838596,21.0837675 L13.9360503,21.0837675 L15.9900356,16.2944146 L5.72566219,16.2944146 L0,30.4356721 L10.0596268,30.4356721 L11.7630318,26.5265127 L15.7336194,26.5265127 L14.0437354,30.4356721 L24.2673044,30.4356721 L29.997554,16.2944146 L20.1895145,16.2944146 Z M113.473575,4.7479882 L115,0.828364818 L96.2548184,0.828364818 L90.6747485,14.9869001 L109.367536,14.9720558 L111.069493,10.6173243 L102.667879,10.629005 L103.373627,9.32319396 L111.555524,9.32319396 L113.013137,5.84987276 L104.572892,5.84987276 L105.101177,4.7479882 L113.473575,4.7479882 Z M88.8011237,13.9645907 L90.9591724,9.33487471 C75.1731591,13.1902539 79.9661135,2.30719708 92.1507109,6.23120075 L94.2015574,1.82244575 C72.050773,-7.37809568 58.3303345,21.6422536 88.8011237,13.9645907 Z M35.7343228,6.35555212 L35.7343228,9.1036931 L33.2363173,9.1036931 L35.7343228,6.35555212 Z M28.8202609,14.9720558 L30.3334061,13.227973 L35.5201597,13.2440341 L35.5319906,14.9720558 L49.8608743,14.9720558 C49.8608743,14.9720558 48.0239494,13.8283152 48.0381947,12.6845746 C48.0946932,7.99621151 63.2454608,7.64943909 64.7866138,9.3774608 L63.1638519,12.6989322 C61.8397593,12.221238 59.893942,11.7328364 58.4249815,11.7328364 C54.8749937,11.7328364 54.278138,13.8548402 57.6965374,13.6781688 L56.8985568,15.6388322 C56.8985568,15.6388322 56.7638296,15.651243 55.8842401,15.651243 C52.3921994,15.651243 51.5145414,17.4887718 56.0484237,17.5985222 C58.8182979,17.6669033 59.1966445,15.9778175 57.9394326,15.6388322 L58.856205,13.6781688 L68.1914923,13.6647846 L73.2268589,0.842722413 L64.7030733,0.842722413 L62.3122701,6.27330013 L60.1259721,0.842722413 L50.6586136,0.842722413 L45.9999034,11.9365196 L45.0676785,0.842722413 L31.6432534,0.842722413 L19.6902032,14.9720558 L28.8202609,14.9720558 Z M17.1518761,14.9720558 L29.2104385,0.828364818 L19.9739028,0.828364818 L13.58547,8.66931502 L13.2484107,0.842722413 L3.33461755,0.842722413 L3.76825545,14.9720558 L17.1518761,14.9720558 Z" id="Fill-1"/>
  </svg>