<svg xmlns="http://www.w3.org/2000/svg" viewBox="0 0 67 67">
    <circle xmlns="http://www.w3.org/2000/svg" opacity=".16" cx="33.5" cy="33.5" r="33.5"/>
    <path xmlns="http://www.w3.org/2000/svg" d="M33.879 35.528c-2.588 0-4.867-1.694-6.195-4.262H40.07c-1.325 2.568-3.6 4.262-6.191 4.262M33.456 20c-4.798 0-8.685 3.88-8.685 8.666 0 4.787 3.887 8.667 8.685 8.667 4.799 0 8.687-3.88 8.687-8.667S38.255 20 33.456 20M24.392 32.928c-.67.76-1.522 1.224-2.461 1.224-1.353 0-2.543-.954-3.235-2.397h5.368a11.211 11.211 0 0 1 .162-5.52 4.287 4.287 0 0 0-2.516-.818c-2.505 0-4.539 2.182-4.539 4.873 0 2.694 2.034 4.877 4.539 4.877 1.181 0 2.254-.488 3.061-1.284-.14-.309-.267-.627-.379-.955M46.29 25.417c-.93 0-1.797.303-2.517.82a11.192 11.192 0 0 1 .16 5.516h5.813c-.692 1.444-1.879 2.398-3.233 2.398-1.093 0-2.074-.63-2.778-1.63-.14.468-.308.923-.506 1.359.805.796 1.88 1.287 3.06 1.287 2.509 0 4.54-2.185 4.54-4.876 0-2.692-2.031-4.874-4.54-4.874M39.245 38.417a10.985 10.985 0 0 1-5.246 1.327c-1.896 0-3.681-.481-5.245-1.327-3.378.896-6.024 3.018-7.24 7.583h24.972c-1.215-4.565-3.86-6.688-7.241-7.583M26.943 36.96c-.703-.939-1.613-1.49-2.66-1.793a5.385 5.385 0 0 1-2.748.76 5.37 5.37 0 0 1-2.745-.76c-1.77.513-3.156 1.724-3.79 4.333h7.838c1.149-1.122 2.517-1.97 4.105-2.54"/>
    <path xmlns="http://www.w3.org/2000/svg" d="M45.16 39.5H53c-.635-2.609-2.022-3.821-3.792-4.333-.817.483-1.751.76-2.747.76a5.37 5.37 0 0 1-2.745-.76c-1.045.303-1.957.856-2.659 1.794 1.586.57 2.953 1.42 4.104 2.539"/>
  </svg>