<svg xmlns="http://www.w3.org/2000/svg" viewBox="0 0 132 30">
    <path xmlns="http://www.w3.org/2000/svg" d="M14.8146473,0 C6.63508127,0 0,6.7168 0,14.999 C0,23.2822 6.63508127,30 14.8146473,30 C22.9995473,30 29.6326531,23.2822 29.6326531,14.999 C29.6328506,6.7168 22.9995473,0 14.8146473,0 M14.8146473,29.3604 C6.98238291,29.3604 0.632175909,22.93 0.632175909,14.999 C0.632175909,7.0694 6.98238291,0.6396 14.8146473,0.6396 C22.6522457,0.6396 29.0022551,7.0692 29.0022551,14.999 C29.0024527,22.9298 22.6524433,29.3604 14.8146473,29.3604" id="Shape"/>
    <polyline xmlns="http://www.w3.org/2000/svg" id="Shape" points="14.3673469 15.0001908 14.3673469 15.9081368 15.2658499 16.3636364 16.1632653 15.9081368 16.1632653 15.0001908 15.2658499 14.5454545"/>
    <path xmlns="http://www.w3.org/2000/svg" d="M10.2198615,16.6306385 C9.89157192,16.8593555 9.7812529,17.3685701 9.96873807,17.7653999 C10.1594623,18.1622297 10.5776838,18.3006209 10.9023533,18.0702785 L12.5714286,16.8958109 L12.5714286,15.9351995 L11.8895084,15.4545455" id="Shape"/>
    <path xmlns="http://www.w3.org/2000/svg" d="M16.1632653,12.2494165 L16.1632653,9.91661144 C16.1632653,9.46065408 15.7628376,9.09090909 15.2673083,9.09090909 C14.7720292,9.09090909 14.3673469,9.46065408 14.3673469,9.91661144 L14.3673469,12.2494165 L15.2673083,12.7272727" id="Shape"/>
    <path xmlns="http://www.w3.org/2000/svg" d="M15.2634312,2.72727273 C8.32174724,2.72727273 2.69387755,8.4262603 2.69387755,15.4550449 C2.69387755,22.4848285 8.32174724,28.1818182 15.2634312,28.1818182 C22.2086677,28.1818182 27.8367347,22.4846287 27.8367347,15.4550449 C27.8369321,8.4262603 22.2086677,2.72727273 15.2634312,2.72727273 M25.3563354,21.5939684 L22.247942,21.0057889 C22.2104439,20.9991958 22.1733405,20.9852106 22.1386054,20.9656313 C22.032624,20.904296 21.971443,20.7944119 21.9621671,20.6819306 C21.9333528,20.3307011 21.7419152,19.9982518 21.4178529,19.8110493 C21.1291177,19.6402296 20.797161,19.6216492 20.5072416,19.7239412 L20.5072416,19.7259391 C19.7665559,19.9874632 18.9234412,19.9347189 18.1904524,19.5053718 L17.268789,18.968738 L17.268789,25.0930768 L15.972737,25.0930768 L15.972737,18.2099385 L15.2634312,17.7963748 L14.5564937,18.2119364 L14.5564937,25.0932766 L13.2598496,25.0932766 L13.2598496,18.9689378 L12.3387784,19.5055716 C11.6067764,19.9347189 10.7636617,19.9874632 10.023568,19.7261389 L10.023568,19.724141 C9.73404333,19.6216492 9.40109986,19.6402296 9.112562,19.8112491 C8.78672342,19.9986514 8.59548322,20.3311007 8.56805041,20.6821304 C8.55897193,20.7946117 8.49621199,20.9044958 8.39121736,20.965831 C8.35746909,20.9856102 8.31898422,20.9993956 8.28326236,21.0059887 L5.17368477,21.5941682 C5.08349202,21.6147464 4.98658909,21.5735899 4.94099932,21.4898782 C4.89225181,21.404768 4.90527746,21.3006778 4.96645854,21.2323499 L7.02332689,18.8001159 C7.04839139,18.7701475 7.07917929,18.7447743 7.11292756,18.7239962 C7.21792219,18.6626609 7.34186321,18.6626609 7.44488425,18.7122086 C7.75848661,18.8636489 8.1391908,18.8596531 8.46246371,18.6712518 C8.75119893,18.5026297 8.93651838,18.2205273 8.99059456,17.9134513 C9.13506085,17.1340736 9.60201062,16.420826 10.3363809,15.9936767 L11.2566627,15.4552447 L6.01857571,12.3932751 L6.66847664,11.2558751 L12.5537016,14.6970446 L13.260047,14.2838805 L13.260047,13.4571527 L7.3736379,10.0153838 L8.0241309,8.87898267 L13.260047,11.9407525 L13.260047,10.8636888 C13.260047,10.006593 13.6383829,9.24040138 14.2340103,8.72434582 C14.4670904,8.52135997 14.6151092,8.21947845 14.6151092,7.88203445 C14.6151092,7.50263472 14.4278161,7.1693863 14.1410545,6.96899771 C14.0490855,6.90406621 13.9863256,6.79478151 13.9863256,6.6725105 C13.9863256,6.63255266 13.9942199,6.59439292 14.0060614,6.55543402 L15.0593627,3.53561992 C15.0871902,3.44831203 15.1677124,3.385778 15.2636286,3.385778 C15.361913,3.385778 15.4444088,3.44831203 15.4732231,3.53561992 L16.5245508,6.55543402 C16.5369844,6.59439292 16.5409316,6.63255266 16.5409316,6.6725105 C16.5409316,6.79478151 16.4825135,6.904266 16.3895578,6.96899771 C16.1029935,7.1693863 15.9155031,7.50263472 15.9155031,7.88203445 C15.9155031,8.21947845 16.0611535,8.52135997 16.2981809,8.72434582 C16.8922294,9.24040138 17.2689864,10.006593 17.2689864,10.8636888 L17.2689864,11.9407525 L22.5088496,8.87898267 L23.1569743,10.0153838 L17.268789,13.4571527 L17.268789,14.2838805 L17.977108,14.6970446 L23.8637145,11.2558751 L24.512826,12.3932751 L19.2729627,15.4550449 L20.194034,15.9934769 C20.9280096,16.420826 21.394762,17.1338738 21.5380441,17.9132515 C21.5958701,18.2203276 21.779808,18.5024299 22.0665697,18.671052 C22.3918162,18.8594533 22.7719283,18.8634491 23.0863201,18.7120088 C23.1893411,18.6624611 23.3107165,18.6624611 23.4166979,18.7237964 C23.451433,18.7445745 23.4812341,18.7697479 23.5076801,18.7999161 L25.563759,21.2321501 C25.6253348,21.300478 25.6383604,21.4045682 25.5915865,21.4896784 C25.542839,21.5735899 25.4475149,21.6145467 25.3563354,21.5939684" id="Shape"/>
    <path xmlns="http://www.w3.org/2000/svg" d="M19.4123814,16.6304508 L17.7438738,15.4545455 L17.0612245,15.9366109 L17.0612245,16.8958654 L18.7301133,18.0703775 C19.0558105,18.3004964 19.4737474,18.1623321 19.6639439,17.7654873 C19.8520441,17.3684103 19.7397939,16.8594086 19.4123814,16.6304508" id="Shape"/>
    <polyline xmlns="http://www.w3.org/2000/svg" id="Shape" points="110.51966 12.4831958 105.790182 12.4831958 105.790182 2.72727273 101.469388 2.72727273 101.469388 28.1818182 105.790182 28.1818182 105.790182 17.0035976 110.51966 17.0035976 110.51966 28.1818182 114.938776 28.1818182 114.938776 2.72727273 110.51966 2.72727273"/>
    <polyline xmlns="http://www.w3.org/2000/svg" id="Shape" points="43.3575178 2.72727273 39.9370534 12.6441706 36.8421309 2.72727273 32.3265306 2.72727273 37.353608 18.3363938 37.353608 28.1818182 42.3792377 28.1818182 42.3792377 17.8273233 47.5918367 2.72727273"/>
    <polyline xmlns="http://www.w3.org/2000/svg" id="Shape" points="72.7583985 14.8365862 70.3931801 2.72727273 63.755102 2.72727273 63.755102 28.1818182 67.5612521 28.1818182 67.5612521 8.99402522 70.8126746 25.6741397 74.3675942 25.6741397 77.2515947 8.72378895 77.2515947 28.1818182 81.7142857 28.1818182 81.7142857 2.72727273 74.7973867 2.72727273"/>
    <path xmlns="http://www.w3.org/2000/svg" d="M127.926962,2.72727273 L121.246343,2.72727273 L116.734694,28.1818182 L120.73588,28.1818182 L121.693046,22.257866 L126.66719,22.257866 L127.595339,28.1818182 L132,28.1818182 L127.926962,2.72727273 Z M122.379782,18.0132358 L124.217919,6.63164019 L126.001971,18.0132358 L122.379782,18.0132358 Z" id="Shape"/>
    <path xmlns="http://www.w3.org/2000/svg" d="M88.0207537,2.72727273 L83.5102041,28.1818182 L87.5107848,28.1818182 L88.4691235,22.257866 L93.4424556,22.257866 L94.3729564,28.1818182 L98.7755102,28.1818182 L94.704446,2.72727273 L88.0207537,2.72727273 Z M89.1526359,18.0132358 L90.9927095,6.63164019 L92.7780943,18.0132358 L89.1526359,18.0132358 Z" id="Shape"/>
    <path xmlns="http://www.w3.org/2000/svg" d="M50.3051084,2.72727273 L45.7959184,28.1818182 L49.7949619,28.1818182 L50.7526712,22.257866 L55.7273897,22.257866 L56.6566698,28.1818182 L61.0612245,28.1818182 L56.988344,2.72727273 L50.3051084,2.72727273 Z M51.4381312,18.0132358 L53.2773438,6.63164019 L55.0626593,18.0132358 L51.4381312,18.0132358 Z" id="Shape"/>
  </svg>