<svg xmlns="http://www.w3.org/2000/svg" viewBox="0 0 33 33">
    <path xmlns="http://www.w3.org/2000/svg" stroke="null" id="svg_1" fill-rule="evenodd" clip-rule="evenodd" fill="#3A589B" d="m14.176376,25.589126l3.712408,0l0,-8.984864l2.47659,0l0.328083,-3.095875l-2.804674,0l0.003853,-1.550139c0,-0.806997 0.077067,-1.240222 1.235267,-1.240222l1.547938,0l0,-3.096426l-2.477141,0c-2.975321,0 -4.022326,1.502248 -4.022326,4.02783l0,1.858956l-1.854553,0l0,3.096426l1.854553,0l0,8.984313zm2.331264,7.530507c-9.120281,0 -16.51427,-7.393989 -16.51427,-16.51427c0,-9.120831 7.393989,-16.51427 16.51427,-16.51427s16.51427,7.393439 16.51427,16.51427c0,9.120281 -7.393989,16.51427 -16.51427,16.51427z"/>
  </svg>