<svg width="56" height="21" viewBox="0 0 56 21" fill="none" xmlns="http://www.w3.org/2000/svg">
<path d="M37.0495 15.2303C37.1648 15.6406 37.2824 16.0304 37.4034 16.3928C37.6668 17.1803 37.9387 17.8318 38.2308 18.3322C38.3524 18.5393 38.4745 18.7131 38.594 18.8544C38.8121 19.1129 39.1463 19.5022 39.3517 19.642C39.8092 19.9534 40.1145 20.1321 40.467 20.1719C40.5688 20.1834 40.6698 20.166 40.7663 20.1317C44.6003 18.7699 48.6971 11.5022 55.0359 0.180664L47.1048 0.206177C43.0116 0.450792 41.1037 2.53215 40.1415 5.61243C39.8431 6.56675 39.5655 7.46154 39.3054 8.30025C38.3904 11.25 37.6876 13.5123 37.0495 15.2303Z" fill="#F75050"/>
<path d="M16.5293 0.635563C12.2991 0.635563 8.02095 8.21528 0.964111 20.8194L8.89516 20.7938C12.9883 20.5492 14.8962 18.4679 15.8584 15.3876C16.1564 14.4347 16.4336 13.5412 16.6934 12.7035C17.8997 8.81491 18.7382 6.11736 19.5449 4.2901C20.8925 1.23769 25.1488 0.631996 26.8468 0.630249L16.5293 0.635563Z" fill="#F75050"/>
<path d="M37.1126 18.8374C36.7711 18.2527 36.4736 17.5288 36.1997 16.7099C35.7468 15.3533 35.3446 13.645 34.9486 11.9628C34.8345 11.4782 34.7192 10.99 34.6009 10.5006C33.7059 6.79792 32.6337 3.09536 30.5459 1.47687L30.5304 1.46481C30.1301 1.15447 30.0051 1.05748 29.4902 1.08249L28.4321 1.13386C26.3381 1.3861 24.6395 1.79988 23.7417 2.21139C22.8438 2.6229 21.6211 3.24958 21.1798 4.24929C21.1366 4.34701 21.1021 4.42449 21.0718 4.4925C21.0002 4.65318 20.9522 4.76099 20.8695 4.95812C20.9771 5.35374 21.1398 5.89445 21.3136 6.47198C21.5854 7.37541 21.8843 8.36906 22.0419 9.0383C22.1558 9.52198 22.2712 10.0121 22.3892 10.5006C23.5822 15.4358 25.09 20.3697 28.8978 20.3697L38.6385 20.3657L38.4642 20.28C38.0254 20.0167 37.8778 19.8588 37.5744 19.4991C37.4114 19.3063 37.2577 19.0847 37.1126 18.8374Z" fill="#F75050"/>
</svg>
