<svg width="50" height="27" viewBox="0 0 50 27" fill="none" xmlns="http://www.w3.org/2000/svg">
<path d="M36.871 9.75845C37.9519 9.75845 38.6661 9.95148 39.0328 10.3568C39.3996 10.7622 39.4768 11.4378 39.2838 12.4029C39.0907 13.4066 38.7047 14.1401 38.1449 14.5647C37.5851 14.9894 36.7358 15.2017 35.597 15.2017H33.8791L34.9407 9.75845H36.871Z" fill="#F75050"/>
<path d="M14.7311 9.75845C15.8121 9.75845 16.5263 9.95148 16.893 10.3568C17.2598 10.7622 17.337 11.4378 17.1439 12.4029C16.9509 13.4066 16.5649 14.1401 16.0051 14.5647C15.4453 14.9894 14.596 15.2017 13.4572 15.2017H11.7393L12.8009 9.75845H14.7311Z" fill="#F75050"/>
<path fill-rule="evenodd" clip-rule="evenodd" d="M25 25.4706C38.1123 25.4706 48.7419 20.0866 48.7419 13.4452C48.7419 6.80377 38.1123 1.41983 25 1.41983C11.8877 1.41983 1.25809 6.80377 1.25809 13.4452C1.25809 20.0866 11.8877 25.4706 25 25.4706ZM32.7982 20.7222H29.9607L32.4893 7.6931H37.9519C39.5926 7.6931 40.7893 8.11775 41.5421 8.98636C42.2949 9.85497 42.5266 11.0517 42.2177 12.5959C42.1019 13.2329 41.8896 13.812 41.6 14.3331C41.3105 14.8543 40.9245 15.3368 40.4419 15.7808C39.8628 16.3213 39.2451 16.688 38.5503 16.9196C37.8554 17.1513 36.9868 17.2671 35.9058 17.2671H33.4737L32.7982 20.7222ZM22.1626 4.23798H24.9807L24.3051 7.6931H26.8144C28.3972 7.6931 29.4781 7.96333 30.0765 8.5231C30.6749 9.08287 30.8486 9.97078 30.617 11.2061L29.4395 17.2671H26.5828L27.7023 11.4957C27.8374 10.8394 27.7795 10.3954 27.5672 10.1638C27.3549 9.93217 26.8723 9.79706 26.1581 9.79706H23.8998L22.4521 17.2671H19.6339L22.1626 4.23798ZM10.6583 20.7222H7.82089L10.3495 7.6931H15.8121C17.4528 7.6931 18.6495 8.11775 19.4023 8.98636C20.1551 9.85497 20.3867 11.0517 20.0779 12.5959C19.9621 13.2329 19.7498 13.812 19.4602 14.3331C19.1707 14.8543 18.7846 15.3368 18.3021 15.7808C17.723 16.3213 17.1053 16.688 16.4104 16.9196C15.7156 17.1513 14.847 17.2671 13.766 17.2671H11.3339L10.6583 20.7222Z" fill="#F75050"/>
<path fill-rule="evenodd" clip-rule="evenodd" d="M49.707 13.4452C49.707 20.6197 38.6453 26.4357 25 26.4357C11.3547 26.4357 0.292969 20.6197 0.292969 13.4452C0.292969 6.27075 11.3547 0.454712 25 0.454712C38.6453 0.454712 49.707 6.27075 49.707 13.4452ZM49.3117 13.4452C49.3117 16.8124 46.7086 19.9559 42.2865 22.281C37.8828 24.5964 31.7717 26.0404 25 26.0404C18.2283 26.0404 12.1172 24.5964 7.71346 22.281C3.29137 19.9559 0.688281 16.8124 0.688281 13.4452C0.688281 10.078 3.29137 6.93449 7.71346 4.60944C12.1172 2.29403 18.2283 0.850024 25 0.850024C31.7717 0.850024 37.8828 2.29403 42.2865 4.60944C46.7086 6.93449 49.3117 10.078 49.3117 13.4452Z" fill="#F75050"/>
</svg>
