<svg width="46" height="47" viewBox="0 0 46 47" fill="none" xmlns="http://www.w3.org/2000/svg">
<path fill-rule="evenodd" clip-rule="evenodd" d="M23.75 0.75V5.51537C33.0946 5.89838 40.6016 13.4054 40.9846 22.75H45.75V24.25H40.9846C40.6017 33.5946 33.0946 41.1017 23.75 41.4847V46.25H22.25V41.4847C12.9054 41.1017 5.3983 33.5946 5.01532 24.25H0.25V22.75H5.01532C5.39833 13.4054 12.9054 5.89836 22.25 5.51537V0.75H23.75ZM8.23652 17.5123C7.8778 17.7194 7.7549 18.1781 7.962 18.5368C8.16911 18.8955 8.6278 19.0184 8.98652 18.8113C11.924 17.1154 15.7292 17.9637 17.9465 20.7459C17.1486 21.9393 16.7342 23.433 16.7334 25.029C15.3332 24.4948 14.1245 23.5178 13.3442 22.1663C13.1371 21.8075 12.6784 21.6846 12.3197 21.8917C11.961 22.0989 11.8381 22.5575 12.0452 22.9163C13.1398 24.8123 14.8902 26.0869 16.8725 26.6565C17.039 27.6362 17.3563 28.6289 17.8307 29.5926L15.4773 30.9513C15.1186 31.1584 14.9957 31.6171 15.2028 31.9758C15.4099 32.3345 15.8686 32.4574 16.2273 32.2503L18.5807 30.8916C19.178 31.7843 19.8791 32.5554 20.6443 33.1895C20.1464 35.1909 20.375 37.3441 21.4697 39.2401C21.6768 39.5988 22.1355 39.7217 22.4942 39.5146C22.853 39.3075 22.9759 38.8488 22.7688 38.4901C21.9884 37.1386 21.7467 35.6033 21.9842 34.1236C24.0103 35.2921 26.2901 35.5813 28.237 34.7621C28.1962 34.7195 28.1598 34.6713 28.129 34.618L23.2158 26.1081C21.1603 27.0847 18.8956 27.2378 16.8725 26.6565C16.7792 26.1075 16.7332 25.5625 16.7334 25.029C18.7064 25.7817 21.0595 25.6555 23.1303 24.46C25.2012 23.2644 26.487 21.2895 26.8216 19.2045C27.2838 19.4711 27.7327 19.7834 28.1615 20.1387C27.6534 22.1815 26.3884 24.0663 24.5148 25.3581L29.428 33.868C29.4588 33.9214 29.4823 33.9769 29.4989 34.0336C31.1818 32.7572 32.0713 30.6382 32.0724 28.2992C33.4726 28.8334 34.6813 29.8104 35.4616 31.1619C35.6687 31.5206 36.1274 31.6435 36.4861 31.4364C36.8448 31.2293 36.9677 30.7706 36.7606 30.4119C35.666 28.5159 33.9156 27.2413 31.9334 26.6717C31.7669 25.692 31.4496 24.6993 30.9752 23.7357L32.9399 22.6013C33.2986 22.3942 33.4215 21.9355 33.2144 21.5768C33.0073 21.2181 32.5486 21.0952 32.1899 21.3023L30.2252 22.4366C29.6279 21.5439 28.9268 20.7728 28.1615 20.1387C28.6594 18.1372 28.4307 15.9841 27.3361 14.0881C27.129 13.7293 26.6703 13.6064 26.3116 13.8135C25.9528 14.0206 25.8299 14.4793 26.037 14.8381C26.8174 16.1896 27.059 17.7248 26.8216 19.2045C25.439 18.4071 23.9383 18.0192 22.5058 18.1135C21.205 14.8022 22.3729 11.0827 25.3104 9.38673C25.6691 9.17963 25.792 8.72094 25.5849 8.36222C25.3778 8.0035 24.9191 7.88059 24.5604 8.0877C20.9951 10.1461 19.6271 14.5231 21.0124 18.4002C20.6349 18.5241 20.2678 18.6871 19.915 18.8908C19.5622 19.0945 19.2375 19.3309 18.9414 19.5959C16.2764 16.4576 11.8018 15.4539 8.23652 17.5123Z" fill="#F75050"/>
</svg>
