<svg width="38" height="39" viewBox="0 0 38 39" fill="none" xmlns="http://www.w3.org/2000/svg">
<path fill-rule="evenodd" clip-rule="evenodd" d="M5.75 0.75H0.25V6.25H2.25V32.75H0.25V38.25H5.75V36.25H32.25V38.25H37.75V32.75H35.75V6.25H37.75V0.75H32.25V2.75H5.75V0.75ZM1.75 4.75V2.25H4.25V4.75H1.75ZM36.25 4.75H33.75V2.25H36.25V4.75ZM1.75 36.75V34.25H4.25V36.75H1.75ZM12.0622 8.72419C12.3611 8.42527 12.8457 8.42527 13.1447 8.72419L13.8089 9.38846C13.9584 9.53792 13.9584 9.78025 13.8089 9.92971L11.8899 11.8487C11.7405 11.9982 11.7405 12.2405 11.8899 12.3899L12.3328 12.8328C12.4822 12.9823 12.7246 12.9823 12.874 12.8328L14.793 10.9138C14.9425 10.7643 15.1848 10.7643 15.3343 10.9138L15.7771 11.3566C15.9266 11.5061 15.9266 11.7484 15.7771 11.8979L13.8581 13.8169C13.7087 13.9663 13.7087 14.2087 13.8581 14.3581L14.301 14.801C14.4504 14.9504 14.6927 14.9504 14.8422 14.801L16.7612 12.882C16.9107 12.7325 17.153 12.7325 17.3024 12.882L17.7453 13.3248C17.8947 13.4743 17.8947 13.7166 17.7453 13.8661L13.3661 18.2453C13.2166 18.3948 12.9743 18.3948 12.8248 18.2453L8.22419 13.6447C7.92527 13.3457 7.92527 12.8611 8.22419 12.5622L12.0622 8.72419ZM33.75 36.75V34.25H36.25V36.75H33.75ZM29.7758 26.4378C30.0747 26.1389 30.0747 25.6543 29.7758 25.3553L29.1115 24.6911C28.9621 24.5416 28.7197 24.5416 28.5703 24.6911L26.6513 26.6101C26.5018 26.7595 26.2595 26.7595 26.1101 26.6101L25.6672 26.1672C25.5177 26.0177 25.5177 25.7754 25.6672 25.626L27.5862 23.707C27.7356 23.5575 27.7356 23.3152 27.5862 23.1657L27.1433 22.7229C26.9939 22.5734 26.7516 22.5734 26.6021 22.7229L24.6831 24.6419C24.5337 24.7913 24.2913 24.7913 24.1419 24.6419L23.699 24.199C23.5496 24.0496 23.5496 23.8072 23.699 23.6578L25.618 21.7388C25.7675 21.5893 25.7675 21.347 25.618 21.1975L25.1752 20.7547C25.0257 20.6052 24.7834 20.6052 24.6339 20.7547L20.2547 25.1339C20.1052 25.2834 20.1052 25.5257 20.2547 25.6752L24.8553 30.2758C25.1543 30.5747 25.6389 30.5747 25.9378 30.2758L29.7758 26.4378ZM15.3835 27.4958C15.5329 27.6453 15.7753 27.6453 15.9247 27.4958L26.1101 17.3104C26.2595 17.161 26.2595 16.9186 26.1101 16.7692L21.7309 12.3899C21.5814 12.2405 21.3391 12.2405 21.1896 12.3899L11.0043 22.5753C10.8548 22.7248 10.8548 22.9671 11.0043 23.1166L15.3835 27.4958ZM14.299 28.8404C14.4616 28.801 14.5184 28.5989 14.4001 28.4806L10.0195 24.1C9.90117 23.9817 9.69902 24.0384 9.65961 24.201L8.32288 29.7151C8.25537 29.9935 8.50654 30.2447 8.78499 30.1772L14.299 28.8404ZM25.9378 8.7242L29.7758 12.5622C30.0747 12.8611 30.0747 13.3457 29.7758 13.6447L27.6354 15.7851C27.4859 15.9345 27.2436 15.9345 27.0942 15.7851L22.7149 11.4059C22.5655 11.2564 22.5655 11.0141 22.7149 10.8646L24.8553 8.7242C25.1543 8.42528 25.6389 8.42528 25.9378 8.7242Z" fill="#F75050"/>
</svg>
