<?xml version="1.0" encoding="UTF-8"?>
<svg width="1440px" height="545px" viewBox="0 0 1440 545" version="1.1" xmlns="http://www.w3.org/2000/svg" xmlns:xlink="http://www.w3.org/1999/xlink">
    <title>For Devs/DUMP 2021</title>
    <defs>
        <polygon id="path-1" points="0.0273524354 0.0325932597 66.8573046 0.0325932597 66.8573046 67.1127732 0.0273524354 67.1127732"></polygon>
        <polygon id="path-3" points="-1.89273622e-14 0 481 0 481 153 -1.89273622e-14 153"></polygon>
        <path d="M436,131.143407 L436,21.8623651 L348.738937,21.8623651 L348.738937,153 L370.554683,153 L370.554683,131.143407 L436,131.143407 Z M87.2572229,0 L65.4433972,0 L65.4433972,21.8623651 L-1.70530257e-13,21.8623651 L-1.70530257e-13,131.143407 L87.2572229,131.143407 L87.2572229,0 Z M21.8157459,109.290662 L65.4433972,109.290662 L65.4433972,43.7151103 L21.8157459,43.7151103 L21.8157459,109.290662 Z M370.554683,109.290662 L414.182334,109.290662 L414.182334,43.7151103 L370.554683,43.7151103 L370.554683,109.290662 Z M218.144017,21.8623651 L218.144017,131.143407 L239.957843,131.143407 L239.957843,43.7151103 L261.773589,43.7151103 L261.773589,131.143407 L283.585494,131.143407 L283.585494,43.7151103 L305.39932,43.7151103 L305.39932,131.143407 L327.213146,131.143407 L327.213146,21.8623651 L218.144017,21.8623651 Z M174.512526,21.8623651 L174.512526,109.290662 L130.888715,109.290662 L130.888715,21.8623651 L109.071049,21.8623651 L109.071049,131.143407 L196.330192,131.143407 L196.330192,21.8623651 L174.512526,21.8623651 L174.512526,21.8623651 Z" id="path-5"></path>
    </defs>
    <g id="For-Devs/DUMP-2021" stroke="none" stroke-width="1" fill="none" fill-rule="evenodd">
        <g id="Main" transform="translate(149.000000, 188.000000)">
            <g id="logo-text">
                <g id="Group-3" transform="translate(136.000000, 0.000000)">
                    <mask id="mask-2" fill="white">
                        <use xlink:href="#path-1"></use>
                    </mask>
                    <g id="Clip-2"></g>
                    <path d="M66.8573046,33.5818725 C66.8573046,52.1049027 51.8718667,67.1127732 33.4233402,67.1127732 C14.9748138,67.1127732 0.0273524354,52.1049027 0.0273524354,33.5818725 C0.0273524354,15.0590762 14.9748138,0.0325698674 33.4233402,0.0325698674 C51.8718667,0.0325698674 66.8573046,15.0590762 66.8573046,33.5818725" id="Fill-1" fill="#FFFFFF" mask="url(#mask-2)"></path>
                </g>
                <path d="M335,78 L335,101.27373 C335,101.27373 288.695871,114.007299 231.578875,125.997313 C229.534627,126.443446 227.453543,126.871185 225.372458,127.29869 C204.964347,145.943753 151.899782,200.837887 151.899782,268.279155 C151.899782,343.677239 192.82667,398.98025 200.764415,409 L166.579969,409 C160.777367,398.571295 129.317915,339.55051 120.698574,273.763378 C111.893891,206.525768 119.427744,149.903065 120.551073,141.965423 C65.2210852,144.549549 9.48635648,140.980096 9.48635648,140.980096 L3.37075756,125.997313 L0,117.7066 C0,117.7066 86.678697,116.479657 174.868397,106.051108 C263.094006,95.5853804 335,78 335,78" id="Fill-4" fill="#FFFFFF"></path>
                <path d="M358.692893,88.0434321 L358.686473,81.9740738 L354.595292,82.9534181 L354.601712,89.023162 L358.692893,88.0434321 Z M365.040246,76.5581002 C365.522744,76.4424794 365.825408,76.6373918 365.947,77.1427603 L366.459819,79.2729132 C366.587366,79.8023468 366.409388,80.1249126 365.926889,80.2404563 L362.379234,81.0899104 L362.385654,87.1592686 L365.535275,86.4054582 C366.017773,86.2898374 366.323067,86.4972452 366.450305,87.0262932 L366.963124,89.1561375 C367.085102,89.6614289 366.904416,89.9722706 366.421918,90.0878142 L362.36709,91.0585197 L362.351543,95.6062191 C362.376527,96.1345729 362.172018,96.4507367 361.73763,96.5549419 L359.456785,97.1010361 C358.901192,97.2340116 358.633026,97.0183507 358.65012,96.4540534 L358.67433,91.9426832 L354.583535,92.9220275 L354.567988,97.4696497 C354.544938,98.0097275 354.291545,98.3376154 353.808969,98.453159 L351.673307,98.9645438 C351.141847,99.0918115 350.872984,98.8765363 350.866564,98.3175611 L350.890774,93.8061138 L347.994546,94.5 C347.48776,94.621167 347.173417,94.4289542 347.051439,93.9235857 L346.53862,91.7938957 C346.411382,91.2646934 346.601117,90.938811 347.107903,90.8175595 L350.908951,89.9073255 L350.902918,83.8375815 L347.499517,84.6526348 C346.992732,84.7738091 346.675758,84.5698722 346.548134,84.0403614 L346.035315,81.9102086 C345.913723,81.4049172 346.106088,81.091453 346.612874,80.9702016 L350.921095,79.9387161 L350.936642,75.3910168 C350.935482,74.8570323 351.13999,74.5404829 351.550555,74.4422939 L353.795356,73.9048385 C354.350175,73.7719402 354.631259,73.9849015 354.638065,74.5431053 L354.613855,79.0545527 L358.705037,78.0748227 L358.720197,73.5275862 C358.743247,72.9874312 358.995866,72.6596204 359.479216,72.5440768 L361.578911,72.0409451 C362.158018,71.902339 362.439024,72.1157631 362.421621,72.6792891 L362.397411,77.1906593 L365.040246,76.5581002 Z" id="Fill-6" fill="#FFFFFF"></path>
                <path d="M373.651046,70.6343165 L378.963717,93.2052151 C379.087394,93.7309171 378.894887,94.0579652 378.386273,94.1857974 L375.297767,94.9623461 C374.789231,95.0904995 374.473125,94.8915245 374.34906,94.3655013 L369.036467,71.7946027 C368.912401,71.2689007 369.104908,70.9421738 369.613911,70.8140204 L372.702338,70.0374718 C373.210874,69.9097198 373.527058,70.1086146 373.651046,70.6343165" id="Fill-8" fill="#FFFFFF"></path>
                <path d="M385.964093,90.2233121 L383.08395,90.9630447 C382.597924,91.0876614 382.294993,90.8971394 382.175455,90.3910921 L377.035434,68.6630037 C376.915821,68.1569564 377.099064,67.841431 377.584793,67.7168144 L380.187101,67.0487112 C380.673201,66.9237078 381.036792,67.0096476 381.278542,67.3051384 L391.529479,79.207152 L391.668396,79.1715694 L388.486882,65.723025 C388.367269,65.2165909 388.550141,64.9010655 389.036166,64.7764488 L391.91631,64.037103 C392.402038,63.9120996 392.704895,64.1030083 392.824508,64.6090556 L397.964529,86.3367572 C398.084142,86.8431913 397.901269,87.1582525 397.415541,87.283256 L394.882283,87.9336452 C394.372869,88.0642954 393.945722,87.9188706 393.600693,87.4957464 L383.47917,75.8289651 L383.340253,75.8645477 L386.51308,89.2771227 C386.632694,89.78317 386.449821,90.0986954 385.964093,90.2233121" id="Fill-10" fill="#FFFFFF"></path>
                <path d="M412.900617,84.1787571 L409.840462,84.95752 C409.305947,85.0935837 408.975016,84.9027935 408.847045,84.3850703 L404.271131,65.8588622 C404.204258,65.5877644 404.036959,65.4861522 403.769858,65.5540256 L399.616561,66.6108558 C399.10647,66.7403461 398.7874,66.5464671 398.659429,66.0287439 L398.038533,63.5141786 C397.910484,62.9964554 398.101583,62.6730071 398.611674,62.5431208 L412.383659,59.0388861 C412.89375,58.9093959 413.212742,59.1032748 413.340402,59.620998 L413.961687,62.1355633 C414.089268,62.6532865 413.898248,62.9766557 413.388157,63.1066211 L409.234861,64.1633721 C408.943336,64.237423 408.831361,64.4103934 408.898233,64.6814913 L413.474147,83.2076993 C413.601729,83.7254226 413.410708,84.0492669 412.900617,84.1787571" id="Fill-12" fill="#FFFFFF"></path>
                <path d="M433.427451,78.8693756 L421.558132,81.9596496 C421.049816,82.0919571 420.731224,81.8989392 420.601655,81.3798806 L415.039439,59.1041455 C414.909948,58.5850869 415.09936,58.2593641 415.607209,58.1270566 L427.476605,55.0367826 C427.960564,54.9111501 428.26725,55.1072672 428.396819,55.6263258 L429.0263,58.1465253 C429.155869,58.6656634 428.978285,58.9882076 428.494716,59.1142374 L420.908419,61.0893142 C420.618075,61.164805 420.506793,61.3387516 420.574574,61.6103594 L421.777972,66.4285773 C421.845831,66.7009797 422.024893,66.7986409 422.315237,66.7231502 L428.522186,65.1068532 C429.030113,64.9745457 429.349017,65.1678815 429.478586,65.6869401 L430.108144,68.2072191 C430.237636,68.7261982 430.048301,69.051921 429.539985,69.1842285 L423.333036,70.8002076 C423.042692,70.8756189 422.931411,71.0495656 422.999269,71.3211734 L424.285623,76.4732988 C424.35387,76.7453039 424.533011,76.8429651 424.823355,76.7674744 L432.409263,74.7923181 C432.893221,74.6662883 433.199985,74.8628027 433.329476,75.3818613 L433.959035,77.9020608 C434.088526,78.4211194 433.910942,78.7436636 433.427451,78.8693756" id="Fill-14" fill="#FFFFFF"></path>
                <path d="M439.381207,63.9869822 L442.780054,63.0219245 C443.519743,62.812094 444.022523,62.4873236 444.288245,62.0485872 C444.553669,61.6097697 444.595959,61.0123414 444.415485,60.2563836 L443.710789,57.3067439 C443.524508,56.5257851 443.21538,56.0078245 442.784447,55.7530246 C442.353141,55.4991176 441.767272,55.4763893 441.027955,55.6867068 L437.629108,56.6516833 C437.374256,56.724089 437.280594,56.8989342 437.346932,57.1759753 L438.900391,63.6793391 C438.966728,63.9571919 439.126802,64.0593879 439.381207,63.9869822 M441.333509,77.120095 L438.385549,77.9572251 C437.899968,78.0951369 437.594115,77.8995927 437.46762,77.3701869 L432.039263,54.6453471 C431.912693,54.116266 432.092125,53.7824042 432.577706,53.6444925 L440.831846,51.3009665 C442.635317,50.788688 444.174928,50.9305772 445.451199,51.7250918 C446.727544,52.5204182 447.600727,53.9008346 448.070301,55.8671529 L448.774997,58.8163055 C449.455273,61.6653727 448.878189,63.847934 447.042926,65.3646387 L447.079333,65.5157004 L452.804534,72.8942641 C453.157068,73.4399856 453.032732,73.7985237 452.431599,73.9689856 L449.622568,74.7667471 C449.206228,74.8847717 448.893451,74.9201628 448.684611,74.8712159 C448.475324,74.8235678 448.274078,74.6518883 448.080128,74.3565834 L442.660855,67.1742944 L440.337479,67.8341442 C440.060068,67.9128001 439.954345,68.0908922 440.020682,68.3679333 L441.87225,76.1193215 C441.99882,76.6487273 441.819091,76.9821832 441.333509,77.120095" id="Fill-16" fill="#FFFFFF"></path>
                <path d="M470.440591,68.7398059 L458.736022,71.9564893 C458.235219,72.0942294 457.917513,71.9048962 457.78375,71.3891237 L452.042254,49.2372167 C451.908491,48.7210479 452.092358,48.3942916 452.593238,48.2565514 L464.298115,45.0398681 C464.77529,44.9087059 465.080836,45.1012092 465.214676,45.6169025 L465.863942,48.123408 C465.997705,48.6395767 465.825922,48.963163 465.348824,49.0944044 L457.867794,51.1503618 C457.58172,51.2287421 457.473586,51.4037307 457.5437,51.6739011 L458.785433,56.4653232 C458.855547,56.7358106 459.033795,56.8312301 459.320177,56.7528498 L465.440796,55.0705659 C465.941984,54.9328258 466.259305,55.1217628 466.393068,55.6379315 L467.042873,58.144437 C467.176636,58.6602096 466.992693,58.9873621 466.491813,59.1251023 L460.370886,60.8069899 C460.084427,60.8857664 459.976293,61.0603588 460.046407,61.3304498 L461.374493,66.4537005 C461.44453,66.7245841 461.622778,66.8200036 461.908852,66.7413063 L469.389882,64.6852696 C469.866981,64.5541866 470.172681,64.7466107 470.306444,65.2623832 L470.956095,67.7688887 C471.089935,68.2849783 470.91769,68.6086437 470.440591,68.7398059" id="Fill-18" fill="#FFFFFF"></path>
                <path d="M472.345461,62.3778463 L472.154083,61.65095 C472.020022,61.1421851 472.19707,60.8178848 472.684554,60.6782837 L475.644265,59.8299509 C476.132123,59.6903498 476.442483,59.874736 476.576545,60.3835008 L476.652991,60.674134 C476.895383,61.5953601 477.235226,62.1750607 477.672746,62.4142538 C478.110265,62.6543081 478.792727,62.6404497 479.721782,62.3744013 L481.358355,61.9050975 C482.263778,61.6455476 482.848264,61.2829606 483.112711,60.8159274 C483.376858,60.3493639 483.378284,59.6198055 483.116762,58.6260777 L483.002206,58.1902061 C482.81743,57.4878163 482.402341,57.0269684 481.758365,56.8073493 C481.113638,56.5884348 480.375661,56.5589173 479.544358,56.7187186 C478.712305,56.8793812 477.79983,56.9913439 476.805058,57.0546068 C475.81096,57.1182611 474.863976,57.1029151 473.965905,57.0085689 C473.066934,56.914301 472.218751,56.4672332 471.421958,55.6663475 C470.624489,54.8658533 470.028226,53.7145948 469.633018,52.2121022 L469.297976,50.9400336 C468.800965,49.0503693 468.925499,47.4381846 469.673079,46.1033229 C470.420583,44.7691659 471.699684,43.8420677 473.510305,43.3229678 L476.992384,42.3250904 C478.826187,41.7994137 480.39104,41.9113765 481.68672,42.6601173 C482.982325,43.4092496 483.878971,44.7285304 484.375982,46.6185862 L484.557832,47.3090751 C484.691594,47.8177616 484.51492,48.1421403 484.027437,48.2816631 L481.067351,49.1300742 C480.579942,49.2696752 480.269507,49.0852108 480.135445,48.5765243 L480.078055,48.3583145 C479.829436,47.413678 479.486367,46.8217633 479.048848,46.5821005 C478.611253,46.3429074 477.928041,46.3559828 476.999736,46.6220312 L475.641714,47.0115518 C474.689478,47.2840988 474.094715,47.6567076 473.857425,48.1286735 C473.619385,48.6010308 473.644067,49.3815597 473.930945,50.4719825 L474.112795,51.1623931 C474.412577,52.3018289 475.536235,52.6828936 477.484669,52.3068399 C479.502122,51.9107424 481.363457,51.820311 483.067924,52.035389 C483.975598,52.1656729 484.825355,52.6196308 485.616522,53.3956185 C486.407089,54.1723108 486.994125,55.2871619 487.376879,56.7409546 L487.701944,57.9766157 C488.19933,59.86628 488.07412,61.4788562 487.326916,62.8130133 C486.579336,64.1478749 485.300611,65.0745817 483.489614,65.59329 L479.694249,66.6812857 C477.883178,67.2003855 476.330028,67.0853693 475.034498,66.3363153 C473.738818,65.5874961 472.842472,64.2675106 472.345461,62.3778463" id="Fill-20" fill="#FFFFFF"></path>
                <path d="M497.890049,62.0825342 L494.987831,62.9511763 C494.498173,63.0977458 494.18377,62.9143359 494.043868,62.4006296 L488.046348,40.3609354 C487.906975,39.8473084 488.081928,39.5175666 488.571284,39.3709179 L491.193773,38.5860977 C491.683205,38.439449 492.056076,38.5131298 492.312387,38.8064273 L503.157689,50.5909314 L503.297516,50.5490204 L499.585269,36.9070451 C499.44582,36.3938142 499.620774,36.0636763 500.110205,35.9174237 L503.012348,35.0488609 C503.501704,34.9022121 503.816484,35.0857013 503.956311,35.5989322 L509.953377,57.6391018 C510.093279,58.1523327 509.918326,58.4824705 509.428517,58.6287231 L506.876281,59.3929444 C506.363205,59.5461689 505.92348,59.4138602 505.557634,58.9941961 L494.852461,47.4454708 L494.712634,47.4873818 L498.414531,61.0925167 C498.554358,61.6061437 498.37948,61.9358855 497.890049,62.0825342" id="Fill-22" fill="#FFFFFF"></path>
                <path d="M526.474927,53.3978047 L515.19083,56.9475739 C514.707624,57.0994605 514.394042,56.921354 514.249634,56.4127818 L508.049819,34.5882718 C507.905486,34.080172 508.074735,33.7497064 508.558015,33.5978198 L519.841738,30.0480506 C520.301824,29.9034866 520.604108,30.0850577 520.748516,30.5936299 L521.450129,33.0631064 C521.594387,33.5712062 521.436511,33.8978136 520.976351,34.0427712 L513.764558,36.3113858 C513.488387,36.3984706 513.388349,36.5750812 513.46377,36.8410599 L514.804744,41.5617498 C514.88054,41.828516 515.056448,41.9180417 515.332319,41.8308781 L521.233143,39.9748535 C521.716423,39.8229669 522.03008,40.0010734 522.174338,40.5092519 L522.875951,42.9786497 C523.020359,43.4872219 522.85111,43.8172151 522.36783,43.9691017 L516.467381,45.8255988 C516.191135,45.9122899 516.091097,46.0892942 516.166519,46.3553517 L517.600572,51.402964 C517.676367,51.6693364 517.851901,51.7588621 518.128147,51.6720923 L525.339865,49.403084 C525.800025,49.2585201 526.102384,49.4400911 526.246643,49.9486633 L526.948256,52.4181399 C527.092664,52.9262396 526.934788,53.252847 526.474927,53.3978047" id="Fill-24" fill="#FFFFFF"></path>
                <path d="M543.491286,48.221111 L532.418061,51.9427469 C531.943674,52.1018677 531.631965,51.9293233 531.48205,51.4249568 L525.05384,29.7698542 C524.90422,29.2650952 525.066456,28.9334301 525.540401,28.7739168 L536.614068,25.0526734 C537.065215,24.9008532 537.366226,25.0772441 537.515773,25.5816106 L538.24329,28.0316934 C538.39291,28.5363739 538.241888,28.8641925 537.790298,29.0160912 L530.712922,31.39466 C530.441938,31.4857207 530.34588,31.6632891 530.424306,31.9273652 L531.814711,36.6118898 C531.893136,36.8763583 532.06762,36.9624735 532.33853,36.8713343 L538.129526,34.9252254 C538.603471,34.7661047 538.915548,34.938649 539.065168,35.4430155 L539.792391,37.8930984 C539.942306,38.3977789 539.78007,38.729444 539.306125,38.8890358 L533.515129,40.8351446 C533.244219,40.9262839 533.148161,41.1038523 533.226512,41.3679283 L534.713123,46.3764249 C534.791844,46.6408935 534.966327,46.7274012 535.237311,46.6363405 L542.315055,44.2576932 C542.766277,44.105873 543.067214,44.2823424 543.216687,44.7866304 L543.943983,47.2367132 C544.093898,47.7413937 543.942876,48.0692908 543.491286,48.221111" id="Fill-26" fill="#FFFFFF"></path>
                <polygon id="Fill-28" fill="#FFFFFF" points="250 142.864354 245.40705 143.912382 248.922238 159.44614 246.494561 160 242.979446 144.466389 238.422045 145.506099 238 143.642113 249.578321 141"></polygon>
                <polygon id="Fill-30" fill="#FFFFFF" points="267 157.20171 264.520234 157.78374 262.721907 149.757811 255.759458 151.391964 257.558162 159.417893 255.078396 160 251 141.797905 253.479465 141.215874 255.325289 149.4542 262.287737 147.820048 260.441913 139.581722 262.921303 139"></polygon>
                <polygon id="Fill-32" fill="#FFFFFF" points="275 156.40699 272.365088 157 268 138.593088 270.634912 138"></polygon>
                <polygon id="Fill-34" fill="#FFFFFF" points="290 151.164337 287.51909 151.756597 277.622524 139.994717 277.554881 140.036878 280.588037 153.410817 278.119351 154 274 135.835663 276.468686 135.246403 286.356928 146.970584 286.427046 146.94081 283.400189 133.591875 285.880649 133"></polygon>
                <polygon id="Fill-36" fill="#FFFFFF" points="295.953645 141.906902 294.741588 142.201262 296.607234 150.402627 294.146927 151 290 132.768839 292.460382 132.171465 294.277645 140.160288 295.319798 139.907185 298.42345 130.723693 301.404908 130 297.535495 139.976796 306 148.122148 302.873241 148.881458"></polygon>
                <polygon id="Fill-38" fill="#FFFFFF" points="312 146.421055 308.75961 147 308 144.57865 311.24039 144"></polygon>
                <path d="M329.701079,135.739739 L329.743984,135.80789 C330.208653,137.575281 330.040677,139.072673 329.240988,140.299987 C328.440911,141.527685 327.132096,142.355736 325.315009,142.7846 C323.439033,143.227309 321.800396,142.987597 320.398942,142.065467 C318.997411,141.143795 318.037039,139.61382 317.517672,137.475236 L316.303048,132.471973 C315.786086,130.342032 315.930397,128.54917 316.736992,127.093005 C317.543508,125.637223 318.87203,124.69077 320.723023,124.253721 C322.590309,123.813307 324.163075,123.946242 325.441864,124.652602 C326.719876,125.359345 327.564799,126.633087 327.97663,128.473524 L327.969415,128.554065 L325.519761,129.131927 C325.207085,127.843958 324.692296,126.963818 323.975392,126.491127 C323.258488,126.018895 322.330781,125.917014 321.191804,126.185943 C320.069508,126.450665 319.303647,127.070136 318.893755,128.043972 C318.483785,129.018114 318.467414,130.280995 318.844332,131.832999 L320.068034,136.873434 C320.448676,138.442264 321.05463,139.569228 321.885121,140.255013 C322.715612,140.940798 323.704536,141.148231 324.851892,140.877466 C325.957429,140.616415 326.713825,140.121696 327.121467,139.392466 C327.528721,138.663695 327.572092,137.638613 327.251425,136.317601 L329.701079,135.739739 Z" id="Fill-40" fill="#FFFFFF"></path>
                <path d="M334.562181,130.996888 L337.255717,130.367872 C338.303246,130.123168 339.009614,129.675933 339.374511,129.025868 C339.739409,128.375729 339.799364,127.561363 339.554147,126.582398 C339.302456,125.57941 338.864348,124.857942 338.239052,124.417995 C337.614218,123.978049 336.806666,123.873548 335.817628,124.104417 L332.999172,124.762515 L334.562181,130.996888 Z M335.029727,132.862291 L336.921722,140.408545 L334.390097,141 L330,123.488195 L335.349697,122.23894 C337.095656,121.83105 338.551854,121.945444 339.719064,122.581674 C340.886196,123.217979 341.671091,124.33856 342.073365,125.943267 C342.302784,126.857746 342.280898,127.710342 342.008092,128.49994 C341.735209,129.289836 341.230363,129.970544 340.49371,130.54162 C341.501243,130.629386 342.299316,130.977922 342.887622,131.587971 C343.476312,132.19802 343.901551,133.024733 344.16272,134.06744 L344.546113,135.595984 C344.680821,136.133589 344.860457,136.622699 345.085329,137.062646 C345.309893,137.502964 345.591793,137.819071 345.930643,138.011711 L346,138.288546 L343.3937,138.89748 C343.044601,138.698593 342.758617,138.338454 342.535594,137.817212 C342.312571,137.296045 342.128465,136.746465 341.983508,136.168919 L341.6126,134.688422 C341.367306,133.70983 340.937906,132.990519 340.325865,132.530193 C339.712976,132.070164 338.991118,131.93725 338.15983,132.131377 L335.029727,132.862291 Z" id="Fill-42" fill="#FFFFFF"></path>
                <polygon id="Fill-44" fill="#FFFFFF" points="353.891805 127.719614 347.831092 129.187221 349.397252 135.526651 356.537905 133.79792 357 135.668215 347.368997 138 343 120.317065 352.569704 118 353.037792 119.894552 345.958513 121.608563 347.366038 127.30446 353.426752 125.837153"></polygon>
                <path d="M361.816165,127.32943 L366.007394,126.2744 L362.176064,119.448468 L362.103014,119.466884 L361.816165,127.32943 Z M367.040576,128.132711 L361.740853,129.467267 L361.570705,134.352633 L359,135 L359.935782,115.604168 L362.33596,115 L372,131.726797 L369.429295,132.374164 L367.040576,128.132711 Z" id="Fill-46" fill="#FFFFFF"></path>
                <polygon id="Fill-48" fill="#FFFFFF" points="379 112.848206 374.423006 113.992359 378.278476 129.395498 375.85952 130 372.00405 114.596861 367.462736 115.732063 367 113.88349 378.537338 111"></polygon>
                <polygon id="Fill-50" fill="#FFFFFF" points="391.854496 116.688274 385.860693 118.20205 387.464685 124.51526 394.526862 122.732588 395 124.594925 385.474845 127 381 109.389712 390.464405 107 390.944084 108.886918 383.942656 110.654602 385.384248 116.327198 391.378501 114.813796"></polygon>
                <polygon id="Fill-52" fill="#FFFFFF" points="402 125.179029 398.808687 126 398 122.821553 401.191699 122"></polygon>
                <path d="M419.664975,112.612426 L419.708955,112.679873 C420.203555,114.43954 420.067855,115.941286 419.301163,117.185111 C418.534472,118.429242 417.256678,119.284003 415.468089,119.748858 C413.621244,120.228642 411.995757,120.020943 410.591243,119.126142 C409.186422,118.231342 408.206279,116.718725 407.650045,114.589133 L406.348151,109.606331 C405.794144,107.484931 405.901292,105.687827 406.669825,104.214637 C407.438052,102.742136 408.733192,101.768558 410.555245,101.295128 C412.393417,100.817564 413.951976,100.919539 415.230537,101.601357 C416.509098,102.283252 417.370197,103.541316 417.813986,105.375168 L417.808767,105.455782 L415.397399,106.082173 C415.062523,104.799381 414.53561,103.928926 413.817043,103.470118 C413.098859,103.011617 412.178814,102.928017 411.057674,103.219317 C409.953114,103.506483 409.207836,104.141142 408.821919,105.12406 C408.435925,106.106595 408.444906,107.371014 408.848936,108.916933 L410.160195,113.936866 C410.567987,115.498939 411.189998,116.615296 412.025077,117.284788 C412.860156,117.954664 413.842218,118.142918 414.971954,117.849398 C416.060013,117.566289 416.798152,117.056495 417.186756,116.31879 C417.574975,115.581391 417.597541,114.554606 417.253608,113.2392 L419.664975,112.612426 Z" id="Fill-54" fill="#FFFFFF"></path>
                <path d="M431.014804,103.990233 C430.616889,102.430555 429.993213,101.334876 429.143849,100.703811 C428.294338,100.073128 427.274218,99.9220582 426.083123,100.251443 C424.931517,100.569654 424.149073,101.219087 423.736377,102.198592 C423.323388,103.178558 423.316181,104.448112 423.714095,106.007791 L424.980494,110.970447 C425.382747,112.54658 425.999142,113.655038 426.829902,114.29544 C427.660219,114.936225 428.651586,115.097014 429.803118,114.77888 C430.994287,114.449495 431.806293,113.792563 432.238771,112.807011 C432.671542,111.822224 432.685588,110.537211 432.281276,108.95289 L431.014804,103.990233 Z M434.671482,108.292207 C435.214119,110.418437 435.084472,112.227297 434.282907,113.718788 C433.481049,115.210202 432.153393,116.212284 430.299646,116.724499 C428.469726,117.230361 426.862699,117.039649 425.479523,116.151902 C424.095758,115.264538 423.132851,113.757359 422.590214,111.631053 L421.333154,106.705513 C420.792723,104.587549 420.909722,102.779837 421.684666,101.282377 C422.459536,99.7852993 423.758365,98.7847477 425.580417,98.2811046 C427.434163,97.7688902 429.067517,97.9566179 430.48077,98.8447472 C431.893804,99.7328764 432.871786,101.240438 433.414423,103.366285 L434.671482,108.292207 Z" id="Fill-56" fill="#FFFFFF"></path>
                <polygon id="Fill-58" fill="#FFFFFF" points="441.558503 112.371803 448.507473 110.364386 449 112.300906 439.65558 115 435 96.691676 437.395156 96"></polygon>
                <polygon id="Fill-60" fill="#FFFFFF" points="454.599159 108.359267 461.500793 106.312097 462 108.246897 452.719757 111 448 92.7055425 450.378683 92"></polygon>
                <path d="M465.581042,100.276813 L469.772497,99.0829698 L465.678265,92.4287454 L465.605234,92.4493552 L465.581042,100.276813 Z M470.877322,100.895413 L465.577315,102.404662 L465.57062,107.267817 L463,108 L463.289386,88.6835591 L465.689448,88 L476,104.297865 L473.42938,105.029667 L470.877322,100.895413 Z" id="Fill-62" fill="#FFFFFF"></path>
                <path d="M478.175823,94.2531248 L480.024595,100.471588 L483.401672,99.4965497 C484.283179,99.2420404 484.886121,98.7828413 485.210649,98.1188783 C485.535553,97.4549153 485.552103,96.633413 485.261126,95.6540008 C484.979251,94.7065413 484.519616,94.0161116 483.881995,93.5830085 C483.244373,93.1499794 482.495867,93.0399614 481.63723,93.25377 L481.504981,93.2918759 L478.175823,94.2531248 Z M477.661573,92.5237517 L480.437815,91.722192 C481.216186,91.4716861 481.756614,91.0436983 482.059327,90.4374873 C482.362114,89.8312763 482.383178,89.0899893 482.122367,88.2133298 C481.840944,87.2657961 481.384919,86.6258532 480.755422,86.292982 C480.12585,85.9604815 479.338301,85.9306788 478.392777,86.203648 L475.988908,86.8977844 L477.661573,92.5237517 Z M478.126851,103 L473,85.7542349 L477.843547,84.3559536 C479.518093,83.8723638 480.941082,83.8814825 482.112813,84.3835323 C483.284093,84.885582 484.100077,85.9103655 484.560088,87.4582534 C484.799535,88.2634458 484.807659,89.0373527 484.584386,89.7790103 C484.36164,90.5209646 483.928786,91.143189 483.28635,91.6456094 C484.353064,91.5177987 485.278052,91.7675633 486.060485,92.3945324 C486.842843,93.0217981 487.392449,93.8683584 487.709529,94.9345098 C488.181427,96.5216157 488.078291,97.8654811 487.400498,98.9654386 C486.722706,100.066063 485.570533,100.850942 483.944282,101.320298 L478.126851,103 Z" id="Fill-64" fill="#FFFFFF"></path>
                <path d="M497.844329,84.8694657 C497.399276,83.3229126 496.747978,82.24978 495.891159,81.6502213 C495.033979,81.0509693 494.025481,80.9387102 492.865736,81.313444 C491.743839,81.6760624 490.996873,82.3560581 490.624765,83.3525876 C490.25244,84.3494239 490.289274,85.6211569 490.734328,87.16771 L492.150973,92.0886306 C492.60102,93.6513632 493.245226,94.7375313 494.084314,95.3473651 C494.923114,95.9571221 495.903606,96.0806532 497.025069,95.7182648 C498.185248,95.3432244 498.960943,94.6541805 499.352446,93.6513632 C499.74402,92.6484692 499.713554,91.3613235 499.260975,89.7903863 L497.844329,84.8694657 Z M501.588713,89.0379282 C502.195723,91.1461603 502.130882,92.962396 501.39383,94.4864053 C500.65714,96.0104145 499.385734,97.0639938 497.580698,97.6474497 C495.798386,98.2233911 494.211535,98.093879 492.820362,97.25738 C491.429263,96.4215712 490.430316,94.9493207 489.823307,92.8407053 L488.417227,87.9565909 C487.812316,85.8566403 487.865216,84.0423216 488.575637,82.5134048 C489.286058,80.9848714 490.528445,79.9335159 492.303015,79.3597983 C494.108412,78.7763423 495.721388,78.9025571 497.141651,79.7379826 C498.561915,80.5733314 499.575696,82.0455819 500.182706,84.1535072 L501.588713,89.0379282 Z" id="Fill-66" fill="#FFFFFF"></path>
                <path d="M506.796015,85.0993067 L509.267399,84.2884597 C510.228464,83.9733515 510.856542,83.481594 511.151344,82.8130397 C511.446146,82.1447804 511.444052,81.3357766 511.144992,80.3852174 C510.838568,79.4112131 510.377958,78.728577 509.762657,78.337604 C509.147211,77.9462624 508.385592,77.899667 507.47816,78.1975232 L504.892292,79.045897 L506.796015,85.0993067 Z M507.36584,86.910847 L509.669972,94.2378864 L507.347433,95 L502,77.9963966 L506.908479,76.3862778 C508.510327,75.8606797 509.878874,75.8715175 511.014554,76.4184226 C512.149873,76.9657701 512.962816,78.0180722 513.453094,79.5762136 C513.732304,80.4642525 513.772582,81.3086451 513.573931,82.108728 C513.375351,82.9086633 512.952205,83.6170301 512.304637,84.2332384 C513.251987,84.2490896 514.022485,84.5379511 514.615554,85.0993067 C515.208695,85.6610309 515.664612,86.448359 515.983091,87.4609961 L516.450053,88.9451158 C516.614056,89.4675437 516.816895,89.9379204 517.057991,90.3574257 C517.299449,90.7765624 517.585011,91.0697 517.915111,91.2364699 L518,91.5050565 L515.608453,92.2895093 C515.26803,92.1176522 514.975466,91.7819742 514.72975,91.282328 C514.484467,90.7826817 514.273471,90.2523651 514.097124,89.6913781 L513.645032,88.2541486 C513.345972,87.3035894 512.893952,86.6227965 512.289117,86.2108851 C511.684355,85.7988999 511.000406,85.7183903 510.237704,85.9686189 L507.36584,86.910847 Z" id="Fill-68" fill="#FFFFFF"></path>
                <path d="M521.73065,83.2064302 L525.737998,81.8294191 L521.479264,75.4020763 L521.409189,75.4259226 L521.73065,83.2064302 Z M526.888044,83.5801491 L521.820936,85.321614 L522.028581,90.1551264 L519.570708,91 L519,71.7886753 L521.295077,71 L532,86.728319 L529.542054,87.5732686 L526.888044,83.5801491 Z" id="Fill-70" fill="#FFFFFF"></path>
                <polygon id="Fill-72" fill="#FFFFFF" points="538.404444 66.8866696 533.73426 68.4499429 539 84.173926 536.531787 85 531.26574 69.2760935 526.631959 70.826955 526 68.9402855 537.772484 65"></polygon>
                <polygon id="Fill-74" fill="#FFFFFF" points="552.290316 69.8746718 546.475316 71.9036195 548.540055 78.2839192 555.390745 75.8932043 556 77.775385 546.759804 81 541 63.2038585 550.181717 60 550.798655 61.9068871 544.006668 64.2767681 545.862032 70.0092792 551.677033 67.9800217"></polygon>
            </g>
            <g id="DUMP-logo" transform="translate(619.000000, 80.000000)">
                <g id="Group-3" transform="translate(-0.000000, 0.000000)">
                    <mask id="mask-4" fill="white">
                        <use xlink:href="#path-3"></use>
                    </mask>
                    <g id="Clip-2"></g>
                    <path d="M43.625071,109.290662 L87.3617939,109.290662 L87.3617939,43.7151103 L43.625071,43.7151103 L43.625071,109.290662 Z M458.844809,21.8585171 L481,21.8585171 L481,153 L393.235874,153 L393.235874,131.143407 L458.844809,131.143407 L458.844809,21.8585171 Z M218.575813,131.143407 L240.444174,131.143407 L240.444174,21.8585171 L218.575813,21.8585171 L218.575813,131.143407 Z M152.970728,109.290662 L196.709376,109.290662 L196.709376,21.8585171 L152.970728,21.8585171 L152.970728,109.290662 Z M109.230155,131.143407 L131.098517,131.143407 L131.098517,21.8585171 L109.230155,21.8585171 L109.230155,131.143407 Z M21.7547846,131.143407 L-0.115501909,131.143407 L-0.115501909,0 L87.3617939,0 L87.3617939,21.8585171 L21.7547846,21.8585171 L21.7547846,131.143407 Z M262.312536,131.143407 L284.182822,131.143407 L284.182822,43.7151103 L262.312536,43.7151103 L262.312536,131.143407 Z M306.049258,131.143407 L327.91762,131.143407 L327.91762,43.7151103 L306.049258,43.7151103 L306.049258,131.143407 Z M349.785981,131.143407 L371.365588,131.143407 L371.365588,21.8585171 L349.785981,21.8585171 L349.785981,131.143407 Z M393.235874,109.290662 L436.972597,109.290662 L436.972597,43.7151103 L393.235874,43.7151103 L393.235874,109.290662 Z" id="Fill-1" fill="#1A1919" mask="url(#mask-4)"></path>
                </g>
                <g id="Group-6" transform="translate(21.000000, 0.000000)">
                    <mask id="mask-6" fill="white">
                        <use xlink:href="#path-5"></use>
                    </mask>
                    <g id="Clip-5"></g>
                    <polygon id="Fill-4" fill="#FFFFFE" mask="url(#mask-6)" points="-1.78687678e-13 153 436 153 436 0 -1.78687678e-13 0"></polygon>
                </g>
            </g>
        </g>
    </g>
</svg>