<?xml version="1.0" encoding="UTF-8"?>
<svg width="1440px" height="693px" viewBox="0 0 1440 693" version="1.1" xmlns="http://www.w3.org/2000/svg" xmlns:xlink="http://www.w3.org/1999/xlink">
    <!-- Generator: Sketch 62 (91390) - https://sketch.com -->
    <title>Group</title>
    <desc>Created with Sketch.</desc>
    <defs>
        <linearGradient x1="0%" y1="42.4678548%" x2="100%" y2="61.5466821%" id="linearGradient-1">
            <stop stop-color="#EE403D" offset="0%"></stop>
            <stop stop-color="#F27043" offset="100%"></stop>
        </linearGradient>
        <rect id="path-2" x="0" y="0" width="1440" height="692"></rect>
        <rect id="path-4" x="0" y="0" width="1213" height="579"></rect>
        <polygon id="path-6" points="0.0392696864 0.0466062718 95.986531 0.0466062718 95.986531 95.9669631 0.0392696864 95.9669631"></polygon>
    </defs>
    <g id="ELEMENT-SHEET" stroke="none" stroke-width="1" fill="none" fill-rule="evenodd">
        <g id="Element-Sheet">
            <g id="Group">
                <mask id="mask-3" fill="white">
                    <use xlink:href="#path-2"></use>
                </mask>
                <use id="Rectangle-2" fill="url(#linearGradient-1)" xlink:href="#path-2"></use>
                <g id="main-detail" transform="translate(60.000000, 114.000000)">
                    <g id="logo-text-+-summer-camp-Mask">
                        <mask id="mask-5" fill="white">
                            <use xlink:href="#path-4"></use>
                        </mask>
                        <g id="Mask"></g>
                        <g id="logo-text" mask="url(#mask-5)">
                            <g transform="translate(2.000000, 1.000000)">
                                <g id="Group-3" stroke-width="1" fill="none" transform="translate(196.000000, 0.000000)">
                                    <mask id="mask-7" fill="white">
                                        <use xlink:href="#path-6"></use>
                                    </mask>
                                    <g id="Clip-2"></g>
                                    <path d="M95.986531,48.0199247 C95.986531,74.5066704 74.4720502,95.9669631 47.985639,95.9669631 C21.4992279,95.9669631 0.0392696864,74.5066704 0.0392696864,48.0199247 C0.0392696864,21.5335136 21.4992279,0.0465728223 47.985639,0.0465728223 C74.4720502,0.0465728223 95.986531,21.5335136 95.986531,48.0199247" id="Fill-1" fill="#FFFFFF" mask="url(#mask-7)"></path>
                                </g>
                                <path d="M484,112 L484,145.328544 C484,145.328544 417.1009,163.563322 334.579628,180.733313 C331.626148,181.372186 328.619447,181.984718 325.612746,182.596915 C296.127594,209.297096 219.461178,287.906822 219.461178,384.484349 C219.461178,492.456227 278.591368,571.651475 290.059632,586 L240.670761,586 C232.2873,571.065842 186.835436,486.546652 174.382418,392.337888 C161.661622,296.052006 172.546353,214.966926 174.169311,203.600032 C94.2298663,207.300562 13.7056613,202.18902 13.7056613,202.18902 L4.86999003,180.733313 L0,168.860811 C0,168.860811 125.231311,167.103799 252.645683,152.169864 C380.111937,137.18269 484,112 484,112" id="Fill-4" fill="#FFFFFF"></path>
                                <path d="M517.132705,126.173846 L517.123533,117.406996 L511.278988,118.821604 L511.28816,127.589012 L517.132705,126.173846 Z M526.200351,109.583923 C526.889635,109.416915 527.322012,109.698455 527.495714,110.428432 L528.228312,113.505319 C528.410523,114.270057 528.156268,114.735985 527.466984,114.902881 L522.398906,116.129871 L522.408077,124.896721 L526.907535,123.807884 C527.596819,123.640876 528.032953,123.940465 528.214721,124.704646 L528.94732,127.781087 C529.121574,128.510953 528.863452,128.959946 528.174168,129.126843 L522.381557,130.528973 L522.359347,137.097872 C522.395038,137.86105 522.102883,138.317731 521.482329,138.468249 L518.223978,139.257052 C517.430274,139.449128 517.047179,139.137618 517.071599,138.322522 L517.106185,131.806098 L511.262193,133.220706 L511.239983,139.789494 C511.207054,140.569606 510.845065,141.043222 510.155671,141.210119 L507.104724,141.948786 C506.345495,142.132617 505.961406,141.821664 505.952235,141.014255 L505.986821,134.49772 L501.849352,135.49999 C501.125372,135.675019 500.67631,135.397378 500.502055,134.667402 L499.769457,131.591183 C499.587689,130.826779 499.858739,130.35606 500.582719,130.180919 L506.012787,128.866137 L506.004169,120.098729 L501.142168,121.276028 C500.418188,121.451058 499.965369,121.156482 499.783048,120.391633 L499.05045,117.314746 C498.876748,116.58488 499.151555,116.132099 499.875535,115.956958 L506.030136,114.467034 L506.052346,107.898135 C506.050688,107.126825 506.342843,106.669586 506.929364,106.527758 L510.136223,105.751433 C510.928822,105.559469 511.33037,105.86708 511.340093,106.673374 L511.305508,113.189909 L517.150053,111.774744 L517.17171,105.206513 C517.204638,104.42629 517.565523,103.952785 518.256022,103.785889 L521.255588,103.059143 C522.082883,102.858934 522.48432,103.167213 522.459458,103.981195 L522.424872,110.497619 L526.200351,109.583923 Z" id="Fill-6" fill="#FFFFFF"></path>
                                <path d="M538.511465,100.888043 L545.949204,132.487301 C546.122351,133.223284 545.852841,133.681151 545.140782,133.860116 L540.816874,134.947285 C540.104924,135.126699 539.662375,134.848134 539.488683,134.111702 L532.051053,102.512444 C531.877362,101.776461 532.146872,101.319043 532.859475,101.139629 L537.183274,100.05246 C537.895224,99.8736078 538.337882,100.15206 538.511465,100.888043" id="Fill-8" fill="#FFFFFF"></path>
                                <path d="M558.232709,128.878117 L553.981069,129.94662 C553.263602,130.126622 552.816419,129.851424 552.639957,129.120466 L545.052307,97.7354499 C544.875735,97.0044926 545.146237,96.5487337 545.863265,96.3687318 L549.704768,95.403694 C550.422344,95.2231334 550.959073,95.3472688 551.315943,95.7740888 L566.448278,112.965886 L566.653347,112.914489 L561.956825,93.4888139 C561.780254,92.7572979 562.050208,92.3015391 562.767674,92.1215372 L567.019314,91.0535932 C567.736342,90.8730327 568.183416,91.1487897 568.359987,91.879747 L575.947637,123.264205 C576.124209,123.995721 575.854255,124.450809 575.137227,124.63137 L571.397656,125.570821 C570.645664,125.759538 570.015114,125.54948 569.505785,124.9383 L554.564489,108.086283 L554.359421,108.13768 L559.043119,127.511399 C559.21969,128.242357 558.949736,128.698116 558.232709,128.878117" id="Fill-10" fill="#FFFFFF"></path>
                                <path d="M595.419637,120.831308 L591.020664,121.939548 C590.252299,122.133177 589.776586,121.861668 589.592627,121.124908 L583.014751,94.7606886 C582.918621,94.3748955 582.678128,94.2302935 582.29417,94.3268827 L576.323807,95.8308333 C575.590551,96.0151078 575.131888,95.7392032 574.947929,95.0024432 L574.055392,91.4240234 C573.871321,90.6872634 574.146025,90.2269716 574.879281,90.0421335 L594.67651,85.0553379 C595.409766,84.8710633 595.868317,85.1469679 596.051827,85.883728 L596.944925,89.4621477 C597.128323,90.1989077 596.853731,90.6590869 596.120475,90.8440377 L590.150112,92.3478756 C589.731045,92.4532559 589.570081,92.6994061 589.666211,93.0851992 L596.244087,119.449418 C596.427485,120.186178 596.152893,120.647034 595.419637,120.831308" id="Fill-12" fill="#FFFFFF"></path>
                                <path d="M625.186378,112.593936 L608.319451,116.943211 C607.597108,117.129421 607.144371,116.857766 606.960246,116.127239 L599.056045,84.7762048 C598.872031,84.0456779 599.141196,83.5872532 599.862876,83.4010427 L616.729913,79.0517681 C617.417643,78.874952 617.85346,79.1509686 618.037585,79.8814955 L618.93211,83.428443 C619.116235,84.1590818 618.863879,84.6130329 618.176701,84.7904082 L607.396174,87.5701459 C606.98358,87.6763922 606.825443,87.9212059 606.921763,88.3034688 L608.631855,95.0846643 C608.728286,95.4680455 608.982743,95.6054946 609.395337,95.4992484 L618.215738,93.22446 C618.937529,93.0382495 619.390708,93.3103517 619.574832,94.0408787 L620.469468,97.587938 C620.653482,98.3183531 620.384428,98.7767777 619.662084,98.9629883 L610.841683,101.237329 C610.429089,101.343464 610.270952,101.588277 610.367382,101.97054 L612.195359,109.22168 C612.292342,109.604502 612.54691,109.741951 612.959504,109.635705 L623.739478,106.855855 C624.427209,106.67848 624.863136,106.955056 625.047151,107.685583 L625.941786,111.23253 C626.1258,111.963057 625.873445,112.417008 625.186378,112.593936" id="Fill-14" fill="#FFFFFF"></path>
                                <path d="M633.896067,92.2779749 L638.913413,90.9197456 C640.005335,90.6244286 640.747534,90.1673443 641.13979,89.5498635 C641.531607,88.9322684 641.594034,88.0914435 641.327621,87.0275029 L640.287355,82.8761581 C640.012369,81.7770308 639.556037,81.0480493 638.919897,80.689442 C638.283208,80.3320914 637.418354,80.3001035 636.326981,80.5961059 L631.309636,81.954221 C630.933426,82.0561253 630.795163,82.3022037 630.89309,82.6921134 L633.186291,91.8449957 C633.284218,92.2360479 633.520517,92.3798792 633.896067,92.2779749 M636.778038,110.761615 L632.426287,111.939798 C631.709476,112.133896 631.25798,111.858686 631.071249,111.113596 L623.05796,79.1304886 C622.871119,78.3858558 623.135993,77.9159763 623.852804,77.7218783 L636.037487,74.4235824 C638.699754,73.7025979 640.972513,73.9022938 642.856531,75.0204996 C644.74066,76.1398478 646.029644,78.0826562 646.722825,80.850067 L647.763091,85.0007263 C648.767307,89.0105245 647.915421,92.0822775 645.206224,94.216899 L645.259968,94.4295043 L653.711455,104.814149 C654.231862,105.582202 654.048318,106.086811 653.160933,106.32672 L649.014267,107.449496 C648.39967,107.615605 647.937952,107.665414 647.629664,107.596526 C647.320717,107.529466 647.023639,107.287843 646.737333,106.872229 L638.737452,96.7638217 L635.307708,97.6924992 C634.898196,97.8032002 634.742128,98.0538483 634.840055,98.443758 L637.573322,109.353119 C637.760163,110.098209 637.494849,110.567517 636.778038,110.761615" id="Fill-16" fill="#FFFFFF"></path>
                                <path d="M678.205051,98.4115787 L661.572242,102.938763 C660.860574,103.132619 660.409097,102.86615 660.219013,102.140248 L652.060046,70.9634901 C651.869961,70.2370303 652.131245,69.7771511 652.843022,69.5832946 L669.476269,65.0561106 C670.15436,64.871512 670.588557,65.1424426 670.77875,65.8682331 L671.701392,69.3959075 C671.891476,70.1223673 671.647363,70.5777849 670.969381,70.7624951 L660.338444,73.6560648 C659.931918,73.7663778 659.778254,74.0126581 659.877889,74.3928978 L661.642457,81.1363809 C661.742093,81.5170668 661.995393,81.6513609 662.402357,81.5410478 L671.100078,79.1733891 C671.812292,78.9795326 672.263223,79.2454439 672.453307,79.9719037 L673.376714,83.499578 C673.566798,84.2254801 673.305405,84.6859171 672.593628,84.8797735 L663.89547,87.2468746 C663.488396,87.3577454 663.334732,87.6034679 663.434368,87.9835961 L665.321648,95.194097 C665.421174,95.5753405 665.674474,95.7096347 666.081001,95.5988755 L676.711938,92.7051942 C677.38992,92.5207071 677.824336,92.7915262 678.01442,93.5174282 L678.937608,97.0451026 C679.127802,97.7714509 678.883033,98.2269801 678.205051,98.4115787" id="Fill-18" fill="#FFFFFF"></path>
                                <path d="M681.930153,89.3440987 L681.648123,88.2973679 C681.450558,87.5647466 681.711472,87.0977541 682.429869,86.8967286 L686.791548,85.6751293 C687.510498,85.4741038 687.96787,85.7396198 688.165435,86.4722411 L688.278092,86.890753 C688.635301,88.2173185 689.136122,89.0520874 689.780888,89.3965254 C690.425654,89.7422036 691.431388,89.7222476 692.800521,89.3391379 L695.212313,88.6633404 C696.546621,88.2895885 697.407967,87.7674633 697.797679,87.0949354 C698.186949,86.423084 698.18905,85.3725199 697.80365,83.941552 L697.63483,83.3138968 C697.362529,82.3024555 696.750819,81.6388345 695.801801,81.3225829 C694.851678,81.007346 693.764132,80.9648409 692.539054,81.1949548 C691.312871,81.4263089 689.968171,81.5875352 688.50219,81.6786337 C687.037205,81.770296 685.641649,81.7481978 684.318176,81.6123393 C682.993376,81.4765935 681.743423,80.8328158 680.569201,79.6795404 C679.393984,78.5268287 678.51528,76.8690164 677.932868,74.7054272 L677.439122,72.8736483 C676.706685,70.1525317 676.890209,67.8309858 677.991905,65.908785 C679.093491,63.9875988 680.978482,62.6525774 683.646765,61.9050737 L688.77825,60.4681302 C691.480696,59.7111558 693.786796,59.8723821 695.696219,60.9505689 C697.605532,62.0293194 698.926905,63.9290838 699.659342,66.6507642 L699.927331,67.6450682 C700.124454,68.3775768 699.864093,68.844682 699.145696,69.0455948 L694.783464,70.2673068 C694.065178,70.4683324 693.607695,70.2027036 693.41013,69.470195 L693.325554,69.1559728 C692.95917,67.7956964 692.453594,66.9433392 691.808828,66.5982247 C691.163951,66.2537867 690.157112,66.2726152 688.789085,66.655725 L686.787789,67.2166347 C685.384494,67.6091023 684.508001,68.1456589 684.158311,68.8252898 C683.807515,69.5054844 683.843888,70.6294459 684.266656,72.1996548 L684.534645,73.193846 C684.97643,74.8346337 686.632347,75.3833668 689.503723,74.8418494 C692.476811,74.2714691 695.219831,74.1412478 697.731677,74.4509602 C699.069302,74.638569 700.321576,75.2922683 701.487506,76.4096906 C702.652552,77.5281276 703.517657,79.1335131 704.081717,81.2269746 L704.560759,83.0063267 C705.293749,85.7274433 705.10923,88.049553 704.008086,89.9707391 C702.90639,91.8929399 701.021952,93.2273976 698.353116,93.9743376 L692.759947,95.5410514 C690.090999,96.2885551 687.802146,96.1229317 685.892944,95.044294 C683.983521,93.9659944 682.66259,92.0652153 681.930153,89.3440987" id="Fill-20" fill="#FFFFFF"></path>
                                <path d="M718.385526,88.6893345 L714.164117,89.9302519 C713.451887,90.1396368 712.994575,89.8776227 712.79108,89.1437566 L704.067416,57.6584791 C703.86469,56.9247262 704.119168,56.4536666 704.830959,56.2441684 L708.645488,55.1229967 C709.357388,54.9134985 709.899747,55.0187569 710.272563,55.4377533 L726.047548,72.2727591 L726.250932,72.2128863 L720.851301,52.7243502 C720.648466,51.9911632 720.902944,51.5195376 721.614844,51.3106053 L725.836142,50.0698012 C726.547933,49.860303 727.005795,50.1224304 727.209179,50.8556174 L735.932185,82.3415739 C736.135679,83.0747609 735.881201,83.5463865 735.168752,83.7553188 L731.456409,84.8470634 C730.710117,85.0659556 730.070516,84.8769432 729.538376,84.2774231 L713.967216,67.7792441 L713.763831,67.8391169 L719.148409,87.2750238 C719.351794,88.0087767 719.097426,88.4798364 718.385526,88.6893345" id="Fill-22" fill="#FFFFFF"></path>
                                <path d="M761.226208,76.796829 L744.597012,81.9242734 C743.88492,82.1436652 743.422799,81.8864002 743.209987,81.1517959 L734.073417,49.6275037 C733.860716,48.8935818 734.110136,48.4162426 734.822338,48.1968508 L751.450983,43.0694064 C752.129003,42.8605918 752.574474,43.1228611 752.787286,43.8574654 L753.821242,47.4244871 C754.033833,48.1584089 753.801174,48.6301752 753.123043,48.8395585 L742.495138,52.1164462 C742.088149,52.2422354 741.940725,52.4973395 742.051872,52.881531 L744.028044,59.7003053 C744.139742,60.0856342 744.398976,60.2149491 744.805523,60.0890462 L753.501473,57.4081217 C754.213676,57.1887299 754.675907,57.4459949 754.888499,58.1800305 L755.922455,61.7469385 C756.135266,62.4815427 755.885847,62.9581996 755.173644,63.1775914 L746.478246,65.8591983 C746.071147,65.9844188 745.923722,66.2400916 746.034869,66.6243968 L748.148211,73.9153924 C748.25991,74.3001526 748.518592,74.4294675 748.925691,74.3041333 L759.553486,71.0266769 C760.231616,70.8178623 760.677198,71.0801316 760.889789,71.8147359 L761.923745,75.3817576 C762.136557,76.1156794 761.903898,76.5874457 761.226208,76.796829" id="Fill-24" fill="#FFFFFF"></path>
                                <path d="M784.250316,68.5416048 L767.93188,73.9173011 C767.232783,74.1471422 766.773422,73.8979115 766.552494,73.1693821 L757.079343,41.8897893 C756.85885,41.160693 757.097935,40.6816212 757.79638,40.4512131 L774.115468,35.0760838 C774.780317,34.8567879 775.223913,35.1115748 775.444297,35.8401041 L776.516428,39.3791127 C776.73692,40.1080957 776.514362,40.5816114 775.84886,40.8010206 L765.419043,44.2367311 C765.019699,44.3682633 764.87814,44.624751 764.993714,45.0061942 L767.042732,51.7727296 C767.158306,52.1547398 767.415439,52.2791284 767.814675,52.1474829 L776.348775,49.3364367 C777.04722,49.1065956 777.507124,49.3558264 777.727617,50.0843557 L778.799312,53.6233643 C779.02024,54.3523473 778.781155,54.8314191 778.08271,55.0619405 L769.548611,57.8729867 C769.149375,58.0046322 769.007816,58.2611199 769.123281,58.6425632 L771.314077,65.8770582 C771.430086,66.2590684 771.687219,66.384024 772.086563,66.2524918 L782.516924,62.8166679 C783.181882,62.5973721 783.625368,62.8522723 783.845644,63.5806883 L784.917448,67.1196969 C785.138376,67.8486798 784.915817,68.322309 784.250316,68.5416048" id="Fill-26" fill="#FFFFFF"></path>
                                <polygon id="Fill-28" fill="#FFFFFF" points="361 205.747469 354.110575 207.291931 359.383357 230.183786 355.741841 231 350.469169 208.108362 343.633068 209.640567 343 206.89364 360.367482 203"></polygon>
                                <polygon id="Fill-30" fill="#FFFFFF" points="386 225.002443 382.435337 225.833915 379.850241 214.368302 369.841721 216.702805 372.427358 228.168418 368.862694 229 363 202.997006 366.564231 202.165535 369.217602 213.934572 379.226122 211.600068 376.572751 199.831031 380.136873 199"></polygon>
                                <polygon id="Fill-32" fill="#FFFFFF" points="397 223.157302 393.23584 224 387 197.842809 390.76416 197"></polygon>
                                <polygon id="Fill-34" fill="#FFFFFF" points="419 216.949053 415.433692 217.795139 401.207378 200.992453 401.110141 201.052683 405.470303 220.15831 401.921567 221 396 195.050947 399.548736 194.209147 413.763084 210.957978 413.863879 210.915443 409.512772 191.845536 413.078433 191"></polygon>
                                <polygon id="Fill-36" fill="#FFFFFF" points="426.930467 203.00986 425.112382 203.430374 427.910851 215.14661 424.22039 216 418 189.955484 421.690573 189.102093 424.416467 200.514698 425.979697 200.153122 430.635174 187.033847 435.107363 186 429.303243 200.252566 442 211.888783 437.309861 212.973511"></polygon>
                                <polygon id="Fill-38" fill="#FFFFFF" points="449 210.228074 444.949512 211 444 207.771534 448.050488 207"></polygon>
                                <path d="M476.57297,195.682788 L476.634264,195.779633 C477.298076,198.291189 477.05811,200.419061 475.915697,202.16314 C474.77273,203.907763 472.902995,205.084467 470.307156,205.693906 C467.62719,206.323017 465.28628,205.982375 463.284203,204.671979 C461.282016,203.362235 459.910056,201.18806 459.168103,198.149019 L457.432925,191.03912 C456.694408,188.012361 456.900568,185.46461 458.052845,183.395324 C459.205012,181.32658 461.102901,179.98162 463.747176,179.360551 C466.414727,178.7347 468.661536,178.923608 470.488377,179.927382 C472.314109,180.931701 473.521141,182.741756 474.109472,185.357114 L474.099164,185.471567 L470.599659,186.292738 C470.152979,184.462466 469.417565,183.211742 468.393417,182.540023 C467.369269,181.868956 466.043972,181.724177 464.416862,182.10634 C462.813583,182.482524 461.719495,183.362825 461.133935,184.746697 C460.548264,186.131004 460.524878,187.925625 461.063331,190.131103 L462.811477,197.293827 C463.355251,199.523218 464.2209,201.124692 465.407316,202.099229 C466.593732,203.073765 468.00648,203.368539 469.64556,202.983768 C471.224899,202.612801 472.305464,201.909778 472.88781,200.873504 C473.469601,199.837882 473.53156,198.381186 473.073464,196.503959 L476.57297,195.682788 Z" id="Fill-40" fill="#FFFFFF"></path>
                                <path d="M482.558135,188.258572 L486.430093,187.331601 C487.935917,186.970985 488.95132,186.311901 489.47586,185.353911 C490.0004,184.395811 490.086586,183.195693 489.734086,181.753008 C489.372281,180.274919 488.742501,179.211704 487.843637,178.563362 C486.945439,177.915019 485.784582,177.761018 484.362841,178.101247 L480.311309,179.071075 L482.558135,188.258572 Z M483.230233,191.007587 L485.949976,202.128383 L482.310765,203 L476,177.193129 L483.690189,175.352122 C486.200005,174.751022 488.293291,174.919602 489.971154,175.857204 C491.648907,176.794916 492.777194,178.446298 493.355462,180.811131 C493.685252,182.158784 493.653791,183.415242 493.261632,184.57886 C492.869362,185.742916 492.143647,186.746066 491.084708,187.58765 C492.533036,187.71699 493.680267,188.230621 494.525956,189.129641 C495.372199,190.028661 495.983479,191.246975 496.358911,192.783595 L496.910038,195.036187 C497.10368,195.828447 497.361906,196.549241 497.68516,197.197584 C498.007971,197.846474 498.413202,198.312316 498.900299,198.596205 L499,199.004173 L495.253444,199.901549 C494.751614,199.608452 494.340512,199.077721 494.019916,198.309575 C493.699321,197.541539 493.434669,196.731632 493.226293,195.880512 L492.693112,193.698728 C492.340502,192.256591 491.72324,191.196554 490.84343,190.518179 C489.962402,189.840242 488.924733,189.644369 487.729756,189.930451 L483.230233,191.007587 Z" id="Fill-42" fill="#FFFFFF"></path>
                                <polygon id="Fill-44" fill="#FFFFFF" points="511.559722 183.09344 502.90156 185.22147 505.138931 194.413644 515.339865 191.906985 516 194.618912 502.241425 198 496 172.359745 509.671005 169 510.339702 171.7471 500.226447 174.232416 502.237198 182.491467 510.89536 180.363872"></polygon>
                                <path d="M523.115934,182.877674 L529.241575,181.34788 L523.64194,171.450279 L523.535174,171.476981 L523.115934,182.877674 Z M530.751611,184.042431 L523.005863,185.977537 L522.757184,193.061318 L519,194 L520.367681,165.876044 L523.875634,165 L538,189.253856 L534.242816,190.192537 L530.751611,184.042431 Z" id="Fill-46" fill="#FFFFFF"></path>
                                <polygon id="Fill-48" fill="#FFFFFF" points="548 160.723673 541.134509 162.409792 546.917714 185.109155 543.28928 186 537.506075 163.300637 530.694104 164.973567 530 162.249353 547.306007 158"></polygon>
                                <polygon id="Fill-50" fill="#FFFFFF" points="566.506423 168.047997 557.943848 170.242973 560.235264 179.397127 570.324089 176.812252 571 179.512641 557.392636 183 551 157.465082 564.520579 154 565.205834 156.736032 555.203794 159.299173 557.263211 167.524437 565.826431 165.330005"></polygon>
                                <polygon id="Fill-52" fill="#FFFFFF" points="580 178.973786 576.010859 180 575 176.026942 578.989624 175"></polygon>
                                <path d="M606.521393,162.501868 L606.584222,162.597714 C607.290793,165.098294 607.096936,167.232354 606.001662,168.999895 C604.906388,170.76787 603.080969,171.982531 600.525842,172.643115 C597.887492,173.324913 595.565367,173.029761 593.558918,171.758202 C591.552031,170.486643 590.151827,168.337135 589.357208,165.310873 L587.497359,158.230049 C586.70592,155.215428 586.858988,152.661649 587.956893,150.568168 C589.05436,148.475667 590.90456,147.092161 593.507494,146.419393 C596.133453,145.740749 598.359965,145.88566 600.186481,146.85456 C602.012997,147.823569 603.243138,149.611344 603.877123,152.217343 L603.869667,152.331901 L600.424856,153.222036 C599.946462,151.39912 599.193728,150.162157 598.167204,149.510168 C597.141228,148.858614 595.826877,148.739813 594.225249,149.153766 C592.647305,149.561844 591.582623,150.463728 591.031313,151.860506 C590.479893,153.25674 590.492722,155.053546 591.069909,157.250379 L592.943135,164.383967 C593.525695,166.603755 594.414282,168.190157 595.607252,169.141541 C596.800223,170.09347 598.203168,170.360989 599.817077,169.943881 C601.371447,169.541569 602.425932,168.817124 602.981079,167.768806 C603.535679,166.720924 603.567915,165.261808 603.076583,163.392547 L606.521393,162.501868 Z" id="Fill-54" fill="#FFFFFF"></path>
                                <path d="M622.022205,149.512437 C621.425334,147.296051 620.48982,145.739035 619.215774,144.842258 C617.941507,143.946024 616.411327,143.731346 614.624684,144.199419 C612.897276,144.651614 611.723609,145.574491 611.104566,146.966421 C610.485082,148.359003 610.474271,150.163106 611.071143,152.379492 L612.97074,159.431688 C613.57412,161.671455 614.498714,163.246633 615.744852,164.156678 C616.990329,165.067267 618.477378,165.295757 620.204676,164.843671 C621.99143,164.375598 623.20944,163.442063 623.858156,162.041542 C624.507313,160.642108 624.528381,158.816037 623.921913,156.564633 L622.022205,149.512437 Z M627.507223,155.625768 C628.321179,158.647252 628.126708,161.217738 626.924361,163.337225 C625.721573,165.456603 623.730089,166.880614 620.949469,167.608498 C618.204589,168.327355 615.794049,168.056343 613.719284,166.794808 C611.643636,165.533817 610.199276,163.392036 609.38532,160.370443 L607.499732,153.370993 C606.689085,150.361254 606.864584,147.7924 608.026999,145.66443 C609.189305,143.537004 611.137548,142.115168 613.870625,141.399464 C616.651245,140.671581 619.101275,140.938352 621.221156,142.20043 C623.340706,143.462509 624.807679,145.604834 625.621635,148.625774 L627.507223,155.625768 Z" id="Fill-56" fill="#FFFFFF"></path>
                                <polygon id="Fill-58" fill="#FFFFFF" points="636.837754 160.265194 647.26121 157.412548 648 160.164446 633.98337 164 627 137.982908 630.592734 137"></polygon>
                                <polygon id="Fill-60" fill="#FFFFFF" points="655.898739 155.247379 666.251189 152.338243 667 155.087695 653.079635 159 646 133.002613 649.568024 132"></polygon>
                                <path d="M671.772293,143.801379 L677.898266,142.070306 L671.914387,132.421681 L671.80765,132.451565 L671.772293,143.801379 Z M679.513009,144.698349 L671.766845,146.88676 L671.75706,153.938335 L668,155 L668.422949,126.991161 L671.930732,126 L687,149.631905 L683.24294,150.693017 L679.513009,144.698349 Z" id="Fill-62" fill="#FFFFFF"></path>
                                <path d="M690.591207,135.109868 L693.302739,144.273919 L698.255786,142.837021 C699.548662,142.461954 700.432977,141.78524 700.908951,140.806768 C701.385478,139.828296 701.409751,138.617661 700.982985,137.174317 C700.569569,135.778061 699.895437,134.760586 698.960259,134.122328 C698.02508,133.48418 696.927272,133.322048 695.667937,133.637135 L695.473972,133.693291 L690.591207,135.109868 Z M689.836974,132.561318 L693.908795,131.380072 C695.050406,131.010906 695.843034,130.380187 696.287012,129.486823 C696.731101,128.59346 696.761994,127.501037 696.379471,126.209118 C695.966717,124.812752 695.297882,123.869678 694.374619,123.379131 C693.451246,122.889131 692.296175,122.845211 690.909406,123.247481 L687.383731,124.270419 L689.836974,132.561318 Z M690.519381,148 L683,122.585188 L690.103869,120.524563 C692.55987,119.811905 694.64692,119.825343 696.365459,120.565205 C698.083336,121.305068 699.280113,122.815276 699.954796,125.096373 C700.305984,126.282973 700.3179,127.423467 699.990433,128.516436 C699.663739,129.609843 699.028886,130.526805 698.086646,131.267214 C699.651161,131.078861 701.007809,131.446935 702.155378,132.37089 C703.302836,133.295281 704.108925,134.542844 704.573977,136.114014 C705.266092,138.452907 705.114826,140.43334 704.120731,142.054331 C703.126635,143.676304 701.436782,144.832968 699.051614,145.52465 L690.519381,148 Z" id="Fill-64" fill="#FFFFFF"></path>
                                <path d="M719.766494,122.34082 C719.098914,120.143086 718.121967,118.618108 716.836739,117.766104 C715.550969,116.914535 714.038221,116.755009 712.298604,117.287526 C710.615759,117.802825 709.49531,118.769135 708.937147,120.185256 C708.37866,121.601813 708.433911,123.409012 709.101492,125.606746 L711.226459,132.599633 C711.90153,134.820358 712.867839,136.36386 714.126472,137.230466 C715.384671,138.096963 716.85541,138.272507 718.537603,137.757534 C720.277871,137.224582 721.441415,136.245414 722.028669,134.820358 C722.616031,133.395193 722.570331,131.566091 721.891462,129.333707 L719.766494,122.34082 Z M725.38307,128.264424 C726.293584,131.260333 726.196324,133.8413 725.090745,136.006997 C723.98571,138.172694 722.078601,139.669886 719.371048,140.499008 C716.697578,141.31745 714.317302,141.133407 712.230544,139.944698 C710.143894,138.75697 708.645475,136.664824 707.73496,133.668371 L705.625841,126.727787 C704.718474,123.743647 704.797824,121.165404 705.863456,118.992733 C706.929088,116.820607 708.792668,115.326575 711.454522,114.511292 C714.162619,113.682171 716.582082,113.861529 718.712477,115.048712 C720.842872,116.235787 722.363544,118.327932 723.274059,121.323405 L725.38307,128.264424 Z" id="Fill-66" fill="#FFFFFF"></path>
                                <path d="M731.194023,121.409505 L734.901098,120.214572 C736.342696,119.750202 737.284813,119.025507 737.727016,118.040269 C738.169219,117.055466 738.166079,115.86325 737.717488,114.462426 C737.257852,113.027051 736.566938,112.021061 735.643986,111.44489 C734.720817,110.868176 733.578388,110.799509 732.217239,111.238455 L728.338437,112.48869 L731.194023,121.409505 Z M732.048761,124.079143 L735.504958,134.876885 L732.02115,136 L724,110.942058 L731.362718,108.569251 C733.76549,107.794686 735.818311,107.810657 737.521831,108.616623 C739.22481,109.42324 740.444224,110.974001 741.17964,113.27021 C741.598455,114.578898 741.658874,115.823267 741.360896,117.002336 C741.063026,118.181188 740.428307,119.225097 739.456955,120.133193 C740.877981,120.156553 742.033728,120.582244 742.923331,121.409505 C743.813042,122.237309 744.496919,123.397582 744.974636,124.889889 L745.675079,127.077013 C745.921084,127.846906 746.225342,128.540093 746.586987,129.158312 C746.949173,129.775987 747.377516,130.207979 747.872666,130.453745 L748,130.849557 L744.412679,132.005593 C743.902046,131.75233 743.463199,131.257646 743.094625,130.521325 C742.7267,129.785005 742.410207,129.003485 742.145687,128.176768 L741.467549,126.058745 C741.018957,124.657921 740.340928,123.654647 739.433676,123.04762 C738.526532,122.440484 737.500609,122.321838 736.356556,122.690596 L732.048761,124.079143 Z" id="Fill-68" fill="#FFFFFF"></path>
                                <path d="M752.99095,118.699324 L758.847843,116.702658 L752.62354,107.383011 L752.521122,107.417588 L752.99095,118.699324 Z M760.52868,119.241216 L753.122907,121.76634 L753.426387,128.774933 L749.834112,130 L749,102.143579 L752.354343,101 L768,123.806063 L764.407617,125.031239 L760.52868,119.241216 Z" id="Fill-70" fill="#FFFFFF"></path>
                                <polygon id="Fill-72" fill="#FFFFFF" points="777.129572 95.7356709 770.303918 98.0024172 778 120.802193 774.392612 122 766.696082 99.2003356 759.923633 101.449085 759 98.7134139 776.205939 93"></polygon>
                                <polygon id="Fill-74" fill="#FFFFFF" points="796.55913 101.106674 788.030463 104.005171 791.058747 113.119885 801.106426 109.704578 802 112.393407 788.447712 117 780 91.5769407 793.466519 87 794.371361 89.7241245 784.40978 93.1096687 787.130981 101.29897 795.659649 98.400031"></polygon>
                            </g>
                        </g>
                        <g id="summer-camp" mask="url(#mask-5)" fill="#FFD43B">
                            <g transform="translate(664.000000, 267.000000)" id="SUMMER-CAMP">
                                <path d="M50.568125,7.9985625 L50.740125,8.5145625 L50.826125,9.9765625 L50.998125,12.7285625 L51.084125,14.8785625 L51.084125,16.8565625 L50.826125,19.6085625 L50.482125,21.5865625 L50.396125,22.1025625 L50.052125,22.2745625 L49.622125,22.2745625 L47.730125,22.3605625 L43.172125,22.3605625 L41.280125,22.4465625 L38.700125,22.6185625 L36.808125,22.3605625 L36.206125,22.1885625 L35.948125,22.0165625 L35.776125,21.5865625 L35.604125,20.9845625 L35.346125,19.7805625 L35.346125,16.7705625 L35.260125,16.3405625 L35.002125,16.0825625 L34.572125,15.8245625 L34.228125,15.6525625 L32.594125,15.3945625 L29.154125,15.0505625 L27.262125,15.0505625 L24.596125,15.1365625 L23.134125,15.3945625 L21.844125,15.9105625 L20.554125,16.5985625 L19.436125,17.4585625 L18.662125,18.5765625 L18.404125,20.0385625 L18.662125,21.6725625 L19.608125,23.1345625 L20.898125,24.0805625 L22.618125,24.7685625 L23.994125,25.0265625 L27.262125,25.1985625 L32.164125,25.6285625 L36.550125,26.4025625 L39.560125,27.0905625 L42.398125,28.0365625 L45.064125,29.2405625 L46.440125,30.0145625 L47.730125,30.8745625 L49.880125,32.8525625 L50.826125,33.9705625 L52.460125,36.2925625 L53.664125,39.0445625 L54.180125,40.4205625 L54.696125,43.3445625 L54.782125,44.8925625 L54.696125,46.6125625 L54.094125,49.7085625 L53.492125,51.1705625 L52.288125,54.1805625 L51.600125,55.5565625 L50.654125,56.8465625 L48.332125,58.9965625 L45.580125,60.7165625 L42.742125,62.1785625 L39.732125,63.3825625 L36.722125,64.2425625 L33.454125,64.8445625 L31.906125,65.0165625 L28.724125,64.9305625 L27.090125,64.8445625 L25.284125,64.9305625 L21.844125,65.0165625 L20.210125,64.9305625 L18.404125,64.6725625 L15.136125,63.7265625 L13.588125,63.2105625 L11.954125,62.7805625 L8.600125,61.6625625 L7.052125,60.9745625 L2.924125,58.0505625 L1.462125,56.9325625 L1.290125,56.5025625 L1.204125,55.9005625 L1.118125,54.0085625 L1.032125,50.3105625 L0.860125,46.0965625 L0.774125,43.5165625 L1.032125,42.9145625 L1.720125,42.0545625 L2.494125,41.3665625 L3.096125,41.1085625 L4.902125,41.1085625 L6.106125,41.1945625 L7.396125,41.3665625 L9.202125,41.3665625 L10.922125,41.2805625 L12.126125,41.1085625 L13.244125,40.9365625 L14.964125,41.1085625 L15.480125,41.2805625 L15.738125,41.6245625 L15.910125,42.0545625 L16.082125,42.5705625 L16.340125,44.0325625 L16.340125,44.9785625 L16.168125,47.3865625 L16.254125,47.7305625 L16.512125,48.1605625 L16.942125,48.4185625 L17.286125,48.5905625 L18.318125,48.8485625 L20.726125,49.3645625 L22.016125,49.5365625 L24.424125,49.7085625 L28.552125,49.7085625 L30.272125,49.7945625 L31.820125,49.6225625 L33.282125,49.3645625 L34.744125,48.5905625 L35.862125,47.4725625 L36.550125,46.0965625 L36.894125,44.5485625 L36.550125,43.2585625 L35.862125,42.2265625 L34.572125,41.4525625 L32.766125,40.7645625 L31.476125,40.3345625 L28.466125,39.5605625 L26.574125,39.1305625 L22.016125,39.1305625 L20.554125,38.9585625 L18.920125,38.7005625 L15.996125,38.0985625 L13.158125,37.2385625 L10.234125,36.0345625 L7.654125,34.4865625 L6.536125,33.6265625 L5.418125,32.5945625 L4.386125,31.4765625 L3.612125,30.1865625 L2.322125,27.5205625 L1.376125,24.6825625 L0.774125,21.6725625 L0.688125,20.0385625 L0.860125,18.4905625 L1.118125,16.9425625 L1.634125,15.5665625 L2.752125,12.7285625 L4.042125,9.9765625 L4.902125,8.7725625 L6.020125,7.7405625 L8.428125,5.9345625 L11.094125,4.3005625 L13.846125,3.0965625 L15.308125,2.6665625 L16.770125,2.1505625 L18.146125,1.6345625 L21.156125,0.8605625 L24.252125,0.5165625 L25.714125,0.4305625 L28.896125,0.5165625 L30.444125,0.6885625 L31.906125,0.9465625 L34.916125,1.2905625 L36.378125,1.5485625 L39.388125,2.2365625 L43.688125,3.5265625 L45.064125,4.2145625 L46.440125,4.9885625 L48.934125,6.7085625 L50.138125,7.6545625 L50.568125,7.9985625 Z M107.758125,15.9105625 L101.480125,15.9105625 L100.706125,15.4805625 L100.534125,14.4485625 L100.362125,11.6965625 L100.276125,8.9445625 L100.018125,6.1065625 L100.104125,3.3545625 L100.534125,2.3225625 L101.480125,1.8925625 L104.404125,1.6345625 L107.328125,1.8925625 L110.338125,1.8925625 L113.262125,1.8065625 L124.958125,2.1505625 L127.882125,1.8925625 L130.806125,2.0645625 L131.838125,2.4085625 L132.354125,3.3545625 L132.526125,6.1065625 L132.354125,8.9445625 L132.526125,11.7825625 L132.354125,14.5345625 L131.924125,15.5665625 L130.892125,16.1685625 L128.656125,16.2545625 L126.334125,16.0825625 L125.388125,15.6525625 L124.872125,15.8245625 L124.700125,19.1785625 L125.044125,22.6185625 L125.044125,26.0585625 L124.958125,29.4125625 L124.786125,36.2925625 L124.786125,39.6465625 L124.614125,42.9145625 L123.926125,46.2685625 L122.894125,49.3645625 L121.346125,52.3745625 L119.454125,55.0405625 L117.218125,57.3625625 L114.552125,59.4265625 L111.886125,61.3185625 L108.876125,62.8665625 L105.780125,63.9845625 L102.512125,64.7585625 L99.244125,65.0165625 L95.804125,65.1025625 L92.364125,64.9305625 L89.182125,64.5005625 L85.828125,63.7265625 L82.732125,62.6945625 L79.636125,61.2325625 L76.884125,59.5125625 L74.218125,57.5345625 L71.810125,55.2125625 L70.176125,52.3745625 L68.800125,49.1925625 L67.940125,46.0965625 L67.252125,42.7425625 L66.908125,39.4745625 L66.736125,36.1205625 L66.736125,29.7565625 L66.650125,26.5745625 L66.564125,23.4785625 L66.822125,20.2965625 L66.650125,17.1145625 L66.134125,16.3405625 L65.102125,16.1685625 L62.866125,15.9965625 L60.716125,15.7385625 L59.942125,15.3085625 L59.426125,14.4485625 L59.426125,13.9325625 L59.598125,13.3305625 L59.426125,9.0305625 L59.254125,4.6445625 L59.254125,3.9565625 L59.426125,3.3545625 L59.942125,2.6665625 L60.716125,2.4085625 L63.640125,1.8065625 L66.564125,1.7205625 L72.412125,1.8925625 L75.336125,2.0645625 L78.346125,2.3225625 L84.194125,1.8065625 L87.118125,1.7205625 L90.042125,2.0645625 L91.160125,2.4085625 L91.590125,3.3545625 L91.848125,5.9345625 L91.676125,8.6005625 L91.590125,11.2665625 L91.590125,13.8465625 L91.504125,14.5345625 L91.160125,15.1365625 L90.644125,15.4805625 L90.128125,15.6525625 L89.440125,15.4805625 L85.226125,15.4805625 L84.452125,15.3945625 L84.022125,15.8245625 L83.592125,19.1785625 L83.678125,22.5325625 L83.592125,25.9725625 L83.592125,36.1205625 L84.108125,39.8185625 L85.140125,42.9145625 L86.688125,46.1825625 L89.010125,48.5905625 L92.106125,49.7085625 L95.804125,50.0525625 L99.416125,49.6225625 L102.512125,48.4185625 L104.920125,46.1825625 L106.640125,43.0865625 L107.242125,39.9905625 L107.328125,36.2925625 L107.672125,29.9285625 L107.500125,26.6605625 L107.414125,23.4785625 L107.758125,17.1145625 L107.930125,16.4265625 L107.758125,15.9105625 Z M199.950125,63.6405625 L196.940125,63.8985625 L194.016125,63.8125625 L191.178125,63.3825625 L190.318125,63.1245625 L190.060125,62.3505625 L189.630125,59.5985625 L189.544125,56.7605625 L189.372125,54.0085625 L189.716125,51.1705625 L189.888125,50.4825625 L190.060125,50.1385625 L190.576125,49.7945625 L191.092125,49.6225625 L193.414125,49.7085625 L195.736125,49.7085625 L196.424125,49.5365625 L196.854125,49.4505625 L197.198125,48.9345625 L197.284125,48.5905625 L197.284125,45.2365625 L196.940125,41.8825625 L196.940125,38.5285625 L197.112125,31.8205625 L197.284125,28.4665625 L197.026125,27.8645625 L196.596125,27.5205625 L195.908125,27.5205625 L195.392125,27.7785625 L193.070125,30.4445625 L190.662125,33.1105625 L188.426125,35.9485625 L186.190125,38.7005625 L184.126125,41.5385625 L181.804125,44.2905625 L181.116125,44.7205625 L180.256125,44.7205625 L179.654125,44.3765625 L179.224125,44.0325625 L177.246125,42.1405625 L175.268125,40.0765625 L173.720125,37.7545625 L172.086125,35.4325625 L170.194125,33.4545625 L168.302125,31.3905625 L166.840125,28.9825625 L165.894125,27.3485625 L165.378125,26.5745625 L164.948125,26.4025625 L164.432125,26.5745625 L163.916125,26.8325625 L163.744125,27.1765625 L163.830125,30.7885625 L164.002125,34.3145625 L164.002125,37.8405625 L164.088125,41.4525625 L163.830125,44.9785625 L164.002125,48.5905625 L164.174125,49.1065625 L164.346125,49.5365625 L164.776125,49.7945625 L165.292125,49.9665625 L167.700125,49.8805625 L168.818125,49.7085625 L170.108125,49.7945625 L170.538125,49.9665625 L170.968125,50.3105625 L171.140125,51.2565625 L171.484125,54.0085625 L171.398125,56.7605625 L171.656125,59.5985625 L171.570125,62.4365625 L171.398125,63.1245625 L171.140125,63.4685625 L170.710125,63.8985625 L170.194125,64.0705625 L167.270125,64.2425625 L164.260125,64.0705625 L161.336125,63.6405625 L158.412125,63.2965625 L155.488125,63.7265625 L152.564125,64.0705625 L146.630125,63.3825625 L143.792125,63.5545625 L140.868125,63.3825625 L139.750125,63.1245625 L139.406125,62.9525625 L139.234125,62.4365625 L139.062125,60.9745625 L139.234125,59.5985625 L139.664125,56.7605625 L139.234125,53.9225625 L139.062125,52.2885625 L139.234125,51.1705625 L139.750125,50.3105625 L140.782125,49.9665625 L146.200125,50.1385625 L146.716125,49.5365625 L146.716125,48.5905625 L146.630125,45.4085625 L146.458125,42.2265625 L146.544125,39.0445625 L146.544125,35.8625625 L146.716125,32.7665625 L146.974125,29.5845625 L146.802125,26.4025625 L146.544125,23.2205625 L146.716125,20.1245625 L146.544125,16.9425625 L146.458125,15.9105625 L146.286125,15.4805625 L145.856125,15.3085625 L144.824125,15.2225625 L143.362125,15.4805625 L142.158125,15.7385625 L140.782125,15.6525625 L140.438125,15.5665625 L139.922125,15.2225625 L139.664125,14.7925625 L139.492125,14.2765625 L139.320125,12.7285625 L139.406125,11.4385625 L139.750125,8.6865625 L139.406125,5.8485625 L139.234125,4.6445625 L139.406125,3.0105625 L139.836125,2.1505625 L140.352125,1.9785625 L140.868125,1.8925625 L142.846125,1.6345625 L143.706125,1.5485625 L146.716125,1.7205625 L149.640125,1.6345625 L158.412125,1.6345625 L161.422125,1.4625625 L164.346125,1.4625625 L164.862125,1.7205625 L165.292125,2.3225625 L167.184125,4.4725625 L168.904125,6.7085625 L172.172125,11.5245625 L174.150125,13.6745625 L176.128125,15.7385625 L177.074125,17.2005625 L177.676125,18.2325625 L179.568125,20.2965625 L179.912125,20.5545625 L180.428125,20.7265625 L180.944125,20.5545625 L181.374125,20.2105625 L183.524125,18.3185625 L185.330125,16.0825625 L188.770125,11.4385625 L192.554125,6.9665625 L194.102125,4.4725625 L194.962125,3.0965625 L195.736125,2.1505625 L196.252125,1.6345625 L196.940125,1.4625625 L199.864125,1.6345625 L202.788125,1.8925625 L205.712125,1.7205625 L208.636125,1.6345625 L214.570125,1.8065625 L217.494125,1.3765625 L218.956125,1.2905625 L220.504125,1.4625625 L220.934125,1.5485625 L221.622125,1.8925625 L221.966125,2.4085625 L222.138125,2.9245625 L222.310125,5.7625625 L222.052125,8.6865625 L221.966125,11.4385625 L221.450125,14.1905625 L221.450125,14.4485625 L221.192125,14.9645625 L220.762125,15.1365625 L220.332125,15.2225625 L218.096125,15.5665625 L215.860125,15.8245625 L214.828125,16.0825625 L214.484125,16.4265625 L214.398125,16.9425625 L214.226125,20.0385625 L214.484125,23.2205625 L214.828125,29.5845625 L214.656125,32.7665625 L214.570125,35.8625625 L214.398125,39.0445625 L214.312125,42.2265625 L214.312125,45.4085625 L214.742125,48.5045625 L215.000125,49.2785625 L215.516125,49.3645625 L215.946125,49.4505625 L220.418125,49.9665625 L221.020125,50.1385625 L221.450125,50.3105625 L221.794125,50.6545625 L221.966125,51.1705625 L222.224125,53.9225625 L222.138125,56.7605625 L222.224125,59.5985625 L222.138125,61.2325625 L221.966125,62.4365625 L221.794125,63.0385625 L221.536125,63.4685625 L221.192125,63.7265625 L220.504125,64.0705625 L219.042125,64.2425625 L217.580125,64.1565625 L214.570125,63.8985625 L208.722125,64.0705625 L205.798125,63.8125625 L202.874125,63.4685625 L199.950125,63.6405625 Z M290.164125,63.6405625 L287.154125,63.8985625 L284.230125,63.8125625 L281.392125,63.3825625 L280.532125,63.1245625 L280.274125,62.3505625 L279.844125,59.5985625 L279.758125,56.7605625 L279.586125,54.0085625 L279.930125,51.1705625 L280.102125,50.4825625 L280.274125,50.1385625 L280.790125,49.7945625 L281.306125,49.6225625 L283.628125,49.7085625 L285.950125,49.7085625 L286.638125,49.5365625 L287.068125,49.4505625 L287.412125,48.9345625 L287.498125,48.5905625 L287.498125,45.2365625 L287.154125,41.8825625 L287.154125,38.5285625 L287.326125,31.8205625 L287.498125,28.4665625 L287.240125,27.8645625 L286.810125,27.5205625 L286.122125,27.5205625 L285.606125,27.7785625 L283.284125,30.4445625 L280.876125,33.1105625 L278.640125,35.9485625 L276.404125,38.7005625 L274.340125,41.5385625 L272.018125,44.2905625 L271.330125,44.7205625 L270.470125,44.7205625 L269.868125,44.3765625 L269.438125,44.0325625 L267.460125,42.1405625 L265.482125,40.0765625 L263.934125,37.7545625 L262.300125,35.4325625 L260.408125,33.4545625 L258.516125,31.3905625 L257.054125,28.9825625 L256.108125,27.3485625 L255.592125,26.5745625 L255.162125,26.4025625 L254.646125,26.5745625 L254.130125,26.8325625 L253.958125,27.1765625 L254.044125,30.7885625 L254.216125,34.3145625 L254.216125,37.8405625 L254.302125,41.4525625 L254.044125,44.9785625 L254.216125,48.5905625 L254.388125,49.1065625 L254.560125,49.5365625 L254.990125,49.7945625 L255.506125,49.9665625 L257.914125,49.8805625 L259.032125,49.7085625 L260.322125,49.7945625 L260.752125,49.9665625 L261.182125,50.3105625 L261.354125,51.2565625 L261.698125,54.0085625 L261.612125,56.7605625 L261.870125,59.5985625 L261.784125,62.4365625 L261.612125,63.1245625 L261.354125,63.4685625 L260.924125,63.8985625 L260.408125,64.0705625 L257.484125,64.2425625 L254.474125,64.0705625 L251.550125,63.6405625 L248.626125,63.2965625 L245.702125,63.7265625 L242.778125,64.0705625 L236.844125,63.3825625 L234.006125,63.5545625 L231.082125,63.3825625 L229.964125,63.1245625 L229.620125,62.9525625 L229.448125,62.4365625 L229.276125,60.9745625 L229.448125,59.5985625 L229.878125,56.7605625 L229.448125,53.9225625 L229.276125,52.2885625 L229.448125,51.1705625 L229.964125,50.3105625 L230.996125,49.9665625 L236.414125,50.1385625 L236.930125,49.5365625 L236.930125,48.5905625 L236.844125,45.4085625 L236.672125,42.2265625 L236.758125,39.0445625 L236.758125,35.8625625 L236.930125,32.7665625 L237.188125,29.5845625 L237.016125,26.4025625 L236.758125,23.2205625 L236.930125,20.1245625 L236.758125,16.9425625 L236.672125,15.9105625 L236.500125,15.4805625 L236.070125,15.3085625 L235.038125,15.2225625 L233.576125,15.4805625 L232.372125,15.7385625 L230.996125,15.6525625 L230.652125,15.5665625 L230.136125,15.2225625 L229.878125,14.7925625 L229.706125,14.2765625 L229.534125,12.7285625 L229.620125,11.4385625 L229.964125,8.6865625 L229.620125,5.8485625 L229.448125,4.6445625 L229.620125,3.0105625 L230.050125,2.1505625 L230.566125,1.9785625 L231.082125,1.8925625 L233.060125,1.6345625 L233.920125,1.5485625 L236.930125,1.7205625 L239.854125,1.6345625 L248.626125,1.6345625 L251.636125,1.4625625 L254.560125,1.4625625 L255.076125,1.7205625 L255.506125,2.3225625 L257.398125,4.4725625 L259.118125,6.7085625 L262.386125,11.5245625 L264.364125,13.6745625 L266.342125,15.7385625 L267.288125,17.2005625 L267.890125,18.2325625 L269.782125,20.2965625 L270.126125,20.5545625 L270.642125,20.7265625 L271.158125,20.5545625 L271.588125,20.2105625 L273.738125,18.3185625 L275.544125,16.0825625 L278.984125,11.4385625 L282.768125,6.9665625 L284.316125,4.4725625 L285.176125,3.0965625 L285.950125,2.1505625 L286.466125,1.6345625 L287.154125,1.4625625 L290.078125,1.6345625 L293.002125,1.8925625 L295.926125,1.7205625 L298.850125,1.6345625 L304.784125,1.8065625 L307.708125,1.3765625 L309.170125,1.2905625 L310.718125,1.4625625 L311.148125,1.5485625 L311.836125,1.8925625 L312.180125,2.4085625 L312.352125,2.9245625 L312.524125,5.7625625 L312.266125,8.6865625 L312.180125,11.4385625 L311.664125,14.1905625 L311.664125,14.4485625 L311.406125,14.9645625 L310.976125,15.1365625 L310.546125,15.2225625 L308.310125,15.5665625 L306.074125,15.8245625 L305.042125,16.0825625 L304.698125,16.4265625 L304.612125,16.9425625 L304.440125,20.0385625 L304.698125,23.2205625 L305.042125,29.5845625 L304.870125,32.7665625 L304.784125,35.8625625 L304.612125,39.0445625 L304.526125,42.2265625 L304.526125,45.4085625 L304.956125,48.5045625 L305.214125,49.2785625 L305.730125,49.3645625 L306.160125,49.4505625 L310.632125,49.9665625 L311.234125,50.1385625 L311.664125,50.3105625 L312.008125,50.6545625 L312.180125,51.1705625 L312.438125,53.9225625 L312.352125,56.7605625 L312.438125,59.5985625 L312.352125,61.2325625 L312.180125,62.4365625 L312.008125,63.0385625 L311.750125,63.4685625 L311.406125,63.7265625 L310.718125,64.0705625 L309.256125,64.2425625 L307.794125,64.1565625 L304.784125,63.8985625 L298.936125,64.0705625 L296.012125,63.8125625 L293.088125,63.4685625 L290.164125,63.6405625 Z M329.896125,63.8985625 L325.940125,63.9845625 L323.274125,63.8985625 L321.382125,63.5545625 L320.694125,63.4685625 L320.264125,63.3825625 L319.920125,63.0385625 L319.748125,62.5225625 L319.490125,60.8885625 L319.662125,58.5665625 L319.748125,55.2125625 L319.834125,52.9765625 L320.092125,51.3425625 L320.178125,50.7405625 L320.436125,50.3105625 L320.694125,49.9665625 L321.210125,49.7945625 L322.500125,49.7085625 L324.306125,50.2245625 L325.510125,50.1385625 L326.026125,49.9665625 L326.370125,49.7085625 L326.542125,49.2785625 L326.714125,48.6765625 L326.972125,46.7845625 L327.058125,44.2045625 L326.972125,40.4205625 L326.714125,37.8405625 L326.628125,34.0565625 L326.628125,27.6925625 L326.800125,25.1125625 L326.886125,21.3285625 L327.058125,18.7485625 L326.886125,16.8565625 L326.714125,16.2545625 L326.456125,15.9105625 L326.026125,15.6525625 L325.510125,15.4805625 L324.306125,15.3085625 L322.586125,15.4805625 L321.382125,15.3085625 L320.866125,15.2225625 L320.522125,14.9645625 L320.350125,14.7065625 L320.264125,14.1905625 L320.006125,12.5565625 L319.748125,10.3205625 L319.748125,7.0525625 L319.920125,4.8165625 L320.178125,3.1825625 L320.264125,2.5805625 L320.436125,2.0645625 L320.694125,1.7205625 L321.296125,1.5485625 L323.188125,1.3765625 L325.854125,1.8925625 L327.746125,2.0645625 L332.304125,2.0645625 L334.282125,2.1505625 L337.464125,1.9785625 L338.754125,1.8065625 L343.914125,1.7205625 L347.182125,1.7205625 L350.450125,1.8065625 L351.740125,1.8065625 L355.524125,1.8925625 L356.900125,1.9785625 L360.082125,2.0645625 L363.350125,1.9785625 L366.618125,1.9785625 L368.510125,1.8065625 L371.176125,1.4625625 L373.068125,1.6345625 L373.584125,1.8065625 L373.842125,2.1505625 L374.014125,2.5805625 L374.530125,6.1925625 L374.530125,11.0085625 L374.616125,13.4165625 L374.616125,18.2325625 L374.186125,21.2425625 L374.014125,21.8445625 L373.928125,22.3605625 L373.584125,22.7045625 L373.068125,22.8765625 L371.520125,23.1345625 L369.284125,22.9625625 L367.650125,22.8765625 L366.102125,22.8765625 L363.952125,22.7905625 L361.802125,22.4465625 L361.458125,22.1885625 L361.200125,21.9305625 L361.028125,21.4145625 L360.770125,20.2965625 L361.028125,18.7485625 L361.114125,17.6305625 L361.114125,16.7705625 L361.028125,16.3405625 L360.770125,16.1685625 L358.534125,15.9965625 L355.352125,16.3405625 L353.116125,16.5125625 L347.698125,16.3405625 L345.462125,16.4265625 L344.860125,16.5125625 L344.516125,16.8565625 L344.258125,17.2005625 L344.172125,17.7165625 L344.172125,19.7805625 L344.086125,22.5325625 L344.344125,24.5105625 L344.516125,25.1125625 L344.688125,25.5425625 L345.032125,25.7145625 L345.634125,25.8865625 L347.354125,26.1445625 L348.644125,26.1445625 L349.848125,26.0585625 L351.654125,26.0585625 L353.460125,25.9725625 L354.664125,25.8865625 L355.868125,25.9725625 L358.276125,26.3165625 L358.792125,26.4885625 L359.136125,26.7465625 L359.308125,27.2625625 L359.566125,28.8965625 L359.308125,31.1325625 L359.222125,32.8525625 L359.308125,34.4865625 L359.394125,36.7225625 L359.222125,38.3565625 L359.050125,38.9585625 L358.362125,39.6465625 L357.760125,39.8185625 L356.126125,39.9905625 L353.804125,39.6465625 L352.084125,39.4745625 L350.450125,39.5605625 L349.332125,39.7325625 L346.494125,39.9045625 L345.548125,39.9905625 L344.774125,40.4205625 L344.172125,41.1085625 L344.000125,41.9685625 L344.086125,43.7745625 L344.172125,45.0645625 L344.344125,46.2685625 L344.344125,48.0745625 L344.430125,48.5045625 L344.516125,48.8485625 L344.774125,49.1065625 L345.118125,49.1925625 L347.440125,49.1065625 L350.536125,48.9345625 L356.728125,48.9345625 L358.362125,49.0205625 L360.598125,49.0205625 L361.028125,49.1065625 L361.372125,49.1925625 L361.630125,49.1925625 L361.888125,48.9345625 L362.146125,47.5585625 L362.060125,46.5265625 L361.888125,45.4945625 L362.146125,44.0325625 L362.318125,43.5165625 L362.490125,43.1725625 L362.920125,43.0005625 L363.522125,42.9145625 L365.070125,42.8285625 L367.220125,42.7425625 L368.854125,42.7425625 L371.520125,42.4845625 L372.638125,42.3985625 L374.272125,42.5705625 L374.874125,42.7425625 L375.304125,43.0865625 L375.562125,43.5165625 L375.734125,44.1185625 L375.906125,45.9245625 L375.390125,48.4185625 L375.218125,50.3105625 L375.304125,52.1165625 L375.476125,54.5245625 L375.476125,56.4165625 L375.648125,58.2225625 L375.820125,60.7165625 L375.648125,62.5225625 L375.476125,63.1245625 L375.218125,63.5545625 L374.788125,63.8125625 L374.186125,63.9845625 L372.294125,64.2425625 L370.918125,64.2425625 L369.542125,64.1565625 L367.564125,64.0705625 L352.428125,64.0705625 L349.676125,63.8125625 L347.784125,63.7265625 L345.806125,63.8125625 L343.140125,64.0705625 L341.162125,64.0705625 L336.518125,63.9845625 L332.562125,63.9845625 L329.896125,63.8985625 Z M447.630125,53.8365625 L447.458125,59.4265625 L447.286125,62.2645625 L447.458125,63.2105625 L447.028125,63.8125625 L444.018125,63.9845625 L441.008125,63.7265625 L437.998125,63.6405625 L434.988125,63.4685625 L431.978125,63.6405625 L428.968125,63.8985625 L425.958125,63.9845625 L422.948125,63.5545625 L422.346125,63.1245625 L422.174125,62.2645625 L422.260125,58.6525625 L422.518125,55.0405625 L422.518125,54.6105625 L422.432125,54.1805625 L420.798125,51.6865625 L419.078125,49.2785625 L415.294125,44.6345625 L414.520125,43.9465625 L413.574125,43.6885625 L412.112125,43.6025625 L410.650125,43.6025625 L409.876125,43.4305625 L409.102125,43.3445625 L408.672125,43.5165625 L408.414125,43.7745625 L408.242125,44.7205625 L408.242125,49.5365625 L408.414125,50.3105625 L408.758125,50.5685625 L409.102125,50.6545625 L411.424125,50.5685625 L413.660125,50.8265625 L414.262125,50.9985625 L414.606125,51.3425625 L414.950125,51.8585625 L415.208125,53.4065625 L415.208125,54.7825625 L414.950125,57.2765625 L414.950125,59.7705625 L414.864125,62.2645625 L414.778125,62.6945625 L414.434125,63.0385625 L413.488125,63.3825625 L410.478125,63.6405625 L407.382125,63.8125625 L404.372125,63.6405625 L401.362125,63.3825625 L395.256125,63.7265625 L389.150125,63.7265625 L386.054125,63.8985625 L383.044125,63.6405625 L382.700125,63.1245625 L382.872125,62.2645625 L382.958125,59.0825625 L383.130125,55.9865625 L382.958125,52.8905625 L383.302125,49.7945625 L383.646125,49.3645625 L384.334125,49.4505625 L386.742125,49.7085625 L389.150125,49.6225625 L390.010125,49.2785625 L390.182125,48.9345625 L390.268125,48.4185625 L390.440125,45.2365625 L390.182125,42.0545625 L390.440125,38.8725625 L390.612125,35.6905625 L390.268125,29.3265625 L390.526125,26.1445625 L390.698125,22.9625625 L390.526125,19.7805625 L390.268125,16.5985625 L390.354125,15.6525625 L390.268125,15.1365625 L390.010125,15.0505625 L385.194125,15.5665625 L383.474125,15.3945625 L382.958125,14.8785625 L382.958125,13.9325625 L382.872125,11.1805625 L382.872125,5.6765625 L383.044125,2.9245625 L383.216125,2.3225625 L383.646125,1.8925625 L384.334125,1.4625625 L385.108125,1.2905625 L391.042125,1.6345625 L397.062125,1.6345625 L399.986125,1.7205625 L402.996125,1.7205625 L405.920125,1.8065625 L408.930125,1.8065625 L414.864125,1.4625625 L423.894125,1.7205625 L426.732125,2.1505625 L429.828125,2.7525625 L432.580125,3.6985625 L435.332125,5.1605625 L437.740125,6.7945625 L439.890125,9.0305625 L441.524125,11.5245625 L443.158125,14.1045625 L444.362125,16.8565625 L444.878125,19.8665625 L444.964125,22.8765625 L444.706125,26.5745625 L443.760125,30.0145625 L442.384125,33.2825625 L440.234125,36.2925625 L437.482125,38.2705625 L434.128125,40.1625625 L433.698125,40.5925625 L433.440125,41.1945625 L433.440125,41.8825625 L433.698125,42.3985625 L436.192125,45.9245625 L438.858125,49.2785625 L439.374125,49.7085625 L440.062125,49.7945625 L443.072125,49.6225625 L446.082125,49.7085625 L447.028125,50.1385625 L447.286125,50.4825625 L447.372125,51.0845625 L447.630125,52.7185625 L447.630125,53.8365625 Z M424.754125,28.9825625 L425.700125,28.1225625 L426.388125,27.0045625 L426.904125,25.8005625 L427.248125,24.4245625 L427.334125,22.9625625 L427.248125,21.5005625 L426.904125,20.2105625 L426.302125,18.9205625 L425.528125,17.8885625 L424.668125,16.9425625 L423.550125,16.1685625 L422.260125,15.5665625 L420.712125,15.3945625 L418.992125,15.4805625 L417.788125,15.5665625 L416.670125,15.7385625 L414.950125,15.8245625 L413.316125,15.7385625 L412.112125,15.5665625 L410.994125,15.3945625 L409.274125,15.3085625 L408.758125,15.4805625 L408.414125,15.8245625 L408.242125,16.3405625 L408.156125,16.8565625 L408.156125,18.6625625 L408.070125,19.9525625 L408.070125,21.1565625 L407.984125,22.9625625 L407.984125,26.0585625 L408.070125,27.2625625 L408.156125,29.0685625 L408.156125,29.6705625 L408.414125,30.1005625 L408.758125,30.3585625 L409.274125,30.5305625 L410.994125,30.5305625 L412.198125,30.6165625 L413.316125,30.6165625 L415.036125,30.7025625 L416.756125,30.6165625 L417.960125,30.3585625 L419.164125,30.1865625 L422.346125,30.0145625 L423.636125,29.5845625 L424.754125,28.9825625 Z M58.222125,133.460563 L59.340125,135.008563 L59.598125,135.524563 L59.684125,135.954563 L59.426125,136.384563 L58.910125,136.814562 L56.416125,139.050563 L53.750125,140.770562 L52.288125,141.630562 L50.912125,142.490563 L47.816125,143.780562 L44.720125,144.640562 L41.366125,145.156563 L38.098125,145.758562 L36.464125,146.016562 L34.830125,146.102562 L31.304125,146.016562 L28.036125,145.672563 L24.768125,144.984563 L19.952125,143.436563 L16.856125,142.318562 L13.846125,140.684562 L11.352125,138.534562 L8.944125,136.212562 L6.622125,133.718562 L4.816125,131.052563 L3.268125,128.042563 L2.064125,124.946563 L1.204125,121.764563 L0.860125,119.958562 L0.688125,118.410562 L0.344125,115.142562 L0.258125,111.702562 L0.516125,108.348563 L1.204125,105.166562 L2.236125,101.984562 L4.816125,95.9645625 L5.676125,94.5885625 L6.708125,93.2125625 L7.998125,92.0945625 L10.578125,90.0305625 L12.986125,87.7945625 L15.738125,85.8165625 L18.662125,84.3545625 L21.844125,83.2365625 L25.026125,82.3765625 L28.294125,81.6885625 L31.562125,81.3445625 L35.002125,81.2585625 L37.926125,81.4305625 L40.764125,81.8605625 L43.688125,82.4625625 L46.526125,83.2365625 L49.192125,84.3545625 L51.858125,85.8165625 L54.180125,87.5365625 L56.330125,89.4285625 L56.932125,90.0305625 L57.018125,90.2885625 L57.104125,92.6965625 L57.018125,94.3305625 L56.846125,95.9645625 L56.846125,98.2865625 L56.932125,100.694562 L57.190125,102.328562 L57.362125,104.048563 L57.190125,106.370563 L57.018125,106.972562 L56.674125,107.402562 L56.158125,107.660562 L55.556125,107.832562 L53.750125,108.004563 L49.278125,107.832562 L47.472125,107.918563 L44.978125,107.832562 L43.172125,107.574563 L42.570125,107.402562 L42.140125,107.230563 L41.796125,106.972562 L41.538125,106.370563 L41.366125,104.134563 L41.538125,102.500563 L41.882125,100.952562 L41.796125,98.7165625 L41.538125,98.2005625 L41.280125,97.8565625 L40.936125,97.5985625 L40.506125,97.3405625 L38.786125,96.8245625 L37.410125,96.6525625 L36.206125,96.6525625 L35.002125,96.7385625 L33.196125,96.7385625 L31.390125,96.8245625 L29.756125,97.0825625 L28.208125,97.5125625 L26.660125,98.2005625 L25.198125,99.0605625 L23.822125,100.178562 L22.618125,101.296562 L21.500125,102.414562 L20.554125,103.790562 L19.694125,105.252563 L19.006125,106.800563 L18.490125,108.262563 L18.060125,109.896562 L17.716125,111.616562 L17.544125,113.422563 L17.630125,115.142562 L17.974125,116.862562 L18.404125,118.496562 L18.834125,120.044562 L19.522125,121.764563 L20.210125,123.312563 L21.070125,124.774563 L22.188125,126.064562 L23.392125,127.096563 L24.940125,127.870563 L29.670125,129.848563 L32.938125,130.708562 L34.830125,130.794562 L36.636125,130.708562 L38.528125,130.450562 L40.420125,130.020562 L42.312125,129.418563 L44.032125,128.644563 L45.666125,127.784562 L47.300125,126.752563 L48.762125,125.548563 L49.278125,125.376562 L49.622125,125.290562 L49.966125,125.376562 L50.482125,125.720563 L51.944125,126.924562 L53.750125,128.730563 L55.040125,130.278563 L56.330125,131.654562 L58.222125,133.460563 Z M118.508125,144.726562 L118.422125,144.726562 L115.154125,144.554562 L111.886125,144.468562 L111.456125,144.382562 L111.026125,144.210563 L110.596125,143.780562 L110.338125,143.350563 L110.166125,142.748562 L110.338125,138.448562 L110.338125,136.212562 L110.424125,133.976562 L110.682125,133.202562 L111.112125,132.686563 L111.628125,132.428562 L112.574125,132.256562 L113.262125,132.256562 L113.950125,131.998562 L114.380125,131.482562 L114.552125,131.052563 L114.724125,130.536562 L114.810125,130.106562 L114.810125,129.676563 L114.380125,128.558562 L114.036125,127.526562 L113.778125,127.010562 L113.434125,126.580563 L113.004125,126.236562 L112.230125,126.064562 L108.962125,126.236562 L105.780125,126.494563 L98.728125,125.978562 L98.642125,125.978562 L95.632125,126.064562 L92.708125,126.064562 L91.848125,126.408563 L91.418125,127.268563 L90.988125,128.472562 L90.558125,129.590563 L90.558125,130.192563 L90.730125,130.708562 L91.160125,131.310563 L91.590125,131.740563 L92.192125,131.912563 L93.826125,131.912563 L94.428125,132.084562 L95.030125,132.428562 L95.460125,133.116562 L95.718125,133.890562 L95.718125,136.212562 L95.804125,138.448562 L95.718125,140.684562 L95.718125,142.834562 L95.632125,143.694562 L95.116125,144.296562 L94.514125,144.640562 L93.826125,144.726562 L87.118125,144.898563 L80.066125,144.898563 L72.928125,144.554562 L66.306125,144.726562 L65.790125,144.640562 L65.188125,144.382562 L64.672125,143.866562 L64.500125,142.920562 L64.500125,140.426563 L64.586125,137.932563 L64.414125,135.352562 L64.242125,132.858563 L64.328125,131.998562 L64.844125,131.310563 L65.532125,130.966563 L66.220125,130.880562 L70.520125,130.708562 L71.122125,130.536562 L71.552125,130.020562 L73.616125,125.376562 L74.992125,122.796562 L76.368125,120.044562 L77.572125,117.378562 L78.862125,114.712562 L80.066125,111.960562 L81.270125,109.294562 L82.560125,106.628562 L83.850125,103.876562 L84.968125,101.124563 L86.086125,98.1145625 L86.172125,97.5125625 L85.828125,96.9965625 L84.968125,96.6525625 L81.700125,96.6525625 L80.840125,96.3945625 L80.238125,95.7925625 L79.980125,95.1045625 L79.894125,94.6745625 L79.808125,92.1805625 L79.722125,89.6005625 L79.722125,84.6125625 L79.894125,83.6665625 L80.496125,82.8925625 L81.356125,82.6345625 L84.366125,82.5485625 L87.290125,82.3765625 L90.386125,82.6345625 L96.406125,82.9785625 L99.416125,83.0645625 L105.522125,82.7205625 L105.694125,82.7205625 L111.370125,82.8925625 L111.972125,82.9785625 L112.402125,83.1505625 L112.746125,83.4945625 L113.004125,84.0105625 L115.240125,89.5145625 L116.702125,92.5245625 L118.078125,95.4485625 L119.626125,98.2865625 L121.174125,101.210562 L122.550125,104.134563 L123.840125,107.058562 L125.130125,110.068562 L126.420125,112.992562 L127.624125,116.088562 L128.742125,119.098562 L129.946125,122.108563 L131.150125,125.032563 L132.526125,127.612562 L133.902125,130.020562 L134.418125,130.536562 L135.020125,130.708562 L136.998125,130.708562 L139.062125,130.622562 L139.578125,130.794562 L140.008125,131.138563 L140.352125,131.482562 L140.696125,131.912563 L140.954125,132.256562 L140.954125,132.686563 L141.040125,135.266562 L141.126125,137.760562 L141.040125,140.426563 L140.954125,142.920562 L140.868125,143.350563 L140.696125,143.866562 L140.352125,144.210563 L140.008125,144.468562 L139.578125,144.640562 L139.062125,144.726562 L132.526125,144.898563 L129.086125,144.640562 L125.474125,144.468562 L122.034125,144.640562 L118.508125,144.726562 Z M107.414125,111.358563 L107.500125,110.756563 L107.414125,110.240563 L106.554125,108.090563 L105.608125,105.854563 L104.834125,103.790562 L104.146125,101.640563 L103.716125,101.038563 L102.942125,100.866563 L102.168125,100.866563 L101.480125,101.038563 L101.050125,101.640563 L100.362125,103.704563 L99.588125,105.854563 L98.642125,108.004563 L97.696125,109.982563 L97.524125,110.670562 L97.696125,111.444562 L98.212125,112.132563 L98.814125,112.562563 L99.416125,112.648563 L102.598125,112.734563 L105.694125,112.906563 L106.382125,112.734563 L107.070125,112.132563 L107.414125,111.358563 Z M207.776125,144.640562 L204.766125,144.898563 L201.842125,144.812563 L199.004125,144.382562 L198.144125,144.124563 L197.886125,143.350563 L197.456125,140.598563 L197.370125,137.760562 L197.198125,135.008563 L197.542125,132.170562 L197.714125,131.482562 L197.886125,131.138563 L198.402125,130.794562 L198.918125,130.622562 L201.240125,130.708562 L203.562125,130.708562 L204.250125,130.536562 L204.680125,130.450562 L205.024125,129.934562 L205.110125,129.590563 L205.110125,126.236562 L204.766125,122.882562 L204.766125,119.528563 L204.938125,112.820562 L205.110125,109.466563 L204.852125,108.864563 L204.422125,108.520562 L203.734125,108.520562 L203.218125,108.778563 L200.896125,111.444562 L198.488125,114.110563 L196.252125,116.948562 L194.016125,119.700562 L191.952125,122.538563 L189.630125,125.290562 L188.942125,125.720563 L188.082125,125.720563 L187.480125,125.376562 L187.050125,125.032563 L185.072125,123.140562 L183.094125,121.076563 L181.546125,118.754563 L179.912125,116.432563 L178.020125,114.454563 L176.128125,112.390562 L174.666125,109.982562 L173.720125,108.348563 L173.204125,107.574563 L172.774125,107.402562 L172.258125,107.574563 L171.742125,107.832562 L171.570125,108.176562 L171.656125,111.788563 L171.828125,115.314562 L171.828125,118.840563 L171.914125,122.452562 L171.656125,125.978562 L171.828125,129.590563 L172.000125,130.106562 L172.172125,130.536562 L172.602125,130.794562 L173.118125,130.966563 L175.526125,130.880562 L176.644125,130.708562 L177.934125,130.794562 L178.364125,130.966563 L178.794125,131.310563 L178.966125,132.256562 L179.310125,135.008563 L179.224125,137.760562 L179.482125,140.598563 L179.396125,143.436563 L179.224125,144.124563 L178.966125,144.468562 L178.536125,144.898563 L178.020125,145.070563 L175.096125,145.242562 L172.086125,145.070563 L169.162125,144.640562 L166.238125,144.296562 L163.314125,144.726562 L160.390125,145.070563 L154.456125,144.382562 L151.618125,144.554562 L148.694125,144.382562 L147.576125,144.124563 L147.232125,143.952562 L147.060125,143.436563 L146.888125,141.974563 L147.060125,140.598563 L147.490125,137.760562 L147.060125,134.922563 L146.888125,133.288563 L147.060125,132.170562 L147.576125,131.310563 L148.608125,130.966563 L154.026125,131.138563 L154.542125,130.536562 L154.542125,129.590563 L154.456125,126.408563 L154.284125,123.226562 L154.370125,120.044562 L154.370125,116.862562 L154.542125,113.766562 L154.800125,110.584563 L154.628125,107.402562 L154.370125,104.220563 L154.542125,101.124563 L154.370125,97.9425625 L154.284125,96.9105625 L154.112125,96.4805625 L153.682125,96.3085625 L152.650125,96.2225625 L151.188125,96.4805625 L149.984125,96.7385625 L148.608125,96.6525625 L148.264125,96.5665625 L147.748125,96.2225625 L147.490125,95.7925625 L147.318125,95.2765625 L147.146125,93.7285625 L147.232125,92.4385625 L147.576125,89.6865625 L147.232125,86.8485625 L147.060125,85.6445625 L147.232125,84.0105625 L147.662125,83.1505625 L148.178125,82.9785625 L148.694125,82.8925625 L150.672125,82.6345625 L151.532125,82.5485625 L154.542125,82.7205625 L157.466125,82.6345625 L166.238125,82.6345625 L169.248125,82.4625625 L172.172125,82.4625625 L172.688125,82.7205625 L173.118125,83.3225625 L175.010125,85.4725625 L176.730125,87.7085625 L179.998125,92.5245625 L181.976125,94.6745625 L183.954125,96.7385625 L184.900125,98.2005625 L185.502125,99.2325625 L187.394125,101.296562 L187.738125,101.554562 L188.254125,101.726562 L188.770125,101.554562 L189.200125,101.210562 L191.350125,99.3185625 L193.156125,97.0825625 L196.596125,92.4385625 L200.380125,87.9665625 L201.928125,85.4725625 L202.788125,84.0965625 L203.562125,83.1505625 L204.078125,82.6345625 L204.766125,82.4625625 L207.690125,82.6345625 L210.614125,82.8925625 L213.538125,82.7205625 L216.462125,82.6345625 L222.396125,82.8065625 L225.320125,82.3765625 L226.782125,82.2905625 L228.330125,82.4625625 L228.760125,82.5485625 L229.448125,82.8925625 L229.792125,83.4085625 L229.964125,83.9245625 L230.136125,86.7625625 L229.878125,89.6865625 L229.792125,92.4385625 L229.276125,95.1905625 L229.276125,95.4485625 L229.018125,95.9645625 L228.588125,96.1365625 L228.158125,96.2225625 L225.922125,96.5665625 L223.686125,96.8245625 L222.654125,97.0825625 L222.310125,97.4265625 L222.224125,97.9425625 L222.052125,101.038563 L222.310125,104.220563 L222.654125,110.584563 L222.482125,113.766562 L222.396125,116.862562 L222.224125,120.044562 L222.138125,123.226562 L222.138125,126.408563 L222.568125,129.504563 L222.826125,130.278563 L223.342125,130.364563 L223.772125,130.450562 L228.244125,130.966563 L228.846125,131.138563 L229.276125,131.310563 L229.620125,131.654562 L229.792125,132.170562 L230.050125,134.922563 L229.964125,137.760562 L230.050125,140.598563 L229.964125,142.232562 L229.792125,143.436563 L229.620125,144.038563 L229.362125,144.468562 L229.018125,144.726562 L228.330125,145.070563 L226.868125,145.242562 L225.406125,145.156563 L222.396125,144.898563 L216.548125,145.070563 L213.624125,144.812563 L210.700125,144.468562 L207.776125,144.640562 Z M250.948125,144.726562 L244.928125,144.726562 L241.918125,144.984563 L240.542125,145.070563 L238.908125,144.898563 L238.306125,144.726562 L237.790125,144.468562 L237.532125,144.038563 L237.274125,143.436563 L237.102125,141.716563 L237.274125,140.512563 L237.618125,137.502563 L237.188125,134.492562 L237.102125,132.772563 L237.274125,131.482562 L237.876125,130.880562 L238.908125,130.794562 L240.972125,130.794562 L243.036125,130.966563 L243.724125,130.794562 L244.240125,130.364563 L244.584125,129.762563 L244.670125,129.074562 L245.186125,122.882562 L245.014125,116.690562 L245.014125,113.594562 L245.100125,110.584563 L244.928125,104.392562 L244.928125,101.296562 L244.842125,98.2005625 L244.756125,97.5985625 L244.412125,97.0825625 L243.896125,96.7385625 L243.380125,96.6525625 L241.058125,96.8245625 L240.112125,96.9105625 L238.908125,96.7385625 L238.306125,96.4805625 L237.962125,96.3085625 L237.790125,95.8785625 L237.704125,95.2765625 L237.360125,92.5245625 L237.360125,84.0965625 L237.274125,83.2365625 L237.618125,82.8065625 L240.542125,82.3765625 L243.638125,82.4625625 L246.648125,82.6345625 L249.658125,82.7205625 L252.668125,82.6345625 L255.678125,82.4625625 L261.698125,82.8065625 L267.718125,82.9785625 L273.824125,82.9785625 L276.920125,82.8925625 L279.930125,82.9785625 L283.026125,83.7525625 L285.864125,84.6985625 L288.788125,85.9025625 L291.282125,87.5365625 L293.690125,89.5145625 L295.668125,91.9225625 L296.958125,94.5885625 L297.732125,97.6845625 L298.248125,100.608563 L298.420125,103.704563 L298.420125,106.886562 L297.990125,109.810563 L296.872125,112.734562 L295.410125,115.400562 L293.432125,117.722562 L291.110125,119.786562 L288.530125,121.162562 L282.854125,123.484563 L279.844125,124.258563 L276.834125,124.602562 L273.824125,124.688562 L271.158125,124.602562 L268.578125,124.430562 L263.332125,124.774563 L262.816125,124.946563 L262.558125,125.376562 L262.644125,127.870563 L262.644125,130.278563 L262.816125,130.794562 L263.246125,131.052563 L266.256125,130.880562 L268.320125,130.880562 L269.266125,131.052563 L269.696125,131.224563 L270.212125,131.568562 L270.470125,131.998562 L270.642125,132.600563 L270.814125,133.804562 L270.642125,135.266562 L270.384125,138.018563 L270.556125,140.770562 L270.556125,142.146562 L270.384125,143.436563 L269.954125,144.296562 L269.610125,144.468562 L269.094125,144.554562 L266.084125,144.726562 L263.074125,144.468562 L260.064125,144.640562 L257.054125,144.898563 L250.948125,144.726562 Z M262.300125,99.6625625 L262.300125,106.198562 L262.472125,108.950562 L262.558125,109.466563 L262.902125,109.896562 L263.418125,110.068562 L263.934125,110.154562 L265.396125,110.154562 L266.428125,110.240563 L270.298125,110.240563 L272.362125,110.412563 L273.824125,110.498562 L275.200125,110.326563 L276.576125,109.896562 L277.694125,109.294562 L278.726125,108.520562 L279.672125,107.660562 L280.360125,106.628562 L280.876125,105.424562 L281.048125,103.876562 L280.876125,102.500563 L280.360125,101.296562 L279.586125,100.350563 L278.640125,99.5765625 L277.608125,98.8885625 L276.490125,98.3725625 L275.200125,98.0285625 L273.824125,97.8565625 L270.986125,97.8565625 L267.116125,97.6845625 L264.278125,97.6845625 L263.590125,97.8565625 L262.902125,98.2865625 L262.472125,98.8885625 L262.300125,99.6625625 Z"></path>
                            </g>
                        </g>
                        <text id="2020" font-family="SignPainter-HouseScriptSemibold, SignPainter" font-size="150" font-style="condensed" font-weight="500" letter-spacing="3.75" fill="#FFFFFF">
                            <tspan x="957.45" y="434">2020</tspan>
                        </text>
                    </g>
                </g>
                <g id="logo_OCHEN'_INTERESNO" transform="translate(56.000000, 19.000000)">
                    <path d="M32.5245902,15.5 C32.5245902,23.4514124 26.2401778,30.007533 18.1427187,30.8949153 C17.5240777,30.9649718 16.8993115,31 16.2622951,31 C16.1214164,31 15.9744126,31 15.833534,30.994162 C7.05005711,30.7781544 0,23.9242938 0,15.5 C0,6.94143126 7.28281313,0 16.2622951,0 C25.241777,0 32.5245902,6.94143126 32.5245902,15.5 Z" id="Shape" fill="#B71C1C" fill-rule="nonzero"></path>
                    <path d="M18.0692168,6.45833333 C18.0692168,7.64490376 17.055491,8.61111111 15.8105647,8.61111111 C14.5656383,8.61111111 13.5519126,7.64490376 13.5519126,6.45833333 C13.5519126,5.2717629 14.5597101,4.30555556 15.8105647,4.30555556 C17.0614192,4.30555556 18.0692168,5.26611257 18.0692168,6.45833333 Z" id="Shape" fill="#FFFFFF" fill-rule="nonzero"></path>
                    <path d="M28.007286,9.47222222 L28.007286,10.9865663 C28.007286,10.9865663 24.5213996,11.8756698 20.3199891,12.6844672 C18.8889411,13.9005314 15.1706622,17.4798902 15.1706622,21.8737825 C15.1706622,26.4971208 17.7147477,29.9617565 18.4791965,30.8967493 C17.8615219,30.9655831 17.2377317,31 16.6017103,31 C16.4610518,31 16.3142776,31 16.173619,30.9942638 C15.7027186,30.1969387 13.5744932,26.4225508 12.9873966,22.2294239 C12.3697219,17.8470039 12.8956627,14.1586583 12.9751654,13.6424046 C9.09788122,13.808753 5.19001911,13.5793069 5.19001911,13.5793069 L4.51730419,12.0592267 C4.51730419,12.0592267 10.5962008,11.9789206 16.7790625,11.3020547 C22.9680397,10.6194526 28.007286,9.47222222 28.007286,9.47222222 Z" id="Shape" fill="#FFFFFF" fill-rule="nonzero"></path>
                    <path d="M50.6243596,18.2734375 C50.6243596,20.164072 50.1556143,21.6171824 49.2181096,22.6328125 C48.2806049,23.6484426 46.9368684,24.15625 45.1868596,24.15625 C43.4368509,24.15625 42.0931143,23.6484426 41.1556096,22.6328125 C40.2181049,21.6171824 39.7493596,20.1588637 39.7493596,18.2578125 C39.7493596,16.3567613 40.219407,14.9049529 41.1595159,13.9023438 C42.0996247,12.8997346 43.4472675,12.3984375 45.2024846,12.3984375 C46.9577017,12.3984375 48.3001362,12.9036408 49.2298284,13.9140625 C50.1595205,14.9244842 50.6243596,16.3775947 50.6243596,18.2734375 Z M42.2884221,18.2734375 C42.2884221,19.5494855 42.5306072,20.5104134 43.0149846,21.15625 C43.4993621,21.8020866 44.2233131,22.125 45.1868596,22.125 C47.119161,22.125 48.0852971,20.8411587 48.0852971,18.2734375 C48.0852971,15.700508 47.1243692,14.4140625 45.2024846,14.4140625 C44.2389381,14.4140625 43.5123829,14.738278 43.0227971,15.3867188 C42.5332113,16.0351595 42.2884221,16.9973895 42.2884221,18.2734375 Z M54.8977971,15.265625 L54.8977971,18.4609375 C54.8977971,19.221358 55.2493561,19.6015625 55.9524846,19.6015625 C56.4108203,19.6015625 56.8365972,19.5494797 57.2298284,19.4453125 C57.6230595,19.3411453 58.020191,19.20573 58.4212346,19.0390625 L58.4212346,15.265625 L60.8040471,15.265625 L60.8040471,24 L58.4212346,24 L58.4212346,20.53125 C57.8691485,20.8229181 57.3561328,21.0286452 56.8821721,21.1484375 C56.4082114,21.2682298 55.9498827,21.328125 55.5071721,21.328125 C54.5540424,21.328125 53.8170706,21.0846379 53.2962346,20.5976562 C52.7753987,20.1106746 52.5149846,19.4166712 52.5149846,18.515625 L52.5149846,15.265625 L54.8977971,15.265625 Z M66.9134221,16.796875 C66.4082113,16.796875 66.0123819,16.9570296 65.7259221,17.2773438 C65.4394624,17.5976579 65.2754015,18.0520804 65.2337346,18.640625 L68.5774846,18.640625 C68.5670679,18.0520804 68.4134236,17.5976579 68.1165471,17.2773438 C67.8196706,16.9570296 67.418633,16.796875 66.9134221,16.796875 Z M67.2493596,24.15625 C65.8431026,24.15625 64.7441553,23.768233 63.9524846,22.9921875 C63.160814,22.216142 62.7649846,21.1171946 62.7649846,19.6953125 C62.7649846,18.2317635 63.1308664,17.1002644 63.8626409,16.3007812 C64.5944154,15.5012981 65.606124,15.1015625 66.8977971,15.1015625 C68.1321783,15.1015625 69.0931062,15.4531215 69.7806096,16.15625 C70.4681131,16.8593785 70.8118596,17.830723 70.8118596,19.0703125 L70.8118596,20.2265625 L65.1790471,20.2265625 C65.2050889,20.9036492 65.4056078,21.4322898 65.7806096,21.8125 C66.1556115,22.1927102 66.6816479,22.3828125 67.3587346,22.3828125 C67.8847789,22.3828125 68.3821698,22.3281255 68.8509221,22.21875 C69.3196745,22.1093745 69.8092529,21.934897 70.3196721,21.6953125 L70.3196721,23.5390625 C69.9030034,23.7473969 69.4576953,23.9023432 68.9837346,24.0039062 C68.5097739,24.1054693 67.9316547,24.15625 67.2493596,24.15625 Z M75.1321721,15.265625 L75.1321721,18.625 L78.4602971,18.625 L78.4602971,15.265625 L80.8431096,15.265625 L80.8431096,24 L78.4602971,24 L78.4602971,20.3984375 L75.1321721,20.3984375 L75.1321721,24 L72.7493596,24 L72.7493596,15.265625 L75.1321721,15.265625 Z M85.7259221,18.640625 L87.4056096,18.640625 C88.7493663,18.640625 89.7441481,18.8541645 90.3899846,19.28125 C91.0358212,19.7083355 91.3587346,20.3541623 91.3587346,21.21875 C91.3587346,23.0729259 90.0722892,24 87.4993596,24 L83.3431096,24 L83.3431096,15.265625 L85.7259221,15.265625 L85.7259221,18.640625 Z M88.9759221,21.25 C88.9759221,20.9114566 88.8405068,20.6666674 88.5696721,20.515625 C88.2988374,20.3645826 87.8951956,20.2890625 87.3587346,20.2890625 L85.7259221,20.2890625 L85.7259221,22.3515625 L87.3899846,22.3515625 C88.4472816,22.3515625 88.9759221,21.9843787 88.9759221,21.25 Z M97.5071721,12.578125 L99.6868596,12.578125 L99.6868596,18.09375 L99.6556096,19.5703125 L99.5774846,21.25 L99.6243596,21.25 L104.897797,12.578125 L107.796235,12.578125 L107.796235,24 L105.639985,24 L105.639985,18.515625 C105.639985,17.7812463 105.686859,16.6927155 105.78061,15.25 L105.71811,15.25 L100.421235,24 L97.5071721,24 L97.5071721,12.578125 Z M112.87436,15.265625 L112.87436,18.625 L116.202485,18.625 L116.202485,15.265625 L118.585297,15.265625 L118.585297,24 L116.202485,24 L116.202485,20.3984375 L112.87436,20.3984375 L112.87436,24 L110.491547,24 L110.491547,15.265625 L112.87436,15.265625 Z M128.31186,15.265625 L128.31186,17.0546875 L125.452485,17.0546875 L125.452485,24 L123.069672,24 L123.069672,17.0546875 L120.202485,17.0546875 L120.202485,15.265625 L128.31186,15.265625 Z M133.554047,16.796875 C133.048836,16.796875 132.653007,16.9570296 132.366547,17.2773438 C132.080087,17.5976579 131.916027,18.0520804 131.87436,18.640625 L135.21811,18.640625 C135.207693,18.0520804 135.054049,17.5976579 134.757172,17.2773438 C134.460296,16.9570296 134.059258,16.796875 133.554047,16.796875 Z M133.889985,24.15625 C132.483728,24.15625 131.38478,23.768233 130.59311,22.9921875 C129.801439,22.216142 129.40561,21.1171946 129.40561,19.6953125 C129.40561,18.2317635 129.771491,17.1002644 130.503266,16.3007812 C131.23504,15.5012981 132.246749,15.1015625 133.538422,15.1015625 C134.772803,15.1015625 135.733731,15.4531215 136.421235,16.15625 C137.108738,16.8593785 137.452485,17.830723 137.452485,19.0703125 L137.452485,20.2265625 L131.819672,20.2265625 C131.845714,20.9036492 132.046233,21.4322898 132.421235,21.8125 C132.796237,22.1927102 133.322273,22.3828125 133.99936,22.3828125 C134.525404,22.3828125 135.022795,22.3281255 135.491547,22.21875 C135.960299,22.1093745 136.449878,21.934897 136.960297,21.6953125 L136.960297,23.5390625 C136.543628,23.7473969 136.09832,23.9023432 135.62436,24.0039062 C135.150399,24.1054693 134.57228,24.15625 133.889985,24.15625 Z M144.18686,24.15625 C143.160813,24.15625 142.356133,23.7838579 141.772797,23.0390625 L141.647797,23.0390625 C141.731131,23.7682328 141.772797,24.1901036 141.772797,24.3046875 L141.772797,27.84375 L139.389985,27.84375 L139.389985,15.265625 L141.327485,15.265625 L141.663422,16.3984375 L141.772797,16.3984375 C142.330092,15.5338498 143.155604,15.1015625 144.24936,15.1015625 C145.280615,15.1015625 146.087898,15.499996 146.671235,16.296875 C147.254571,17.093754 147.546235,18.2005137 147.546235,19.6171875 C147.546235,20.5494838 147.409517,21.3593716 147.136078,22.046875 C146.86264,22.7343784 146.47332,23.2578107 145.96811,23.6171875 C145.462899,23.9765643 144.869155,24.15625 144.18686,24.15625 Z M143.483735,17.0078125 C142.89519,17.0078125 142.465507,17.1888003 142.194672,17.5507812 C141.923837,17.9127622 141.783214,18.5104125 141.772797,19.34375 L141.772797,19.6015625 C141.772797,20.5390672 141.912119,21.2109355 142.190766,21.6171875 C142.469413,22.0234395 142.910815,22.2265625 143.514985,22.2265625 C144.582698,22.2265625 145.116547,21.346363 145.116547,19.5859375 C145.116547,18.7265582 144.985038,18.0820334 144.722016,17.6523438 C144.458994,17.2226541 144.046237,17.0078125 143.483735,17.0078125 Z M153.132172,16.796875 C152.626961,16.796875 152.231132,16.9570296 151.944672,17.2773438 C151.658212,17.5976579 151.494152,18.0520804 151.452485,18.640625 L154.796235,18.640625 C154.785818,18.0520804 154.632174,17.5976579 154.335297,17.2773438 C154.038421,16.9570296 153.637383,16.796875 153.132172,16.796875 Z M153.46811,24.15625 C152.061853,24.15625 150.962905,23.768233 150.171235,22.9921875 C149.379564,22.216142 148.983735,21.1171946 148.983735,19.6953125 C148.983735,18.2317635 149.349616,17.1002644 150.081391,16.3007812 C150.813165,15.5012981 151.824874,15.1015625 153.116547,15.1015625 C154.350928,15.1015625 155.311856,15.4531215 155.99936,16.15625 C156.686863,16.8593785 157.03061,17.830723 157.03061,19.0703125 L157.03061,20.2265625 L151.397797,20.2265625 C151.423839,20.9036492 151.624358,21.4322898 151.99936,21.8125 C152.374362,22.1927102 152.900398,22.3828125 153.577485,22.3828125 C154.103529,22.3828125 154.60092,22.3281255 155.069672,22.21875 C155.538424,22.1093745 156.028003,21.934897 156.538422,21.6953125 L156.538422,23.5390625 C156.121753,23.7473969 155.676445,23.9023432 155.202485,24.0039062 C154.728524,24.1054693 154.150405,24.15625 153.46811,24.15625 Z M162.514985,24.15625 C159.796221,24.15625 158.43686,22.6640774 158.43686,19.6796875 C158.43686,18.1953051 158.806648,17.0612018 159.546235,16.2773438 C160.285822,15.4934857 161.345707,15.1015625 162.725922,15.1015625 C163.736344,15.1015625 164.642585,15.2994772 165.444672,15.6953125 L164.741547,17.5390625 C164.366545,17.3880201 164.01759,17.2643234 163.694672,17.1679688 C163.371754,17.0716141 163.04884,17.0234375 162.725922,17.0234375 C161.486333,17.0234375 160.866547,17.903637 160.866547,19.6640625 C160.866547,21.3724044 161.486333,22.2265625 162.725922,22.2265625 C163.184258,22.2265625 163.608733,22.1653652 163.99936,22.0429688 C164.389987,21.9205723 164.780608,21.729168 165.171235,21.46875 L165.171235,23.5078125 C164.785816,23.7526054 164.396497,23.9218745 164.003266,24.015625 C163.610035,24.1093755 163.113946,24.15625 162.514985,24.15625 Z M169.577485,15.265625 L169.577485,18.625 L172.90561,18.625 L172.90561,15.265625 L175.288422,15.265625 L175.288422,24 L172.90561,24 L172.90561,20.3984375 L169.577485,20.3984375 L169.577485,24 L167.194672,24 L167.194672,15.265625 L169.577485,15.265625 Z M179.68686,19.6171875 C179.68686,20.4817752 179.828785,21.1354145 180.112641,21.578125 C180.396496,22.0208355 180.858731,22.2421875 181.49936,22.2421875 C182.134779,22.2421875 182.591806,22.0221376 182.870453,21.5820313 C183.149101,21.1419249 183.288422,20.4869835 183.288422,19.6171875 C183.288422,18.7525998 183.147799,18.1041688 182.866547,17.671875 C182.585296,17.2395812 182.124363,17.0234375 181.483735,17.0234375 C180.848315,17.0234375 180.389986,17.2382791 180.108735,17.6679688 C179.827483,18.0976584 179.68686,18.7473915 179.68686,19.6171875 Z M185.725922,19.6171875 C185.725922,21.0390696 185.350926,22.1510377 184.600922,22.953125 C183.850918,23.7552123 182.806658,24.15625 181.46811,24.15625 C180.629564,24.15625 179.889988,23.9726581 179.24936,23.6054688 C178.608731,23.2382794 178.116549,22.7109409 177.772797,22.0234375 C177.429045,21.3359341 177.257172,20.5338588 177.257172,19.6171875 C177.257172,18.190097 177.629564,17.0807331 178.37436,16.2890625 C179.119155,15.4973919 180.16602,15.1015625 181.514985,15.1015625 C182.35353,15.1015625 183.093106,15.2838523 183.733735,15.6484375 C184.374363,16.0130227 184.866545,16.5364549 185.210297,17.21875 C185.554049,17.9010451 185.725922,18.7005162 185.725922,19.6171875 Z" id="-" fill="#FFFFFF"></path>
                </g>
            </g>
        </g>
    </g>
</svg>