<?xml version="1.0" encoding="UTF-8"?>
<svg width="187px" height="88px" viewBox="0 0 187 88" version="1.1" xmlns="http://www.w3.org/2000/svg" xmlns:xlink="http://www.w3.org/1999/xlink">
    <!-- Generator: Sketch 62 (91390) - https://sketch.com -->
    <title>iOS logo</title>
    <desc>Created with Sketch.</desc>
    <g id="ELEMENT-SHEET" stroke="none" stroke-width="1" fill="none" fill-rule="evenodd">
        <g id="Element-Sheet" transform="translate(-626.000000, -897.000000)" fill="#9E9E9E">
            <path d="M662.351275,922.317335 C665.823912,922.317335 672.332769,917.588886 679.175246,918.282745 C682.040365,918.402542 690.080545,919.438775 695.241878,927.002987 C694.831545,927.268533 685.645661,932.613325 685.756524,943.757861 C685.872193,957.069395 697.414357,961.49775 697.547359,961.558594 C697.44439,961.866766 695.699404,967.871213 691.461534,974.073145 C687.796516,979.435467 684.003301,984.772353 678.015984,984.883728 C672.128032,984.994415 670.237002,981.388653 663.510365,981.388653 C656.783557,981.388653 654.679552,984.772009 649.11561,984.994415 C643.337835,985.208915 638.937273,979.20464 635.246856,973.858645 C627.694406,962.937202 621.930017,942.98769 629.678795,929.521297 C633.519033,922.831756 640.395833,918.599682 647.853894,918.488651 C653.5287,918.385354 658.88739,922.317335 662.351275,922.317335 Z M752.483447,920.7664 C766.172817,920.765575 776.653139,931.708561 776.653139,951.695335 C776.653139,973.581513 764.663407,983.529701 751.53943,983.529701 C738.132756,983.529701 727.275846,972.768131 727.275846,952.60056 C727.275846,931.891009 738.510771,920.7664 752.483447,920.7664 Z M800.148535,920.855953 C805.235433,920.855953 809.073214,922.302951 810.858191,923.569151 L810.147989,925.130283 C808.63084,924.045911 804.530934,922.663926 800.069307,922.663926 C790.071279,922.663926 785.716172,930.319331 785.716172,935.955214 C785.716172,943.739199 791.670711,946.341979 799.345866,950.049976 C808.270749,954.481575 813,958.387705 813,966.889721 C813,976.024114 806.57498,983.439075 795.151456,983.439075 C790.420575,983.439075 784.977252,981.81128 782.299787,979.731285 L783.097568,977.92166 C786.043472,979.911257 791.128334,981.832744 795.501363,981.832744 C803.801179,981.832744 811.183047,975.948575 811.183047,967.288053 C811.183047,959.250827 806.265807,955.057402 797.917314,951.455077 C790.445627,948.231064 783.727728,944.731727 783.727728,936.139932 C783.727728,927.187368 790.688403,920.855953 800.148535,920.855953 Z M718.247925,939.214849 L718.247925,982.625198 L716.49187,982.625198 L716.49187,939.214849 L718.247925,939.214849 Z M752.584468,922.894691 C737.135377,922.894691 729.055323,935.951932 729.055323,952.147535 C729.055323,968.742088 736.991993,981.633599 751.622324,981.633599 C766.354288,981.633599 774.804005,968.345407 774.804005,951.958688 C774.804005,936.762837 768.033559,922.894691 752.584468,922.894691 Z M717.392913,923.986389 C718.418398,923.986389 719.070554,924.835888 719.070554,925.875267 C719.070554,926.960464 718.418398,927.763319 717.299835,927.763319 C716.368038,927.763319 715.669037,926.960464 715.669037,925.875267 C715.669037,924.835888 716.414271,923.986389 717.392913,923.986389 Z M679.264657,897 C679.829272,902.157104 677.759419,907.326584 674.692824,911.052658 C671.622968,914.770311 666.589317,917.665371 661.65812,917.280027 C660.991051,912.226048 663.480333,906.962381 666.323999,903.664447 C669.493221,899.946794 674.847449,897.180125 679.264657,897 Z" id="iOS-logo"></path>
        </g>
    </g>
</svg>